<svg version="1.1" viewBox="0.0 0.0 625.0 191.0" fill="none" stroke="none" stroke-linecap="square" stroke-miterlimit="10" xmlns:xlink="http://www.w3.org/1999/xlink" xmlns="http://www.w3.org/2000/svg"><clipPath id="p.0"><path d="m0 0l625.0 0l0 191.0l-625.0 0l0 -191.0z" clip-rule="nonzero"/></clipPath><g clip-path="url(#p.0)"><path fill="#000000" fill-opacity="0.0" d="m0 0l625.0 0l0 191.0l-625.0 0z" fill-rule="evenodd"/><path fill="#d9ead3" d="m7.5196853 128.48557l73.88976 0l0 46.078735l-73.88976 0z" fill-rule="evenodd"/><path stroke="#274e13" stroke-width="1.0" stroke-linejoin="round" stroke-linecap="butt" d="m7.5196853 128.48557l73.88976 0l0 46.078735l-73.88976 0z" fill-rule="evenodd"/><path fill="#274e13" d="m28.203611 146.06993q0 -0.375 0.0625 -0.5q0.078125 -0.125 0.34375 -0.15625q0.28125 -0.03125 1.109375 -0.03125l0 12.765625q0 0.171875 -0.078125 0.234375q-0.0625 0.046875 -0.4375 0.0625q-0.375 0 -1.0 0l0 -12.375zm9.981031 2.859375q0.890625 0 1.34375 0.296875q0.453125 0.296875 0.59375 0.859375q0.15625 0.546875 0.15625 1.46875l0 6.59375q0 0.171875 -0.078125 0.234375q-0.0625 0.046875 -0.4375 0.0625q-0.375 0 -0.984375 0l0 -6.90625q0 -0.71875 -0.1875 -1.0q-0.171875 -0.28125 -0.734375 -0.28125q-0.6875 0 -1.265625 0.359375l0 7.53125q0 0.171875 -0.0625 0.234375q-0.0625 0.046875 -0.421875 0.0625q-0.359375 0 -0.984375 0l-0.015625 0l0 -6.9375q0 -0.53125 -0.0625 -0.78125q-0.0625 -0.25 -0.265625 -0.359375q-0.1875 -0.125 -0.609375 -0.125q-0.671875 0 -1.265625 0.328125l0 7.578125q0 0.171875 -0.078125 0.234375q-0.078125 0.046875 -0.453125 0.0625q-0.3749981 0 -0.9843731 0l0 -8.90625q1.3593731 -0.609375 2.812498 -0.609375q1.15625 0 1.703125 0.578125q0.46875 -0.265625 1.09375 -0.421875q0.625 -0.15625 1.1875 -0.15625zm5.9596252 9.703125q-1.1875 0 -1.875 -0.5625q-0.671875 -0.578125 -0.671875 -2.28125q0 -1.765625 0.671875 -2.40625q0.6875 -0.640625 1.828125 -0.640625q0.875 0 1.359375 0.234375l0 -1.46875q0 -0.640625 -0.28125 -0.875q-0.28125 -0.25 -0.875 -0.25q-0.671875 0 -1.375 0.125q-0.6875 0.125 -1.109375 0.3125q-0.203125 -0.390625 -0.203125 -0.875q0 -0.375 0.203125 -0.515625q0.28125 -0.1875 1.078125 -0.34375q0.8125 -0.15625 1.78125 -0.15625q1.203125 0 1.734375 0.53125q0.546875 0.515625 0.546875 1.75l0 0.984375q0 4.109375 -0.109375 5.796875q-0.4375 0.28125 -1.140625 0.453125q-0.6875 0.1875 -1.5625 0.1875zm0.265625 -1.265625q0.296875 0 0.578125 -0.09375q0.28125 -0.09375 0.40625 -0.203125q0.0625 -0.640625 0.0625 -3.03125q-0.359375 -0.1875 -0.875 -0.1875q-0.671875 0 -1.046875 0.390625q-0.375 0.390625 -0.375 1.515625q0 0.953125 0.296875 1.28125q0.3125 0.328125 0.953125 0.328125zm7.760559 -0.453125q1.234375 0.1875 1.859375 0.671875q0.625 0.46875 0.625 1.5q0 1.296875 -0.921875 2.15625q-0.90625 0.875 -2.65625 0.875q-1.71875 0 -2.359375 -0.578125q-0.640625 -0.5625 -0.640625 -1.453125q0 -0.640625 0.390625 -1.234375q0.40625 -0.578125 1.046875 -1.015625q-1.171875 -0.328125 -1.15625 -1.015625q0 -0.75 1.1875 -1.671875q-1.15625 -0.75 -1.15625 -2.796875q0 -1.78125 0.828125 -2.59375q0.828125 -0.828125 2.28125 -0.828125q0.421875 0 0.9375 0.15625l2.21875 0q0.140625 0.25 0.140625 0.703125q0 0.578125 -0.515625 0.578125q-0.25 0 -0.671875 -0.09375q0.703125 0.703125 0.703125 2.03125q0 1.546875 -0.734375 2.40625q-0.71875 0.859375 -2.28125 0.859375q-0.484375 0 -0.84375 -0.078125q-0.5 0.515625 -0.5 0.828125q0 0.21875 0.46875 0.328125q0.46875 0.09375 1.75 0.265625zm-0.734375 -6.875q-0.671875 0 -1.078125 0.546875q-0.390625 0.546875 -0.390625 1.71875q0 1.078125 0.28125 1.59375q0.296875 0.515625 1.140625 0.515625q0.71875 0 1.0625 -0.609375q0.359375 -0.625 0.359375 -1.859375q0 -1.0 -0.34375 -1.453125q-0.328125 -0.453125 -1.03125 -0.453125zm-0.234375 10.703125q0.9375 0 1.421875 -0.453125q0.5 -0.4375 0.5 -1.0q0 -0.4375 -0.1875 -0.671875q-0.1875 -0.234375 -0.640625 -0.34375q-0.4375 -0.125 -1.28125 -0.1875l-0.375 -0.03125q-0.421875 0.328125 -0.71875 0.78125q-0.28125 0.453125 -0.28125 0.890625q0 0.515625 0.328125 0.765625q0.34375 0.25 1.234375 0.25zm7.47641 -3.5625q1.125 0 2.125 -0.59375q0.140625 0.40625 0.140625 1.015625q0 0.4375 -0.765625 0.734375q-0.75 0.296875 -1.8125 0.296875q-0.953125 0 -1.59375 -0.34375q-0.640625 -0.359375 -1.015625 -1.3125q-0.375 -0.953125 -0.375 -2.703125q0 -2.1875 0.453125 -3.359375q0.453125 -1.1875 1.15625 -1.578125q0.71875 -0.40625 1.6875 -0.40625q2.375 0 2.375 2.984375q0 1.5 -0.203125 2.421875q-0.828125 0.171875 -1.921875 0.234375q-1.09375 0.0625 -2.0 0.0625q0.03125 1.015625 0.21875 1.5625q0.203125 0.53125 0.5625 0.765625q0.375 0.21875 0.96875 0.21875zm-0.171875 -6.921875q-0.671875 0 -1.078125 0.703125q-0.40625 0.6875 -0.484375 2.484375q1.84375 0 2.5625 -0.21875q0.09375 -0.4375 0.09375 -1.125q-0.03125 -1.046875 -0.25 -1.4375q-0.21875 -0.40625 -0.84375 -0.40625z" fill-rule="nonzero"/><path fill="#d9d2e9" d="m37.755905 12.377953l13.417324 0l0 80.944885l-13.417324 0z" fill-rule="evenodd"/><path stroke="#20124d" stroke-width="1.0" stroke-linejoin="round" stroke-linecap="butt" d="m37.755905 12.377953l13.417324 0l0 80.944885l-13.417324 0z" fill-rule="evenodd"/><path fill="#fff2cc" d="m200.62466 97.35433l-111.27558 -22.251968l0 -44.503937l111.27558 -22.251968z" fill-rule="evenodd"/><path stroke="#7f6000" stroke-width="1.0" stroke-linejoin="round" stroke-linecap="butt" d="m200.62466 97.35433l-111.27558 -22.251968l0 -44.503937l111.27558 -22.251968z" fill-rule="evenodd"/><path fill="#000000" fill-opacity="0.0" d="m101.27034 34.97638l87.433075 0l0 35.74803l-87.433075 0z" fill-rule="evenodd"/><path fill="#000000" d="m124.25575 54.06727q0.59375 0.78125 1.109375 2.125q0.515625 1.34375 0.640625 3.25q0 0.21875 -0.140625 0.296875q-0.125 0.0625 -0.625 0.0625q-0.203125 0 -0.875 -0.03125q-0.140625 -2.046875 -0.59375 -3.34375q-0.453125 -1.296875 -0.9375 -1.96875q-0.125 0.015625 -0.375 0.015625l-0.671875 0l0 5.0q0 0.171875 -0.0625 0.234375q-0.0625 0.046875 -0.4375 0.0625q-0.375 0 -0.984375 0l0 -12.765625q0 -0.0625 0.046875 -0.171875q0.0625 -0.125 0.25 -0.125l1.84375 0q1.765625 0 2.59375 0.875q0.84375 0.875 0.84375 2.796875q0 2.75 -1.625 3.6875zm-1.640625 -1.0q0.8125 0 1.203125 -0.640625q0.390625 -0.640625 0.390625 -2.09375q0 -1.140625 -0.34375 -1.71875q-0.34375 -0.578125 -1.140625 -0.578125l-0.9375 0l0 5.03125l0.828125 0zm7.6588745 5.4375q1.125 0 2.125 -0.59375q0.140625 0.40625 0.140625 1.015625q0 0.4375 -0.765625 0.734375q-0.75 0.296875 -1.8125 0.296875q-0.953125 0 -1.59375 -0.34375q-0.640625 -0.359375 -1.015625 -1.3125q-0.375 -0.953125 -0.375 -2.703125q0 -2.1875 0.453125 -3.359375q0.453125 -1.1875 1.15625 -1.578125q0.71875 -0.40625 1.6875 -0.40625q2.375 0 2.375 2.984375q0 1.5 -0.203125 2.421875q-0.828125 0.171875 -1.921875 0.234375q-1.09375 0.0625 -2.0 0.0625q0.03125 1.015625 0.21875 1.5625q0.203125 0.53125 0.5625 0.765625q0.375 0.21875 0.96875 0.21875zm-0.171875 -6.921875q-0.671875 0 -1.078125 0.703125q-0.40625 0.6875 -0.484375 2.484375q1.84375 0 2.5625 -0.21875q0.09375 -0.4375 0.09375 -1.125q-0.03125 -1.046875 -0.25 -1.4375q-0.21875 -0.40625 -0.84375 -0.40625zm3.891159 -0.6875q0.578125 -0.265625 1.40625 -0.453125q0.84375 -0.1875 1.5625 -0.1875q1.453125 0 2.03125 0.578125q0.578125 0.5625 0.578125 1.921875l0 6.71875q0 0.171875 -0.078125 0.234375q-0.078125 0.046875 -0.46875 0.0625q-0.375 0 -1.0 0l0 -6.5625q0 -0.9375 -0.234375 -1.28125q-0.21875 -0.359375 -0.890625 -0.359375q-0.328125 0 -0.734375 0.078125q-0.390625 0.078125 -0.671875 0.25l0 7.578125q0 0.171875 -0.078125 0.234375q-0.0625 0.046875 -0.4375 0.0625q-0.375 0 -0.984375 0l0 -8.875zm10.082001 9.0625q-0.9375 0 -1.59375 -0.3125q-0.640625 -0.328125 -1.03125 -1.3125q-0.390625 -0.984375 -0.390625 -2.890625q0 -2.625 0.796875 -3.90625q0.796875 -1.28125 2.0625 -1.28125q0.859375 0 1.34375 0.375l0 -3.875q0 -0.359375 0.109375 -0.5q0.125 -0.140625 0.40625 -0.171875q0.28125 -0.03125 0.984375 -0.03125l0 13.34375q-1.1875 0.5625 -2.6875 0.5625zm0.0625 -1.34375q0.703125 0 1.125 -0.28125l0 -6.53125q-0.328125 -0.234375 -0.859375 -0.234375q-1.6875 0 -1.6875 3.703125q0 1.359375 0.171875 2.09375q0.171875 0.734375 0.46875 1.0q0.296875 0.25 0.78125 0.25zm7.311157 -0.109375q1.125 0 2.125 -0.59375q0.140625 0.40625 0.140625 1.015625q0 0.4375 -0.765625 0.734375q-0.75 0.296875 -1.8125 0.296875q-0.953125 0 -1.59375 -0.34375q-0.640625 -0.359375 -1.015625 -1.3125q-0.375 -0.953125 -0.375 -2.703125q0 -2.1875 0.453125 -3.359375q0.453125 -1.1875 1.15625 -1.578125q0.71875 -0.40625 1.6875 -0.40625q2.375 0 2.375 2.984375q0 1.5 -0.203125 2.421875q-0.828125 0.171875 -1.921875 0.234375q-1.09375 0.0625 -2.0 0.0625q0.03125 1.015625 0.21875 1.5625q0.203125 0.53125 0.5625 0.765625q0.375 0.21875 0.96875 0.21875zm-0.171875 -6.921875q-0.671875 0 -1.078125 0.703125q-0.40625 0.6875 -0.484375 2.484375q1.84375 0 2.5625 -0.21875q0.09375 -0.4375 0.09375 -1.125q-0.03125 -1.046875 -0.25 -1.4375q-0.21875 -0.40625 -0.84375 -0.40625zm3.891159 -0.484375q1.1875 -0.84375 2.53125 -0.84375q0.6875 0 1.0 0.203125q0.3125 0.1875 0.3125 0.578125q0 0.46875 -0.171875 0.875q-0.390625 -0.21875 -0.890625 -0.21875q-0.734375 0 -1.234375 0.421875l-0.015625 7.359375q0 0.171875 -0.078125 0.234375q-0.078125 0.046875 -0.453125 0.0625q-0.375 0 -1.0 0l0 -8.671875zm7.548889 7.40625q1.125 0 2.125 -0.59375q0.140625 0.40625 0.140625 1.015625q0 0.4375 -0.765625 0.734375q-0.75 0.296875 -1.8125 0.296875q-0.953125 0 -1.59375 -0.34375q-0.640625 -0.359375 -1.015625 -1.3125q-0.375 -0.953125 -0.375 -2.703125q0 -2.1875 0.453125 -3.359375q0.453125 -1.1875 1.15625 -1.578125q0.71875 -0.40625 1.6875 -0.40625q2.375 0 2.375 2.984375q0 1.5 -0.203125 2.421875q-0.828125 0.171875 -1.921875 0.234375q-1.09375 0.0625 -2.0 0.0625q0.03125 1.015625 0.21875 1.5625q0.203125 0.53125 0.5625 0.765625q0.375 0.21875 0.96875 0.21875zm-0.171875 -6.921875q-0.671875 0 -1.078125 0.703125q-0.40625 0.6875 -0.484375 2.484375q1.84375 0 2.5625 -0.21875q0.09375 -0.4375 0.09375 -1.125q-0.03125 -1.046875 -0.25 -1.4375q-0.21875 -0.40625 -0.84375 -0.40625zm3.891159 -0.484375q1.1875 -0.84375 2.53125 -0.84375q0.6875 0 1.0 0.203125q0.3125 0.1875 0.3125 0.578125q0 0.46875 -0.171875 0.875q-0.390625 -0.21875 -0.890625 -0.21875q-0.734375 0 -1.234375 0.421875l-0.015625 7.359375q0 0.171875 -0.078125 0.234375q-0.078125 0.046875 -0.453125 0.0625q-0.375 0 -1.0 0l0 -8.671875z" fill-rule="nonzero"/><path fill="#d9ead3" d="m238.80052 29.811024l73.889755 0l0 46.07874l-73.889755 0z" fill-rule="evenodd"/><path stroke="#274e13" stroke-width="1.0" stroke-linejoin="round" stroke-linecap="butt" d="m238.80052 29.811024l73.889755 0l0 46.07874l-73.889755 0z" fill-rule="evenodd"/><path fill="#274e13" d="m252.34842 47.395393q0 -0.375 0.0625 -0.5q0.078125 -0.125 0.34375 -0.15625q0.28125 -0.03125 1.109375 -0.03125l0 12.765625q0 0.171875 -0.078125 0.234375q-0.0625 0.046875 -0.4375 0.0625q-0.375 0 -1.0 0l0 -12.375zm3.1685333 3.5q0.57810974 -0.265625 1.4062347 -0.453125q0.84375 -0.1875 1.5625 -0.1875q1.453125 0 2.03125 0.578125q0.578125 0.5625 0.578125 1.921875l0 6.71875q0 0.171875 -0.078125 0.234375q-0.078125 0.046875 -0.46875 0.0625q-0.375 0 -1.0 0l0 -6.5625q0 -0.9375 -0.234375 -1.28125q-0.21875 -0.359375 -0.890625 -0.359375q-0.328125 0 -0.734375 0.078125q-0.390625 0.078125 -0.671875 0.25l0 7.578125q0 0.171875 -0.078125 0.234375q-0.0625 0.046875 -0.4375 0.0625q-0.375 0 -0.98435974 0l0 -8.875zm9.2417145 9.0625q-1.015625 0 -1.640625 -0.234375q-0.625 -0.25 -0.625 -0.703125q0 -0.4375 0.28125 -0.875q0.765625 0.453125 1.84375 0.453125q0.734375 0 1.125 -0.28125q0.40625 -0.296875 0.40625 -0.859375q0 -0.40625 -0.171875 -0.765625q-0.171875 -0.359375 -0.578125 -0.703125l-1.8125 -1.546875q-1.078125 -0.890625 -1.078125 -1.984375q0 -1.03125 0.765625 -1.609375q0.78125 -0.59375 2.296875 -0.59375q1.265625 0 1.796875 0.34375q0.53125 0.328125 0.53125 0.703125q0 0.171875 -0.09375 0.390625q-0.09375 0.203125 -0.21875 0.375q-0.828125 -0.5 -1.84375 -0.5q-0.671875 0 -1.078125 0.25q-0.40625 0.234375 -0.40625 0.65625q0 0.28125 0.140625 0.53125q0.15625 0.25 0.609375 0.625l1.734375 1.40625q0.609375 0.59375 0.859375 1.125q0.265625 0.515625 0.265625 1.203125q0 1.234375 -0.84375 1.921875q-0.828125 0.671875 -2.265625 0.671875zm7.0175476 0q-0.765625 0 -1.15625 -0.328125q-0.375 -0.328125 -0.5 -0.90625q-0.109375 -0.59375 -0.109375 -1.546875l0 -5.453125l-1.265625 0q0 -0.5 0.015625 -0.796875q0.015625 -0.3125 0.078125 -0.390625q0.0625 -0.09375 0.21875 -0.09375l0.953125 0l0 -2.828125q0 -0.265625 0.109375 -0.359375q0.125 -0.109375 0.390625 -0.140625q0.28125 -0.03125 0.984375 -0.03125l0 3.359375l1.953125 0q0 0.5 -0.03125 0.828125q-0.015625 0.3125 -0.078125 0.390625q-0.0625 0.0625 -0.21875 0.0625l-1.625 0l0 5.453125q0 0.765625 0.125 1.140625q0.125 0.359375 0.578125 0.359375q0.296875 0 0.515625 -0.0625q0.21875 -0.078125 0.5625 -0.21875q0.109375 0.375 0.109375 0.734375q0 0.453125 -0.46875 0.640625q-0.46875 0.1875 -1.140625 0.1875zm5.0387573 0q-1.1875 0 -1.875 -0.5625q-0.671875 -0.578125 -0.671875 -2.28125q0 -1.765625 0.671875 -2.40625q0.6875 -0.640625 1.828125 -0.640625q0.875 0 1.359375 0.234375l0 -1.46875q0 -0.640625 -0.28125 -0.875q-0.28125 -0.25 -0.875 -0.25q-0.671875 0 -1.375 0.125q-0.6875 0.125 -1.109375 0.3125q-0.203125 -0.390625 -0.203125 -0.875q0 -0.375 0.203125 -0.515625q0.28125 -0.1875 1.078125 -0.34375q0.8125 -0.15625 1.78125 -0.15625q1.203125 0 1.734375 0.53125q0.546875 0.515625 0.546875 1.75l0 0.984375q0 4.109375 -0.109375 5.796875q-0.4375 0.28125 -1.140625 0.453125q-0.6875 0.1875 -1.5625 0.1875zm0.265625 -1.265625q0.296875 0 0.578125 -0.09375q0.28125 -0.09375 0.40625 -0.203125q0.0625 -0.640625 0.0625 -3.03125q-0.359375 -0.1875 -0.875 -0.1875q-0.671875 0 -1.046875 0.390625q-0.375 0.390625 -0.375 1.515625q0 0.953125 0.296875 1.28125q0.3125 0.328125 0.953125 0.328125zm4.088684 -7.796875q0.578125 -0.265625 1.40625 -0.453125q0.84375 -0.1875 1.5625 -0.1875q1.453125 0 2.03125 0.578125q0.578125 0.5625 0.578125 1.921875l0 6.71875q0 0.171875 -0.078125 0.234375q-0.078125 0.046875 -0.46875 0.0625q-0.375 0 -1.0 0l0 -6.5625q0 -0.9375 -0.234375 -1.28125q-0.21875 -0.359375 -0.890625 -0.359375q-0.328125 0 -0.734375 0.078125q-0.390625 0.078125 -0.671875 0.25l0 7.578125q0 0.171875 -0.078125 0.234375q-0.0625 0.046875 -0.4375 0.0625q-0.375 0 -0.984375 0l0 -8.875zm9.847626 9.0625q-0.96875 0 -1.578125 -0.359375q-0.59375 -0.375 -0.90625 -1.375q-0.296875 -1.015625 -0.296875 -2.90625q0 -3.015625 0.921875 -4.03125q0.9375 -1.03125 2.421875 -1.03125q0.671875 0 1.109375 0.25q0.453125 0.234375 0.453125 0.59375q0 0.421875 -0.171875 0.84375q-0.625 -0.359375 -1.3125 -0.359375q-0.828125 0 -1.359375 0.765625q-0.515625 0.75 -0.515625 2.984375q0 1.28125 0.171875 2.0q0.1875 0.71875 0.546875 1.0q0.359375 0.28125 0.96875 0.28125q0.421875 0 0.8125 -0.125q0.40625 -0.125 0.671875 -0.296875q0.15625 0.53125 0.15625 0.8125q0 0.390625 -0.609375 0.671875q-0.59375 0.28125 -1.484375 0.28125zm6.078064 -1.453125q1.125 0 2.125 -0.59375q0.140625 0.40625 0.140625 1.015625q0 0.4375 -0.765625 0.734375q-0.75 0.296875 -1.8125 0.296875q-0.953125 0 -1.59375 -0.34375q-0.640625 -0.359375 -1.015625 -1.3125q-0.375 -0.953125 -0.375 -2.703125q0 -2.1875 0.453125 -3.359375q0.453125 -1.1875 1.15625 -1.578125q0.71875 -0.40625 1.6875 -0.40625q2.375 0 2.375 2.984375q0 1.5 -0.203125 2.421875q-0.828125 0.171875 -1.921875 0.234375q-1.09375 0.0625 -2.0 0.0625q0.03125 1.015625 0.21875 1.5625q0.203125 0.53125 0.5625 0.765625q0.375 0.21875 0.96875 0.21875zm-0.171875 -6.921875q-0.671875 0 -1.078125 0.703125q-0.40625 0.6875 -0.484375 2.484375q1.84375 0 2.5625 -0.21875q0.09375 -0.4375 0.09375 -1.125q-0.03125 -1.046875 -0.25 -1.4375q-0.21875 -0.40625 -0.84375 -0.40625z" fill-rule="nonzero"/><path fill="#f4cccc" d="m372.4147 29.811024l73.88977 0l0 46.07874l-73.88977 0z" fill-rule="evenodd"/><path stroke="#660000" stroke-width="1.0" stroke-linejoin="round" stroke-linecap="butt" d="m372.4147 29.811024l73.88977 0l0 46.07874l-73.88977 0z" fill-rule="evenodd"/><path fill="#660000" d="m397.29623 47.145393q0 -0.25 0.0625 -0.3125q0.078125 -0.078125 0.34375 -0.09375q0.265625 -0.03125 1.09375 -0.03125l0 11.640625l3.21875 0l0 1.125q0 0.171875 -0.078125 0.234375q-0.078125 0.0625 -0.21875 0.0625l-4.421875 0l0 -12.625zm8.467438 12.8125q-1.046875 0 -1.671875 -0.34375q-0.609375 -0.359375 -0.9375 -1.40625q-0.328125 -1.0625 -0.328125 -3.109375q0 -4.84375 3.125 -4.84375q1.015625 0 1.625 0.421875q0.625 0.421875 0.9375 1.484375q0.328125 1.046875 0.328125 2.90625q0 2.53125 -0.78125 3.71875q-0.765625 1.171875 -2.296875 1.171875zm0.03125 -1.265625q0.671875 0 1.03125 -0.78125q0.375 -0.796875 0.375 -2.84375q0 -1.453125 -0.140625 -2.21875q-0.140625 -0.765625 -0.421875 -1.046875q-0.28125 -0.28125 -0.75 -0.28125q-0.6875 0 -1.0625 0.796875q-0.359375 0.78125 -0.359375 2.828125q0 1.484375 0.140625 2.25q0.15625 0.765625 0.4375 1.03125q0.28125 0.265625 0.75 0.265625zm6.374115 1.265625q-1.015625 0 -1.640625 -0.234375q-0.625 -0.25 -0.625 -0.703125q0 -0.4375 0.28125 -0.875q0.765625 0.453125 1.84375 0.453125q0.734375 0 1.125 -0.28125q0.40625 -0.296875 0.40625 -0.859375q0 -0.40625 -0.171875 -0.765625q-0.171875 -0.359375 -0.578125 -0.703125l-1.8125 -1.546875q-1.078125 -0.890625 -1.078125 -1.984375q0 -1.03125 0.765625 -1.609375q0.78125 -0.59375 2.296875 -0.59375q1.265625 0 1.796875 0.34375q0.53125 0.328125 0.53125 0.703125q0 0.171875 -0.09375 0.390625q-0.09375 0.203125 -0.21875 0.375q-0.828125 -0.5 -1.84375 -0.5q-0.671875 0 -1.078125 0.25q-0.40625 0.234375 -0.40625 0.65625q0 0.28125 0.140625 0.53125q0.15625 0.25 0.609375 0.625l1.734375 1.40625q0.609375 0.59375 0.859375 1.125q0.265625 0.515625 0.265625 1.203125q0 1.234375 -0.84375 1.921875q-0.828125 0.671875 -2.265625 0.671875zm6.455078 0q-1.015625 0 -1.640625 -0.234375q-0.625 -0.25 -0.625 -0.703125q0 -0.4375 0.28125 -0.875q0.765625 0.453125 1.84375 0.453125q0.734375 0 1.125 -0.28125q0.40625 -0.296875 0.40625 -0.859375q0 -0.40625 -0.171875 -0.765625q-0.171875 -0.359375 -0.578125 -0.703125l-1.8125 -1.546875q-1.078125 -0.890625 -1.078125 -1.984375q0 -1.03125 0.765625 -1.609375q0.78125 -0.59375 2.296875 -0.59375q1.265625 0 1.796875 0.34375q0.53125 0.328125 0.53125 0.703125q0 0.171875 -0.09375 0.390625q-0.09375 0.203125 -0.21875 0.375q-0.828125 -0.5 -1.84375 -0.5q-0.671875 0 -1.078125 0.25q-0.40625 0.234375 -0.40625 0.65625q0 0.28125 0.140625 0.53125q0.15625 0.25 0.609375 0.625l1.734375 1.40625q0.609375 0.59375 0.859375 1.125q0.265625 0.515625 0.265625 1.203125q0 1.234375 -0.84375 1.921875q-0.828125 0.671875 -2.265625 0.671875z" fill-rule="nonzero"/><path fill="#000000" fill-opacity="0.0" d="m51.17323 52.850395l38.17323 0" fill-rule="evenodd"/><path stroke="#000000" stroke-width="1.0" stroke-linejoin="round" stroke-linecap="butt" d="m51.17323 52.850395l32.17323 0" fill-rule="evenodd"/><path fill="#000000" stroke="#000000" stroke-width="1.0" stroke-linecap="butt" d="m83.34646 54.502125l4.5380936 -1.6517296l-4.5380936 -1.6517334z" fill-rule="evenodd"/><path fill="#000000" fill-opacity="0.0" d="m200.62466 52.850395l38.173233 0" fill-rule="evenodd"/><path stroke="#000000" stroke-width="1.0" stroke-linejoin="round" stroke-linecap="butt" d="m200.62466 52.850395l32.173233 0" fill-rule="evenodd"/><path fill="#000000" stroke="#000000" stroke-width="1.0" stroke-linecap="butt" d="m232.7979 54.502125l4.538101 -1.6517296l-4.538101 -1.6517334z" fill-rule="evenodd"/><path fill="#000000" fill-opacity="0.0" d="m312.69028 52.850395l59.716553 0" fill-rule="evenodd"/><path stroke="#000000" stroke-width="1.0" stroke-linejoin="round" stroke-linecap="butt" d="m312.69028 52.850395l53.716553 0" fill-rule="evenodd"/><path fill="#000000" stroke="#000000" stroke-width="1.0" stroke-linecap="butt" d="m366.40683 54.502125l4.538086 -1.6517296l-4.538086 -1.6517334z" fill-rule="evenodd"/><path fill="#000000" fill-opacity="0.0" d="m81.40945 151.52493l260.34192 0l0 -98.67716l30.650208 0" fill-rule="evenodd"/><path stroke="#000000" stroke-width="1.0" stroke-linejoin="round" stroke-linecap="butt" d="m81.40945 151.52493l260.34192 0l0 -98.67716l30.650208 0" fill-rule="evenodd"/><path fill="#c9daf8" d="m506.02887 29.811024l101.98425 0l0 46.07874l-101.98425 0z" fill-rule="evenodd"/><path stroke="#4a86e8" stroke-width="1.0" stroke-linejoin="round" stroke-linecap="butt" d="m506.02887 29.811024l101.98425 0l0 46.07874l-101.98425 0z" fill-rule="evenodd"/><path fill="#660000" d="m532.9553 59.957893q-1.265625 0 -1.984375 -0.578125q-0.71875 -0.59375 -1.0625 -2.0625q-0.328125 -1.46875 -0.328125 -4.15625q0 -2.453125 0.375 -3.90625q0.390625 -1.46875 1.171875 -2.09375q0.78125 -0.640625 2.03125 -0.640625q1.234375 0 1.9375 0.609375q0.71875 0.609375 1.03125 2.03125q0.328125 1.40625 0.328125 3.953125q0 2.546875 -0.359375 4.046875q-0.359375 1.484375 -1.125 2.140625q-0.765625 0.65625 -2.015625 0.65625zm0.0625 -1.546875q0.6875 0 1.078125 -0.515625q0.390625 -0.53125 0.5625 -1.671875q0.1875 -1.140625 0.1875 -3.078125q0 -1.9375 -0.15625 -3.015625q-0.15625 -1.09375 -0.53125 -1.578125q-0.359375 -0.484375 -1.03125 -0.484375q-0.671875 0 -1.078125 0.53125q-0.40625 0.53125 -0.59375 1.71875q-0.1875 1.1875 -0.1875 3.21875q0 1.796875 0.15625 2.859375q0.171875 1.046875 0.546875 1.53125q0.375 0.484375 1.046875 0.484375zm5.581665 5.03125q-0.40625 0 -0.5625 -0.140625q-0.15625 -0.140625 -0.15625 -0.515625l0 -11.78125q1.171875 -0.75 2.71875 -0.75q1.5 0 2.265625 0.859375q0.78125 0.859375 0.78125 3.015625q0 3.390625 -0.796875 4.609375q-0.796875 1.21875 -1.984375 1.21875q-0.484375 0 -0.875 -0.15625q-0.375 -0.140625 -0.59375 -0.359375l0 3.890625q-0.359375 0.109375 -0.796875 0.109375zm1.796875 -4.828125q1.59375 0 1.59375 -4.3125q0 -1.09375 -0.171875 -1.6875q-0.15625 -0.609375 -0.46875 -0.828125q-0.296875 -0.21875 -0.828125 -0.21875q-0.625 0 -1.125 0.34375l0 6.09375q0.375 0.609375 1.0 0.609375zm6.8809814 1.34375q-0.765625 0 -1.15625 -0.328125q-0.375 -0.328125 -0.5 -0.90625q-0.109375 -0.59375 -0.109375 -1.546875l0 -5.453125l-1.265625 0q0 -0.5 0.015625 -0.796875q0.015625 -0.3125 0.078125 -0.390625q0.0625 -0.09375 0.21875 -0.09375l0.953125 0l0 -2.828125q0 -0.265625 0.109375 -0.359375q0.125 -0.109375 0.390625 -0.140625q0.28125 -0.03125 0.984375 -0.03125l0 3.359375l1.953125 0q0 0.5 -0.03125 0.828125q-0.015625 0.3125 -0.078125 0.390625q-0.0625 0.0625 -0.21875 0.0625l-1.625 0l0 5.453125q0 0.765625 0.125 1.140625q0.125 0.359375 0.578125 0.359375q0.296875 0 0.515625 -0.0625q0.21875 -0.078125 0.5625 -0.21875q0.109375 0.375 0.109375 0.734375q0 0.453125 -0.46875 0.640625q-0.46875 0.1875 -1.140625 0.1875zm2.9320068 -8.828125q0 -0.359375 0.125 -0.484375q0.125 -0.140625 0.390625 -0.171875q0.28125 -0.03125 1.0 -0.03125l0 9.03125q0 0.171875 -0.078125 0.234375q-0.0625 0.046875 -0.4375 0.0625q-0.359375 0 -1.0 0l0 -8.640625zm0.703125 -2.0q-0.75 0 -0.75 -1.078125q0 -1.1875 0.859375 -1.1875q0.40625 0 0.578125 0.25q0.171875 0.234375 0.171875 0.828125q0 0.5625 -0.234375 0.875q-0.21875 0.3125 -0.625 0.3125zm9.585632 1.125q0.890625 0 1.34375 0.296875q0.453125 0.296875 0.59375 0.859375q0.15625 0.546875 0.15625 1.46875l0 6.59375q0 0.171875 -0.078125 0.234375q-0.0625 0.046875 -0.4375 0.0625q-0.375 0 -0.984375 0l0 -6.90625q0 -0.71875 -0.1875 -1.0q-0.171875 -0.28125 -0.734375 -0.28125q-0.6875 0 -1.265625 0.359375l0 7.53125q0 0.171875 -0.0625 0.234375q-0.0625 0.046875 -0.421875 0.0625q-0.359375 0 -0.984375 0l-0.015625 0l0 -6.9375q0 -0.53125 -0.0625 -0.78125q-0.0625 -0.25 -0.265625 -0.359375q-0.1875 -0.125 -0.609375 -0.125q-0.671875 0 -1.265625 0.328125l0 7.578125q0 0.171875 -0.078125 0.234375q-0.078125 0.046875 -0.453125 0.0625q-0.375 0 -0.984375 0l0 -8.90625q1.359375 -0.609375 2.8125 -0.609375q1.15625 0 1.703125 0.578125q0.46875 -0.265625 1.09375 -0.421875q0.625 -0.15625 1.1875 -0.15625zm4.244873 0.875q0 -0.359375 0.125 -0.484375q0.125 -0.140625 0.390625 -0.171875q0.28125 -0.03125 1.0 -0.03125l0 9.03125q0 0.171875 -0.078125 0.234375q-0.0625 0.046875 -0.4375 0.0625q-0.359375 0 -1.0 0l0 -8.640625zm0.703125 -2.0q-0.75 0 -0.75 -1.078125q0 -1.1875 0.859375 -1.1875q0.40625 0 0.578125 0.25q0.171875 0.234375 0.171875 0.828125q0 0.5625 -0.234375 0.875q-0.21875 0.3125 -0.625 0.3125zm2.3273315 10.640625q-0.03125 -0.015625 -0.09375 -0.09375q-0.046875 -0.09375 -0.109375 -0.25q-0.046875 -0.171875 -0.046875 -0.40625q0 -0.328125 0.125 -0.5625l3.640625 -6.75l-1.921875 0q-1.0625 0 -1.71875 0.09375q-0.046875 -0.3125 -0.046875 -0.703125q0 -0.34375 0.109375 -0.5q0.109375 -0.15625 0.375 -0.15625l4.75 0q0.03125 0.015625 0.09375 0.140625q0.0625 0.125 0.0625 0.328125q0 0.359375 -0.171875 0.71875l-3.546875 6.734375l1.671875 0q1.21875 0 1.96875 -0.171875q0.046875 0.140625 0.046875 0.640625q0 0.515625 -0.125 0.734375q-0.125 0.203125 -0.484375 0.203125l-4.578125 0zm9.468628 -1.265625q1.125 0 2.125 -0.59375q0.140625 0.40625 0.140625 1.015625q0 0.4375 -0.765625 0.734375q-0.75 0.296875 -1.8125 0.296875q-0.953125 0 -1.59375 -0.34375q-0.640625 -0.359375 -1.015625 -1.3125q-0.375 -0.953125 -0.375 -2.703125q0 -2.1875 0.453125 -3.359375q0.453125 -1.1875 1.15625 -1.578125q0.71875 -0.40625 1.6875 -0.40625q2.375 0 2.375 2.984375q0 1.5 -0.203125 2.421875q-0.828125 0.171875 -1.921875 0.234375q-1.09375 0.0625 -2.0 0.0625q0.03125 1.015625 0.21875 1.5625q0.203125 0.53125 0.5625 0.765625q0.375 0.21875 0.96875 0.21875zm-0.171875 -6.921875q-0.671875 0 -1.078125 0.703125q-0.40625 0.6875 -0.484375 2.484375q1.84375 0 2.5625 -0.21875q0.09375 -0.4375 0.09375 -1.125q-0.03125 -1.046875 -0.25 -1.4375q-0.21875 -0.40625 -0.84375 -0.40625zm3.8911133 -0.484375q1.1875 -0.84375 2.53125 -0.84375q0.6875 0 1.0 0.203125q0.3125 0.1875 0.3125 0.578125q0 0.46875 -0.171875 0.875q-0.390625 -0.21875 -0.890625 -0.21875q-0.734375 0 -1.234375 0.421875l-0.015625 7.359375q0 0.171875 -0.078125 0.234375q-0.078125 0.046875 -0.453125 0.0625q-0.375 0 -1.0 0l0 -8.671875z" fill-rule="nonzero"/><path fill="#000000" fill-opacity="0.0" d="m446.30447 52.850395l59.716522 0" fill-rule="evenodd"/><path stroke="#000000" stroke-width="1.0" stroke-linejoin="round" stroke-linecap="butt" d="m446.30447 52.850395l53.716522 0" fill-rule="evenodd"/><path fill="#000000" stroke="#000000" stroke-width="1.0" stroke-linecap="butt" d="m500.021 54.502125l4.538086 -1.6517296l-4.538086 -1.6517334z" fill-rule="evenodd"/></g></svg>