<svg version="1.1" viewBox="0.0 0.0 905.1653543307086 140.66141732283464" fill="none" stroke="none" stroke-linecap="square" stroke-miterlimit="10" xmlns:xlink="http://www.w3.org/1999/xlink" xmlns="http://www.w3.org/2000/svg"><clipPath id="p.0"><path d="m0 0l905.16534 0l0 140.66142l-905.16534 0l0 -140.66142z" clip-rule="nonzero"/></clipPath><g clip-path="url(#p.0)"><path fill="#000000" fill-opacity="0.0" d="m0 0l905.16534 0l0 140.66142l-905.16534 0z" fill-rule="evenodd"/><path fill="#d9ead3" d="m11.92126 34.968502l73.88976 0l0 46.07874l-73.88976 0z" fill-rule="evenodd"/><path stroke="#274e13" stroke-width="1.0" stroke-linejoin="round" stroke-linecap="butt" d="m11.92126 34.968502l73.88976 0l0 46.07874l-73.88976 0z" fill-rule="evenodd"/><path fill="#274e13" d="m32.511856 52.55287q0 -0.375 0.0625 -0.5q0.078125 -0.125 0.34375 -0.15625q0.28125 -0.03125 1.109375 -0.03125l0 12.765625q0 0.171875 -0.078125 0.234375q-0.0625 0.046875 -0.4375 0.0625q-0.375 0 -1.0 0l0 -12.375zm9.981033 2.859375q0.890625 0 1.34375 0.296875q0.453125 0.296875 0.59375 0.859375q0.15625 0.546875 0.15625 1.46875l0 6.59375q0 0.171875 -0.078125 0.234375q-0.0625 0.046875 -0.4375 0.0625q-0.375 0 -0.984375 0l0 -6.90625q0 -0.71875 -0.1875 -1.0q-0.171875 -0.28125 -0.734375 -0.28125q-0.6875 0 -1.265625 0.359375l0 7.53125q0 0.171875 -0.0625 0.234375q-0.0625 0.046875 -0.421875 0.0625q-0.359375 0 -0.984375 0l-0.015625 0l0 -6.9375q0 -0.53125 -0.0625 -0.78125q-0.0625 -0.25 -0.265625 -0.359375q-0.1875 -0.125 -0.609375 -0.125q-0.671875 0 -1.265625 0.328125l0 7.578125q0 0.171875 -0.078125 0.234375q-0.078125 0.046875 -0.453125 0.0625q-0.375 0 -0.984375 0l0 -8.90625q1.359375 -0.609375 2.8125 -0.609375q1.15625 0 1.703125 0.578125q0.46875 -0.265625 1.09375 -0.421875q0.625 -0.15625 1.1875 -0.15625zm5.9596252 9.703125q-1.1875 0 -1.875 -0.5625q-0.671875 -0.578125 -0.671875 -2.28125q0 -1.765625 0.671875 -2.40625q0.6875 -0.640625 1.828125 -0.640625q0.875 0 1.359375 0.234375l0 -1.46875q0 -0.640625 -0.28125 -0.875q-0.28125 -0.25 -0.875 -0.25q-0.671875 0 -1.375 0.125q-0.6875 0.125 -1.109375 0.3125q-0.203125 -0.390625 -0.203125 -0.875q0 -0.375 0.203125 -0.515625q0.28125 -0.1875 1.078125 -0.34375q0.8125 -0.15625 1.78125 -0.15625q1.203125 0 1.734375 0.53125q0.546875 0.515625 0.546875 1.75l0 0.984375q0 4.109375 -0.109375 5.796875q-0.4375 0.28125 -1.140625 0.453125q-0.6875 0.1875 -1.5625 0.1875zm0.265625 -1.265625q0.296875 0 0.578125 -0.09375q0.28125 -0.09375 0.40625 -0.203125q0.0625 -0.640625 0.0625 -3.03125q-0.359375 -0.1875 -0.875 -0.1875q-0.671875 0 -1.046875 0.390625q-0.375 0.390625 -0.375 1.515625q0 0.953125 0.296875 1.28125q0.3125 0.328125 0.953125 0.328125zm7.760559 -0.453125q1.234375 0.1875 1.859375 0.671875q0.625 0.46875 0.625 1.5q0 1.296875 -0.921875 2.15625q-0.90625 0.875 -2.65625 0.875q-1.71875 0 -2.359375 -0.578125q-0.640625 -0.5625 -0.640625 -1.453125q0 -0.640625 0.390625 -1.234375q0.40625 -0.578125 1.046875 -1.015625q-1.171875 -0.328125 -1.15625 -1.015625q0 -0.75 1.1875 -1.671875q-1.15625 -0.75 -1.15625 -2.796875q0 -1.78125 0.828125 -2.59375q0.828125 -0.828125 2.28125 -0.828125q0.421875 0 0.9375 0.15625l2.21875 0q0.140625 0.25 0.140625 0.703125q0 0.578125 -0.515625 0.578125q-0.25 0 -0.671875 -0.09375q0.703125 0.703125 0.703125 2.03125q0 1.546875 -0.734375 2.40625q-0.71875 0.859375 -2.28125 0.859375q-0.484375 0 -0.84375 -0.078125q-0.5 0.515625 -0.5 0.828125q0 0.21875 0.46875 0.328125q0.46875 0.09375 1.75 0.265625zm-0.734375 -6.875q-0.671875 0 -1.078125 0.546875q-0.390625 0.546875 -0.390625 1.71875q0 1.078125 0.28125 1.59375q0.296875 0.515625 1.140625 0.515625q0.71875 0 1.0625 -0.609375q0.359375 -0.625 0.359375 -1.859375q0 -1.0 -0.34375 -1.453125q-0.328125 -0.453125 -1.03125 -0.453125zm-0.234375 10.703125q0.9375 0 1.421875 -0.453125q0.5 -0.4375 0.5 -1.0q0 -0.4375 -0.1875 -0.671875q-0.1875 -0.234375 -0.640625 -0.34375q-0.4375 -0.125 -1.28125 -0.1875l-0.375 -0.03125q-0.421875 0.328125 -0.71875 0.78125q-0.28125 0.453125 -0.28125 0.890625q0 0.515625 0.328125 0.765625q0.34375 0.25 1.234375 0.25zm7.6630707 -3.5625q1.125 0 2.125 -0.59375q0.140625 0.40625 0.140625 1.015625q0 0.4375 -0.765625 0.734375q-0.75 0.296875 -1.8125 0.296875q-0.953125 0 -1.59375 -0.34375q-0.640625 -0.359375 -1.015625 -1.3125q-0.375 -0.953125 -0.375 -2.703125q0 -2.1875 0.453125 -3.359375q0.453125 -1.1875 1.15625 -1.578125q0.71875 -0.40625 1.6875 -0.40625q2.375 0 2.375 2.984375q0 1.5 -0.203125 2.421875q-0.828125 0.171875 -1.921875 0.234375q-1.09375 0.0625 -2.0 0.0625q0.03125 1.015625 0.21875 1.5625q0.203125 0.53125 0.5625 0.765625q0.375 0.21875 0.96875 0.21875zm-0.171875 -6.921875q-0.671875 0 -1.078125 0.703125q-0.40625 0.6875 -0.484375 2.484375q1.84375 0 2.5625 -0.21875q0.09375 -0.4375 0.09375 -1.125q-0.03125 -1.046875 -0.25 -1.4375q-0.21875 -0.40625 -0.84375 -0.40625z" fill-rule="nonzero"/><path fill="#d9d2e9" d="m303.55118 17.535433l13.417328 0l0 80.944885l-13.417328 0z" fill-rule="evenodd"/><path stroke="#20124d" stroke-width="1.0" stroke-linejoin="round" stroke-linecap="butt" d="m303.55118 17.535433l13.417328 0l0 80.944885l-13.417328 0z" fill-rule="evenodd"/><path fill="#cfe2f3" d="m104.89895 102.51181l111.2756 -22.251968l0 -44.503937l-111.2756 -22.251968z" fill-rule="evenodd"/><path stroke="#1c4587" stroke-width="1.0" stroke-linejoin="round" stroke-linecap="butt" d="m104.89895 102.51181l111.2756 -22.251968l0 -44.503937l-111.2756 -22.251968z" fill-rule="evenodd"/><path fill="#000000" fill-opacity="0.0" d="m116.82021 40.133858l87.43307 0l0 35.74803l-87.43307 0z" fill-rule="evenodd"/><path fill="#000000" d="m140.50536 63.568497l3.21875 0q0 0.53125 -0.015625 0.875q-0.015625 0.328125 -0.078125 0.40625q-0.0625 0.078125 -0.203125 0.078125l-4.40625 0l0 -12.765625q0 -0.0625 0.046875 -0.171875q0.0625 -0.125 0.25 -0.125l4.46875 0q0 0.53125 -0.015625 0.875q0 0.328125 -0.0625 0.40625q-0.046875 0.078125 -0.203125 0.078125l-3.0 0l0 3.90625l2.828125 0q0 0.5 -0.015625 0.84375q-0.015625 0.328125 -0.078125 0.4375q-0.046875 0.09375 -0.1875 0.09375l-2.546875 0l0 5.0625zm4.485626 -7.515625q0.578125 -0.265625 1.40625 -0.453125q0.84375 -0.1875 1.5625 -0.1875q1.453125 0 2.03125 0.578125q0.578125 0.5625 0.578125 1.921875l0 6.71875q0 0.171875 -0.078125 0.234375q-0.078125 0.046875 -0.46875 0.0625q-0.375 0 -1.0 0l0 -6.5625q0 -0.9375 -0.234375 -1.28125q-0.21875 -0.359375 -0.890625 -0.359375q-0.328125 0 -0.734375 0.078125q-0.390625 0.078125 -0.671875 0.25l0 7.578125q0 0.171875 -0.078125 0.234375q-0.0625 0.046875 -0.4375 0.0625q-0.375 0 -0.984375 0l0 -8.875zm9.660965 9.0625q-0.96875 0 -1.578125 -0.359375q-0.59375 -0.375 -0.90625 -1.375q-0.296875 -1.015625 -0.296875 -2.90625q0 -3.015625 0.921875 -4.03125q0.9375 -1.03125 2.421875 -1.03125q0.671875 0 1.109375 0.25q0.453125 0.234375 0.453125 0.59375q0 0.421875 -0.171875 0.84375q-0.625 -0.359375 -1.3125 -0.359375q-0.828125 0 -1.359375 0.765625q-0.515625 0.75 -0.515625 2.984375q0 1.28125 0.171875 2.0q0.1875 0.71875 0.546875 1.0q0.359375 0.28125 0.96875 0.28125q0.421875 0 0.8125 -0.125q0.40625 -0.125 0.671875 -0.296875q0.15625 0.53125 0.15625 0.8125q0 0.390625 -0.609375 0.671875q-0.59375 0.28125 -1.484375 0.28125zm5.9175262 0q-1.046875 0 -1.671875 -0.34375q-0.609375 -0.359375 -0.9375 -1.40625q-0.328125 -1.0625 -0.328125 -3.109375q0 -4.84375 3.125 -4.84375q1.015625 0 1.625 0.421875q0.625 0.421875 0.9375 1.484375q0.328125 1.046875 0.328125 2.90625q0 2.53125 -0.78125 3.71875q-0.765625 1.171875 -2.296875 1.171875zm0.03125 -1.265625q0.671875 0 1.03125 -0.78125q0.375 -0.796875 0.375 -2.84375q0 -1.453125 -0.140625 -2.21875q-0.140625 -0.765625 -0.421875 -1.046875q-0.28125 -0.28125 -0.75 -0.28125q-0.6875 0 -1.0625 0.796875q-0.359375 0.78125 -0.359375 2.828125q0 1.484375 0.140625 2.25q0.15625 0.765625 0.4375 1.03125q0.28125 0.265625 0.75 0.265625zm7.1397552 1.265625q-0.9375 0 -1.59375 -0.3125q-0.640625 -0.328125 -1.03125 -1.3125q-0.390625 -0.984375 -0.390625 -2.890625q0 -2.625 0.796875 -3.90625q0.796875 -1.28125 2.0625 -1.28125q0.859375 0 1.34375 0.375l0 -3.875q0 -0.359375 0.109375 -0.5q0.125 -0.140625 0.40625 -0.171875q0.28125 -0.03125 0.984375 -0.03125l0 13.34375q-1.1875 0.5625 -2.6875 0.5625zm0.0625 -1.34375q0.703125 0 1.125 -0.28125l0 -6.53125q-0.328125 -0.234375 -0.859375 -0.234375q-1.6875 0 -1.6875 3.703125q0 1.359375 0.171875 2.09375q0.171875 0.734375 0.46875 1.0q0.296875 0.25 0.78125 0.25zm7.311157 -0.109375q1.125 0 2.125 -0.59375q0.140625 0.40625 0.140625 1.015625q0 0.4375 -0.765625 0.734375q-0.75 0.296875 -1.8125 0.296875q-0.953125 0 -1.59375 -0.34375q-0.640625 -0.359375 -1.015625 -1.3125q-0.375 -0.953125 -0.375 -2.703125q0 -2.1875 0.453125 -3.359375q0.453125 -1.1875 1.15625 -1.578125q0.71875 -0.40625 1.6875 -0.40625q2.375 0 2.375 2.984375q0 1.5 -0.203125 2.421875q-0.828125 0.171875 -1.921875 0.234375q-1.09375 0.0625 -2.0 0.0625q0.03125 1.015625 0.21875 1.5625q0.203125 0.53125 0.5625 0.765625q0.375 0.21875 0.96875 0.21875zm-0.171875 -6.921875q-0.671875 0 -1.078125 0.703125q-0.40625 0.6875 -0.484375 2.484375q1.84375 0 2.5625 -0.21875q0.09375 -0.4375 0.09375 -1.125q-0.03125 -1.046875 -0.25 -1.4375q-0.21875 -0.40625 -0.84375 -0.40625zm3.891159 -0.484375q1.1875 -0.84375 2.5312347 -0.84375q0.6875 0 1.0 0.203125q0.3125 0.1875 0.3125 0.578125q0 0.46875 -0.171875 0.875q-0.390625 -0.21875 -0.890625 -0.21875q-0.734375 0 -1.2343597 0.421875l-0.015625 7.359375q0 0.171875 -0.078125 0.234375q-0.078125 0.046875 -0.453125 0.0625q-0.375 0 -1.0 0l0 -8.671875z" fill-rule="nonzero"/><path fill="#fff2cc" d="m445.86615 102.51181l-111.275604 -22.251968l0 -44.503937l111.275604 -22.251968z" fill-rule="evenodd"/><path stroke="#7f6000" stroke-width="1.0" stroke-linejoin="round" stroke-linecap="butt" d="m445.86615 102.51181l-111.275604 -22.251968l0 -44.503937l111.275604 -22.251968z" fill-rule="evenodd"/><path fill="#000000" fill-opacity="0.0" d="m346.5118 40.133858l87.433075 0l0 35.74803l-87.433075 0z" fill-rule="evenodd"/><path fill="#000000" d="m368.26785 52.224747q0 -0.1875 0.109375 -0.265625q0.109375 -0.09375 0.390625 -0.09375l1.828125 0q1.265625 0 2.046875 0.53125q0.78125 0.53125 1.1875 1.8125q0.40625 1.28125 0.40625 3.515625q0 2.6875 -0.421875 4.265625q-0.421875 1.578125 -1.234375 2.265625q-0.796875 0.671875 -1.984375 0.671875l-2.328125 0l0 -12.703125zm2.359375 11.265625q0.5625 0 0.96875 -0.4375q0.421875 -0.4375 0.671875 -1.734375q0.265625 -1.296875 0.265625 -3.734375q0 -1.703125 -0.203125 -2.640625q-0.203125 -0.953125 -0.625 -1.3125q-0.40625 -0.375 -1.078125 -0.375l-0.859375 0l0 10.234375l0.859375 0zm7.910492 0.171875q1.125 0 2.125 -0.59375q0.140625 0.40625 0.140625 1.015625q0 0.4375 -0.765625 0.734375q-0.75 0.296875 -1.8125 0.296875q-0.953125 0 -1.59375 -0.34375q-0.640625 -0.359375 -1.015625 -1.3125q-0.375 -0.953125 -0.375 -2.703125q0 -2.1875 0.453125 -3.359375q0.453125 -1.1875 1.15625 -1.578125q0.71875 -0.40625 1.6875 -0.40625q2.375 0 2.375 2.984375q0 1.5 -0.203125 2.421875q-0.828125 0.171875 -1.921875 0.234375q-1.09375 0.0625 -2.0 0.0625q0.03125 1.015625 0.21875 1.5625q0.203125 0.53125 0.5625 0.765625q0.375 0.21875 0.96875 0.21875zm-0.171875 -6.921875q-0.671875 0 -1.078125 0.703125q-0.40625 0.6875 -0.484375 2.484375q1.84375 0 2.5625 -0.21875q0.09375 -0.4375 0.09375 -1.125q-0.03125 -1.046875 -0.25 -1.4375q-0.21875 -0.40625 -0.84375 -0.40625zm6.4067993 8.375q-0.96875 0 -1.578125 -0.359375q-0.59375 -0.375 -0.90625 -1.375q-0.296875 -1.015625 -0.296875 -2.90625q0 -3.015625 0.921875 -4.03125q0.9375 -1.03125 2.421875 -1.03125q0.671875 0 1.109375 0.25q0.453125 0.234375 0.453125 0.59375q0 0.421875 -0.171875 0.84375q-0.625 -0.359375 -1.3125 -0.359375q-0.828125 0 -1.359375 0.765625q-0.515625 0.75 -0.515625 2.984375q0 1.28125 0.171875 2.0q0.1875 0.71875 0.546875 1.0q0.359375 0.28125 0.96875 0.28125q0.421875 0 0.8125 -0.125q0.40625 -0.125 0.671875 -0.296875q0.15625 0.53125 0.15625 0.8125q0 0.390625 -0.609375 0.671875q-0.59375 0.28125 -1.484375 0.28125zm5.917511 0q-1.046875 0 -1.671875 -0.34375q-0.609375 -0.359375 -0.9375 -1.40625q-0.328125 -1.0625 -0.328125 -3.109375q0 -4.84375 3.125 -4.84375q1.015625 0 1.625 0.421875q0.625 0.421875 0.9375 1.484375q0.328125 1.046875 0.328125 2.90625q0 2.53125 -0.78125 3.71875q-0.765625 1.171875 -2.296875 1.171875zm0.03125 -1.265625q0.671875 0 1.03125 -0.78125q0.375 -0.796875 0.375 -2.84375q0 -1.453125 -0.140625 -2.21875q-0.140625 -0.765625 -0.421875 -1.046875q-0.28125 -0.28125 -0.75 -0.28125q-0.6875 0 -1.0625 0.796875q-0.359375 0.78125 -0.359375 2.828125q0 1.484375 0.140625 2.25q0.15625 0.765625 0.4375 1.03125q0.28125 0.265625 0.75 0.265625zm7.1397705 1.265625q-0.9375 0 -1.59375 -0.3125q-0.640625 -0.328125 -1.03125 -1.3125q-0.390625 -0.984375 -0.390625 -2.890625q0 -2.625 0.796875 -3.90625q0.796875 -1.28125 2.0625 -1.28125q0.859375 0 1.34375 0.375l0 -3.875q0 -0.359375 0.109375 -0.5q0.125 -0.140625 0.40625 -0.171875q0.28125 -0.03125 0.984375 -0.03125l0 13.34375q-1.1875 0.5625 -2.6875 0.5625zm0.0625 -1.34375q0.703125 0 1.125 -0.28125l0 -6.53125q-0.328125 -0.234375 -0.859375 -0.234375q-1.6875 0 -1.6875 3.703125q0 1.359375 0.171875 2.09375q0.171875 0.734375 0.46875 1.0q0.296875 0.25 0.78125 0.25zm7.311157 -0.109375q1.125 0 2.125 -0.59375q0.140625 0.40625 0.140625 1.015625q0 0.4375 -0.765625 0.734375q-0.75 0.296875 -1.8125 0.296875q-0.953125 0 -1.59375 -0.34375q-0.640625 -0.359375 -1.015625 -1.3125q-0.375 -0.953125 -0.375 -2.703125q0 -2.1875 0.453125 -3.359375q0.453125 -1.1875 1.15625 -1.578125q0.71875 -0.40625 1.6875 -0.40625q2.375 0 2.375 2.984375q0 1.5 -0.203125 2.421875q-0.828125 0.171875 -1.921875 0.234375q-1.09375 0.0625 -2.0 0.0625q0.03125 1.015625 0.21875 1.5625q0.203125 0.53125 0.5625 0.765625q0.375 0.21875 0.96875 0.21875zm-0.171875 -6.921875q-0.671875 0 -1.078125 0.703125q-0.40625 0.6875 -0.484375 2.484375q1.84375 0 2.5625 -0.21875q0.09375 -0.4375 0.09375 -1.125q-0.03125 -1.046875 -0.25 -1.4375q-0.21875 -0.40625 -0.84375 -0.40625zm3.8911438 -0.484375q1.1875 -0.84375 2.5312805 -0.84375q0.6875 0 1.0 0.203125q0.3125 0.1875 0.3125 0.578125q0 0.46875 -0.171875 0.875q-0.390625 -0.21875 -0.890625 -0.21875q-0.734375 0 -1.2344055 0.421875l-0.015625 7.359375q0 0.171875 -0.078125 0.234375q-0.078125 0.046875 -0.453125 0.0625q-0.375 0 -1.0 0l0 -8.671875z" fill-rule="nonzero"/><path fill="#d9ead3" d="m463.7848 34.968502l73.88977 0l0 46.07874l-73.88977 0z" fill-rule="evenodd"/><path stroke="#274e13" stroke-width="1.0" stroke-linejoin="round" stroke-linecap="butt" d="m463.7848 34.968502l73.88977 0l0 46.07874l-73.88977 0z" fill-rule="evenodd"/><path fill="#274e13" d="m477.29532 52.55287q0 -0.375 0.0625 -0.5q0.078125 -0.125 0.34375 -0.15625q0.28125 -0.03125 1.109375 -0.03125l0 12.765625q0 0.171875 -0.078125 0.234375q-0.0625 0.046875 -0.4375 0.0625q-0.375 0 -1.0 0l0 -12.375zm3.1685486 3.5q0.578125 -0.265625 1.40625 -0.453125q0.84375 -0.1875 1.5625 -0.1875q1.453125 0 2.03125 0.578125q0.578125 0.5625 0.578125 1.921875l0 6.71875q0 0.171875 -0.078125 0.234375q-0.078125 0.046875 -0.46875 0.0625q-0.375 0 -1.0 0l0 -6.5625q0 -0.9375 -0.234375 -1.28125q-0.21875 -0.359375 -0.890625 -0.359375q-0.328125 0 -0.734375 0.078125q-0.390625 0.078125 -0.671875 0.25l0 7.578125q0 0.171875 -0.078125 0.234375q-0.0625 0.046875 -0.4375 0.0625q-0.375 0 -0.984375 0l0 -8.875zm9.1297 9.0625q-1.015625 0 -1.640625 -0.234375q-0.625 -0.25 -0.625 -0.703125q0 -0.4375 0.28125 -0.875q0.765625 0.453125 1.84375 0.453125q0.734375 0 1.125 -0.28125q0.40625 -0.296875 0.40625 -0.859375q0 -0.40625 -0.171875 -0.765625q-0.171875 -0.359375 -0.578125 -0.703125l-1.8125 -1.546875q-1.078125 -0.890625 -1.078125 -1.984375q0 -1.03125 0.765625 -1.609375q0.78125 -0.59375 2.296875 -0.59375q1.265625 0 1.796875 0.34375q0.53125 0.328125 0.53125 0.703125q0 0.171875 -0.09375 0.390625q-0.09375 0.203125 -0.21875 0.375q-0.828125 -0.5 -1.84375 -0.5q-0.671875 0 -1.078125 0.25q-0.40625 0.234375 -0.40625 0.65625q0 0.28125 0.140625 0.53125q0.15625 0.25 0.609375 0.625l1.734375 1.40625q0.609375 0.59375 0.859375 1.125q0.265625 0.515625 0.265625 1.203125q0 1.234375 -0.84375 1.921875q-0.828125 0.671875 -2.265625 0.671875zm7.017578 0q-0.765625 0 -1.15625 -0.328125q-0.375 -0.328125 -0.5 -0.90625q-0.109375 -0.59375 -0.109375 -1.546875l0 -5.453125l-1.265625 0q0 -0.5 0.015625 -0.796875q0.015625 -0.3125 0.078125 -0.390625q0.0625 -0.09375 0.21875 -0.09375l0.953125 0l0 -2.828125q0 -0.265625 0.109375 -0.359375q0.125 -0.109375 0.390625 -0.140625q0.28125 -0.03125 0.984375 -0.03125l0 3.359375l1.953125 0q0 0.5 -0.03125 0.828125q-0.015625 0.3125 -0.078125 0.390625q-0.0625 0.0625 -0.21875 0.0625l-1.625 0l0 5.453125q0 0.765625 0.125 1.140625q0.125 0.359375 0.578125 0.359375q0.296875 0 0.515625 -0.0625q0.21875 -0.078125 0.5625 -0.21875q0.109375 0.375 0.109375 0.734375q0 0.453125 -0.46875 0.640625q-0.46875 0.1875 -1.140625 0.1875zm5.150757 0q-1.1875 0 -1.875 -0.5625q-0.671875 -0.578125 -0.671875 -2.28125q0 -1.765625 0.671875 -2.40625q0.6875 -0.640625 1.828125 -0.640625q0.875 0 1.359375 0.234375l0 -1.46875q0 -0.640625 -0.28125 -0.875q-0.28125 -0.25 -0.875 -0.25q-0.671875 0 -1.375 0.125q-0.6875 0.125 -1.109375 0.3125q-0.203125 -0.390625 -0.203125 -0.875q0 -0.375 0.203125 -0.515625q0.28125 -0.1875 1.078125 -0.34375q0.8125 -0.15625 1.78125 -0.15625q1.203125 0 1.734375 0.53125q0.546875 0.515625 0.546875 1.75l0 0.984375q0 4.109375 -0.109375 5.796875q-0.4375 0.28125 -1.140625 0.453125q-0.6875 0.1875 -1.5625 0.1875zm0.265625 -1.265625q0.296875 0 0.578125 -0.09375q0.28125 -0.09375 0.40625 -0.203125q0.0625 -0.640625 0.0625 -3.03125q-0.359375 -0.1875 -0.875 -0.1875q-0.671875 0 -1.046875 0.390625q-0.375 0.390625 -0.375 1.515625q0 0.953125 0.296875 1.28125q0.3125 0.328125 0.953125 0.328125zm4.088684 -7.796875q0.578125 -0.265625 1.40625 -0.453125q0.84375 -0.1875 1.5625 -0.1875q1.453125 0 2.03125 0.578125q0.578125 0.5625 0.578125 1.921875l0 6.71875q0 0.171875 -0.078125 0.234375q-0.078125 0.046875 -0.46875 0.0625q-0.375 0 -1.0 0l0 -6.5625q0 -0.9375 -0.234375 -1.28125q-0.21875 -0.359375 -0.890625 -0.359375q-0.328125 0 -0.734375 0.078125q-0.390625 0.078125 -0.671875 0.25l0 7.578125q0 0.171875 -0.078125 0.234375q-0.0625 0.046875 -0.4375 0.0625q-0.375 0 -0.984375 0l0 -8.875zm9.66095 9.0625q-0.96875 0 -1.578125 -0.359375q-0.59375 -0.375 -0.90625 -1.375q-0.296875 -1.015625 -0.296875 -2.90625q0 -3.015625 0.921875 -4.03125q0.9375 -1.03125 2.421875 -1.03125q0.671875 0 1.109375 0.25q0.453125 0.234375 0.453125 0.59375q0 0.421875 -0.171875 0.84375q-0.625 -0.359375 -1.3125 -0.359375q-0.828125 0 -1.359375 0.765625q-0.515625 0.75 -0.515625 2.984375q0 1.28125 0.171875 2.0q0.1875 0.71875 0.546875 1.0q0.359375 0.28125 0.96875 0.28125q0.421875 0 0.8125 -0.125q0.40625 -0.125 0.671875 -0.296875q0.15625 0.53125 0.15625 0.8125q0 0.390625 -0.609375 0.671875q-0.59375 0.28125 -1.484375 0.28125zm6.3394165 -1.453125q1.125 0 2.125 -0.59375q0.140625 0.40625 0.140625 1.015625q0 0.4375 -0.765625 0.734375q-0.75 0.296875 -1.8125 0.296875q-0.953125 0 -1.59375 -0.34375q-0.640625 -0.359375 -1.015625 -1.3125q-0.375 -0.953125 -0.375 -2.703125q0 -2.1875 0.453125 -3.359375q0.453125 -1.1875 1.15625 -1.578125q0.71875 -0.40625 1.6875 -0.40625q2.375 0 2.375 2.984375q0 1.5 -0.203125 2.421875q-0.828125 0.171875 -1.921875 0.234375q-1.09375 0.0625 -2.0 0.0625q0.03125 1.015625 0.21875 1.5625q0.203125 0.53125 0.5625 0.765625q0.375 0.21875 0.96875 0.21875zm-0.171875 -6.921875q-0.671875 0 -1.078125 0.703125q-0.40625 0.6875 -0.484375 2.484375q1.84375 0 2.5625 -0.21875q0.09375 -0.4375 0.09375 -1.125q-0.03125 -1.046875 -0.25 -1.4375q-0.21875 -0.40625 -0.84375 -0.40625z" fill-rule="nonzero"/><path fill="#f4cccc" d="m810.7139 34.968502l73.88977 0l0 46.07874l-73.88977 0z" fill-rule="evenodd"/><path stroke="#660000" stroke-width="1.0" stroke-linejoin="round" stroke-linecap="butt" d="m810.7139 34.968502l73.88977 0l0 46.07874l-73.88977 0z" fill-rule="evenodd"/><path fill="#660000" d="m835.59546 52.30287q0 -0.25 0.0625 -0.3125q0.078125 -0.078125 0.34375 -0.09375q0.265625 -0.03125 1.09375 -0.03125l0 11.640625l3.21875 0l0 1.125q0 0.171875 -0.078125 0.234375q-0.078125 0.0625 -0.21875 0.0625l-4.421875 0l0 -12.625zm8.467407 12.8125q-1.046875 0 -1.671875 -0.34375q-0.609375 -0.359375 -0.9375 -1.40625q-0.328125 -1.0625 -0.328125 -3.109375q0 -4.84375 3.125 -4.84375q1.015625 0 1.625 0.421875q0.625 0.421875 0.9375 1.484375q0.328125 1.046875 0.328125 2.90625q0 2.53125 -0.78125 3.71875q-0.765625 1.171875 -2.296875 1.171875zm0.03125 -1.265625q0.671875 0 1.03125 -0.78125q0.375 -0.796875 0.375 -2.84375q0 -1.453125 -0.140625 -2.21875q-0.140625 -0.765625 -0.421875 -1.046875q-0.28125 -0.28125 -0.75 -0.28125q-0.6875 0 -1.0625 0.796875q-0.359375 0.78125 -0.359375 2.828125q0 1.484375 0.140625 2.25q0.15625 0.765625 0.4375 1.03125q0.28125 0.265625 0.75 0.265625zm6.3741455 1.265625q-1.015625 0 -1.640625 -0.234375q-0.625 -0.25 -0.625 -0.703125q0 -0.4375 0.28125 -0.875q0.765625 0.453125 1.84375 0.453125q0.734375 0 1.125 -0.28125q0.40625 -0.296875 0.40625 -0.859375q0 -0.40625 -0.171875 -0.765625q-0.171875 -0.359375 -0.578125 -0.703125l-1.8125 -1.546875q-1.078125 -0.890625 -1.078125 -1.984375q0 -1.03125 0.765625 -1.609375q0.78125 -0.59375 2.296875 -0.59375q1.265625 0 1.796875 0.34375q0.53125 0.328125 0.53125 0.703125q0 0.171875 -0.09375 0.390625q-0.09375 0.203125 -0.21875 0.375q-0.828125 -0.5 -1.84375 -0.5q-0.671875 0 -1.078125 0.25q-0.40625 0.234375 -0.40625 0.65625q0 0.28125 0.140625 0.53125q0.15625 0.25 0.609375 0.625l1.734375 1.40625q0.609375 0.59375 0.859375 1.125q0.265625 0.515625 0.265625 1.203125q0 1.234375 -0.84375 1.921875q-0.828125 0.671875 -2.265625 0.671875zm6.455078 0q-1.015625 0 -1.640625 -0.234375q-0.625 -0.25 -0.625 -0.703125q0 -0.4375 0.28125 -0.875q0.765625 0.453125 1.84375 0.453125q0.734375 0 1.125 -0.28125q0.40625 -0.296875 0.40625 -0.859375q0 -0.40625 -0.171875 -0.765625q-0.171875 -0.359375 -0.578125 -0.703125l-1.8125 -1.546875q-1.078125 -0.890625 -1.078125 -1.984375q0 -1.03125 0.765625 -1.609375q0.78125 -0.59375 2.296875 -0.59375q1.265625 0 1.796875 0.34375q0.53125 0.328125 0.53125 0.703125q0 0.171875 -0.09375 0.390625q-0.09375 0.203125 -0.21875 0.375q-0.828125 -0.5 -1.84375 -0.5q-0.671875 0 -1.078125 0.25q-0.40625 0.234375 -0.40625 0.65625q0 0.28125 0.140625 0.53125q0.15625 0.25 0.609375 0.625l1.734375 1.40625q0.609375 0.59375 0.859375 1.125q0.265625 0.515625 0.265625 1.203125q0 1.234375 -0.84375 1.921875q-0.828125 0.671875 -2.265625 0.671875z" fill-rule="nonzero"/><path fill="#000000" fill-opacity="0.0" d="m85.81102 58.007874l19.086617 0" fill-rule="evenodd"/><path stroke="#000000" stroke-width="1.0" stroke-linejoin="round" stroke-linecap="butt" d="m85.81102 58.007874l13.0866165 0" fill-rule="evenodd"/><path fill="#000000" stroke="#000000" stroke-width="1.0" stroke-linecap="butt" d="m98.89764 59.659607l4.538101 -1.6517334l-4.538101 -1.6517334z" fill-rule="evenodd"/><path fill="#000000" fill-opacity="0.0" d="m316.9685 58.007874l17.637787 0" fill-rule="evenodd"/><path stroke="#000000" stroke-width="1.0" stroke-linejoin="round" stroke-linecap="butt" d="m316.9685 58.007874l11.637787 0" fill-rule="evenodd"/><path fill="#000000" stroke="#000000" stroke-width="1.0" stroke-linecap="butt" d="m328.6063 59.659607l4.5381165 -1.6517334l-4.5381165 -1.6517334z" fill-rule="evenodd"/><path fill="#000000" fill-opacity="0.0" d="m445.86615 58.007874l17.921265 0" fill-rule="evenodd"/><path stroke="#000000" stroke-width="1.0" stroke-linejoin="round" stroke-linecap="butt" d="m445.86615 58.007874l11.921265 0" fill-rule="evenodd"/><path fill="#000000" stroke="#000000" stroke-width="1.0" stroke-linecap="butt" d="m457.7874 59.659607l4.538086 -1.6517334l-4.538086 -1.6517334z" fill-rule="evenodd"/><path fill="#cfe2f3" d="m234.05249 34.968502l51.62204 0l0 46.07874l-51.62204 0z" fill-rule="evenodd"/><path stroke="#073763" stroke-width="1.0" stroke-linejoin="round" stroke-linecap="butt" d="m234.05249 34.968502l51.62204 0l0 46.07874l-51.62204 0z" fill-rule="evenodd"/><path fill="#073763" d="m254.13196 59.224747q0.59375 0.78125 1.109375 2.125q0.515625 1.34375 0.640625 3.25q0 0.21875 -0.140625 0.296875q-0.125 0.0625 -0.625 0.0625q-0.203125 0 -0.875 -0.03125q-0.140625 -2.046875 -0.59375 -3.34375q-0.453125 -1.296875 -0.9375 -1.96875q-0.125 0.015625 -0.375 0.015625l-0.671875 0l0 5.0q0 0.171875 -0.0625 0.234375q-0.0625 0.046875 -0.4375 0.0625q-0.375 0 -0.984375 0l0 -12.765625q0 -0.0625 0.046875 -0.171875q0.0625 -0.125 0.25 -0.125l1.84375 0q1.765625 0 2.59375 0.875q0.84375 0.875 0.84375 2.796875q0 2.75 -1.625 3.6875zm-1.640625 -1.0q0.8125 0 1.203125 -0.640625q0.390625 -0.640625 0.390625 -2.09375q0 -1.140625 -0.34375 -1.71875q-0.34375 -0.578125 -1.140625 -0.578125l-0.9375 0l0 5.03125l0.828125 0zm7.6588745 5.4375q1.125 0 2.125 -0.59375q0.140625 0.40625 0.140625 1.015625q0 0.4375 -0.765625 0.734375q-0.75 0.296875 -1.8125 0.296875q-0.953125 0 -1.59375 -0.34375q-0.640625 -0.359375 -1.015625 -1.3125q-0.375 -0.953125 -0.375 -2.703125q0 -2.1875 0.453125 -3.359375q0.453125 -1.1875 1.15625 -1.578125q0.71875 -0.40625 1.6875 -0.40625q2.375 0 2.375 2.984375q0 1.5 -0.203125 2.421875q-0.828125 0.171875 -1.921875 0.234375q-1.09375 0.0625 -2.0 0.0625q0.03125 1.015625 0.21875 1.5625q0.203125 0.53125 0.5625 0.765625q0.375 0.21875 0.96875 0.21875zm-0.171875 -6.921875q-0.671875 0 -1.078125 0.703125q-0.40625 0.6875 -0.484375 2.484375q1.84375 0 2.5625 -0.21875q0.09375 -0.4375 0.09375 -1.125q-0.03125 -1.046875 -0.25 -1.4375q-0.21875 -0.40625 -0.84375 -0.40625zm7.5630493 6.65625q1.234375 0.1875 1.859375 0.671875q0.625 0.46875 0.625 1.5q0 1.296875 -0.921875 2.15625q-0.90625 0.875 -2.65625 0.875q-1.71875 0 -2.359375 -0.578125q-0.640625 -0.5625 -0.640625 -1.453125q0 -0.640625 0.390625 -1.234375q0.40625 -0.578125 1.046875 -1.015625q-1.171875 -0.328125 -1.15625 -1.015625q0 -0.75 1.1875 -1.671875q-1.15625 -0.75 -1.15625 -2.796875q0 -1.78125 0.828125 -2.59375q0.828125 -0.828125 2.28125 -0.828125q0.421875 0 0.9375 0.15625l2.21875 0q0.140625 0.25 0.140625 0.703125q0 0.578125 -0.515625 0.578125q-0.25 0 -0.671875 -0.09375q0.703125 0.703125 0.703125 2.03125q0 1.546875 -0.734375 2.40625q-0.71875 0.859375 -2.28125 0.859375q-0.484375 0 -0.84375 -0.078125q-0.5 0.515625 -0.5 0.828125q0 0.21875 0.46875 0.328125q0.46875 0.09375 1.75 0.265625zm-0.734375 -6.875q-0.671875 0 -1.078125 0.546875q-0.390625 0.546875 -0.390625 1.71875q0 1.078125 0.28125 1.59375q0.296875 0.515625 1.140625 0.515625q0.71875 0 1.0625 -0.609375q0.359375 -0.625 0.359375 -1.859375q0 -1.0 -0.34375 -1.453125q-0.328125 -0.453125 -1.03125 -0.453125zm-0.234375 10.703125q0.9375 0 1.421875 -0.453125q0.5 -0.4375 0.5 -1.0q0 -0.4375 -0.1875 -0.671875q-0.1875 -0.234375 -0.640625 -0.34375q-0.4375 -0.125 -1.28125 -0.1875l-0.375 -0.03125q-0.421875 0.328125 -0.71875 0.78125q-0.28125 0.453125 -0.28125 0.890625q0 0.515625 0.328125 0.765625q0.34375 0.25 1.234375 0.25z" fill-rule="nonzero"/><path fill="#000000" fill-opacity="0.0" d="m216.17455 58.007874l17.889755 0" fill-rule="evenodd"/><path stroke="#000000" stroke-width="1.0" stroke-linejoin="round" stroke-linecap="butt" d="m216.17455 58.007874l11.889755 0" fill-rule="evenodd"/><path fill="#000000" stroke="#000000" stroke-width="1.0" stroke-linecap="butt" d="m228.0643 59.659607l4.538101 -1.6517334l-4.538101 -1.6517334z" fill-rule="evenodd"/><path fill="#000000" fill-opacity="0.0" d="m285.67453 58.007874l17.88977 0" fill-rule="evenodd"/><path stroke="#000000" stroke-width="1.0" stroke-linejoin="round" stroke-linecap="butt" d="m285.67453 58.007874l11.8897705 0" fill-rule="evenodd"/><path fill="#000000" stroke="#000000" stroke-width="1.0" stroke-linecap="butt" d="m297.5643 59.659607l4.5381165 -1.6517334l-4.5381165 -1.6517334z" fill-rule="evenodd"/><path fill="#cfe2f3" d="m555.59186 102.51181l111.27557 -22.251968l0 -44.503937l-111.27557 -22.251968z" fill-rule="evenodd"/><path stroke="#1c4587" stroke-width="1.0" stroke-linejoin="round" stroke-linecap="butt" d="m555.59186 102.51181l111.27557 -22.251968l0 -44.503937l-111.27557 -22.251968z" fill-rule="evenodd"/><path fill="#000000" fill-opacity="0.0" d="m567.5131 40.133858l87.433044 0l0 35.74803l-87.433044 0z" fill-rule="evenodd"/><path fill="#000000" d="m591.19824 63.568497l3.21875 0q0 0.53125 -0.015625 0.875q-0.015625 0.328125 -0.078125 0.40625q-0.0625 0.078125 -0.203125 0.078125l-4.40625 0l0 -12.765625q0 -0.0625 0.046875 -0.171875q0.0625 -0.125 0.25 -0.125l4.46875 0q0 0.53125 -0.015625 0.875q0 0.328125 -0.0625 0.40625q-0.046875 0.078125 -0.203125 0.078125l-3.0 0l0 3.90625l2.828125 0q0 0.5 -0.015625 0.84375q-0.015625 0.328125 -0.078125 0.4375q-0.046875 0.09375 -0.1875 0.09375l-2.546875 0l0 5.0625zm4.4856567 -7.515625q0.578125 -0.265625 1.40625 -0.453125q0.84375 -0.1875 1.5625 -0.1875q1.453125 0 2.03125 0.578125q0.578125 0.5625 0.578125 1.921875l0 6.71875q0 0.171875 -0.078125 0.234375q-0.078125 0.046875 -0.46875 0.0625q-0.375 0 -1.0 0l0 -6.5625q0 -0.9375 -0.234375 -1.28125q-0.21875 -0.359375 -0.890625 -0.359375q-0.328125 0 -0.734375 0.078125q-0.390625 0.078125 -0.671875 0.25l0 7.578125q0 0.171875 -0.078125 0.234375q-0.0625 0.046875 -0.4375 0.0625q-0.375 0 -0.984375 0l0 -8.875zm9.66095 9.0625q-0.96875 0 -1.578125 -0.359375q-0.59375 -0.375 -0.90625 -1.375q-0.296875 -1.015625 -0.296875 -2.90625q0 -3.015625 0.921875 -4.03125q0.9375 -1.03125 2.421875 -1.03125q0.671875 0 1.109375 0.25q0.453125 0.234375 0.453125 0.59375q0 0.421875 -0.171875 0.84375q-0.625 -0.359375 -1.3125 -0.359375q-0.828125 0 -1.359375 0.765625q-0.515625 0.75 -0.515625 2.984375q0 1.28125 0.171875 2.0q0.1875 0.71875 0.546875 1.0q0.359375 0.28125 0.96875 0.28125q0.421875 0 0.8125 -0.125q0.40625 -0.125 0.671875 -0.296875q0.15625 0.53125 0.15625 0.8125q0 0.390625 -0.609375 0.671875q-0.59375 0.28125 -1.484375 0.28125zm5.9175415 0q-1.046875 0 -1.671875 -0.34375q-0.609375 -0.359375 -0.9375 -1.40625q-0.328125 -1.0625 -0.328125 -3.109375q0 -4.84375 3.125 -4.84375q1.015625 0 1.625 0.421875q0.625 0.421875 0.9375 1.484375q0.328125 1.046875 0.328125 2.90625q0 2.53125 -0.78125 3.71875q-0.765625 1.171875 -2.296875 1.171875zm0.03125 -1.265625q0.671875 0 1.03125 -0.78125q0.375 -0.796875 0.375 -2.84375q0 -1.453125 -0.140625 -2.21875q-0.140625 -0.765625 -0.421875 -1.046875q-0.28125 -0.28125 -0.75 -0.28125q-0.6875 0 -1.0625 0.796875q-0.359375 0.78125 -0.359375 2.828125q0 1.484375 0.140625 2.25q0.15625 0.765625 0.4375 1.03125q0.28125 0.265625 0.75 0.265625zm7.1397705 1.265625q-0.9375 0 -1.59375 -0.3125q-0.640625 -0.328125 -1.03125 -1.3125q-0.390625 -0.984375 -0.390625 -2.890625q0 -2.625 0.796875 -3.90625q0.796875 -1.28125 2.0625 -1.28125q0.859375 0 1.34375 0.375l0 -3.875q0 -0.359375 0.109375 -0.5q0.125 -0.140625 0.40625 -0.171875q0.28125 -0.03125 0.984375 -0.03125l0 13.34375q-1.1875 0.5625 -2.6875 0.5625zm0.0625 -1.34375q0.703125 0 1.125 -0.28125l0 -6.53125q-0.328125 -0.234375 -0.859375 -0.234375q-1.6875 0 -1.6875 3.703125q0 1.359375 0.171875 2.09375q0.171875 0.734375 0.46875 1.0q0.296875 0.25 0.78125 0.25zm7.311157 -0.109375q1.125 0 2.125 -0.59375q0.140625 0.40625 0.140625 1.015625q0 0.4375 -0.765625 0.734375q-0.75 0.296875 -1.8125 0.296875q-0.953125 0 -1.59375 -0.34375q-0.640625 -0.359375 -1.015625 -1.3125q-0.375 -0.953125 -0.375 -2.703125q0 -2.1875 0.453125 -3.359375q0.453125 -1.1875 1.15625 -1.578125q0.71875 -0.40625 1.6875 -0.40625q2.375 0 2.375 2.984375q0 1.5 -0.203125 2.421875q-0.828125 0.171875 -1.921875 0.234375q-1.09375 0.0625 -2.0 0.0625q0.03125 1.015625 0.21875 1.5625q0.203125 0.53125 0.5625 0.765625q0.375 0.21875 0.96875 0.21875zm-0.171875 -6.921875q-0.671875 0 -1.078125 0.703125q-0.40625 0.6875 -0.484375 2.484375q1.84375 0 2.5625 -0.21875q0.09375 -0.4375 0.09375 -1.125q-0.03125 -1.046875 -0.25 -1.4375q-0.21875 -0.40625 -0.84375 -0.40625zm3.8911133 -0.484375q1.1875 -0.84375 2.53125 -0.84375q0.6875 0 1.0 0.203125q0.3125 0.1875 0.3125 0.578125q0 0.46875 -0.171875 0.875q-0.390625 -0.21875 -0.890625 -0.21875q-0.734375 0 -1.234375 0.421875l-0.015625 7.359375q0 0.171875 -0.078125 0.234375q-0.078125 0.046875 -0.453125 0.0625q-0.375 0 -1.0 0l0 -8.671875z" fill-rule="nonzero"/><path fill="#cfe2f3" d="m684.7454 34.968502l51.62201 0l0 46.07874l-51.62201 0z" fill-rule="evenodd"/><path stroke="#073763" stroke-width="1.0" stroke-linejoin="round" stroke-linecap="butt" d="m684.7454 34.968502l51.62201 0l0 46.07874l-51.62201 0z" fill-rule="evenodd"/><path fill="#073763" d="m704.8249 59.224747q0.59375 0.78125 1.109375 2.125q0.515625 1.34375 0.640625 3.25q0 0.21875 -0.140625 0.296875q-0.125 0.0625 -0.625 0.0625q-0.203125 0 -0.875 -0.03125q-0.140625 -2.046875 -0.59375 -3.34375q-0.453125 -1.296875 -0.9375 -1.96875q-0.125 0.015625 -0.375 0.015625l-0.671875 0l0 5.0q0 0.171875 -0.0625 0.234375q-0.0625 0.046875 -0.4375 0.0625q-0.375 0 -0.984375 0l0 -12.765625q0 -0.0625 0.046875 -0.171875q0.0625 -0.125 0.25 -0.125l1.84375 0q1.765625 0 2.59375 0.875q0.84375 0.875 0.84375 2.796875q0 2.75 -1.625 3.6875zm-1.640625 -1.0q0.8125 0 1.203125 -0.640625q0.390625 -0.640625 0.390625 -2.09375q0 -1.140625 -0.34375 -1.71875q-0.34375 -0.578125 -1.140625 -0.578125l-0.9375 0l0 5.03125l0.828125 0zm7.6588745 5.4375q1.125 0 2.125 -0.59375q0.140625 0.40625 0.140625 1.015625q0 0.4375 -0.765625 0.734375q-0.75 0.296875 -1.8125 0.296875q-0.953125 0 -1.59375 -0.34375q-0.640625 -0.359375 -1.015625 -1.3125q-0.375 -0.953125 -0.375 -2.703125q0 -2.1875 0.453125 -3.359375q0.453125 -1.1875 1.15625 -1.578125q0.71875 -0.40625 1.6875 -0.40625q2.375 0 2.375 2.984375q0 1.5 -0.203125 2.421875q-0.828125 0.171875 -1.921875 0.234375q-1.09375 0.0625 -2.0 0.0625q0.03125 1.015625 0.21875 1.5625q0.203125 0.53125 0.5625 0.765625q0.375 0.21875 0.96875 0.21875zm-0.171875 -6.921875q-0.671875 0 -1.078125 0.703125q-0.40625 0.6875 -0.484375 2.484375q1.84375 0 2.5625 -0.21875q0.09375 -0.4375 0.09375 -1.125q-0.03125 -1.046875 -0.25 -1.4375q-0.21875 -0.40625 -0.84375 -0.40625zm7.5630493 6.65625q1.234375 0.1875 1.859375 0.671875q0.625 0.46875 0.625 1.5q0 1.296875 -0.921875 2.15625q-0.90625 0.875 -2.65625 0.875q-1.71875 0 -2.359375 -0.578125q-0.640625 -0.5625 -0.640625 -1.453125q0 -0.640625 0.390625 -1.234375q0.40625 -0.578125 1.046875 -1.015625q-1.171875 -0.328125 -1.15625 -1.015625q0 -0.75 1.1875 -1.671875q-1.15625 -0.75 -1.15625 -2.796875q0 -1.78125 0.828125 -2.59375q0.828125 -0.828125 2.28125 -0.828125q0.421875 0 0.9375 0.15625l2.21875 0q0.140625 0.25 0.140625 0.703125q0 0.578125 -0.515625 0.578125q-0.25 0 -0.671875 -0.09375q0.703125 0.703125 0.703125 2.03125q0 1.546875 -0.734375 2.40625q-0.71875 0.859375 -2.28125 0.859375q-0.484375 0 -0.84375 -0.078125q-0.5 0.515625 -0.5 0.828125q0 0.21875 0.46875 0.328125q0.46875 0.09375 1.75 0.265625zm-0.734375 -6.875q-0.671875 0 -1.078125 0.546875q-0.390625 0.546875 -0.390625 1.71875q0 1.078125 0.28125 1.59375q0.296875 0.515625 1.140625 0.515625q0.71875 0 1.0625 -0.609375q0.359375 -0.625 0.359375 -1.859375q0 -1.0 -0.34375 -1.453125q-0.328125 -0.453125 -1.03125 -0.453125zm-0.234375 10.703125q0.9375 0 1.421875 -0.453125q0.5 -0.4375 0.5 -1.0q0 -0.4375 -0.1875 -0.671875q-0.1875 -0.234375 -0.640625 -0.34375q-0.4375 -0.125 -1.28125 -0.1875l-0.375 -0.03125q-0.421875 0.328125 -0.71875 0.78125q-0.28125 0.453125 -0.28125 0.890625q0 0.515625 0.328125 0.765625q0.34375 0.25 1.234375 0.25z" fill-rule="nonzero"/><path fill="#000000" fill-opacity="0.0" d="m666.86743 58.007874l17.88977 0" fill-rule="evenodd"/><path stroke="#000000" stroke-width="1.0" stroke-linejoin="round" stroke-linecap="butt" d="m666.86743 58.007874l11.8897705 0" fill-rule="evenodd"/><path fill="#000000" stroke="#000000" stroke-width="1.0" stroke-linecap="butt" d="m678.7572 59.659607l4.538086 -1.6517334l-4.538086 -1.6517334z" fill-rule="evenodd"/><path fill="#d9d2e9" d="m754.22626 17.535433l13.196838 0l0 80.944885l-13.196838 0z" fill-rule="evenodd"/><path stroke="#20124d" stroke-width="1.0" stroke-linejoin="round" stroke-linecap="butt" d="m754.22626 17.535433l13.196838 0l0 80.944885l-13.196838 0z" fill-rule="evenodd"/><path fill="#000000" fill-opacity="0.0" d="m736.36743 58.007874l17.858276 0" fill-rule="evenodd"/><path stroke="#000000" stroke-width="1.0" stroke-linejoin="round" stroke-linecap="butt" d="m736.36743 58.007874l11.858276 0" fill-rule="evenodd"/><path fill="#000000" stroke="#000000" stroke-width="1.0" stroke-linecap="butt" d="m748.2257 59.659607l4.538086 -1.6517334l-4.538086 -1.6517334z" fill-rule="evenodd"/><path fill="#000000" fill-opacity="0.0" d="m767.4231 58.007874l43.275574 0" fill-rule="evenodd"/><path stroke="#000000" stroke-width="1.0" stroke-linejoin="round" stroke-linecap="butt" d="m767.42303 58.007874l37.275635 0" fill-rule="evenodd"/><path fill="#000000" stroke="#000000" stroke-width="1.0" stroke-linecap="butt" d="m804.69867 59.659607l4.538086 -1.6517334l-4.538086 -1.6517334z" fill-rule="evenodd"/><path fill="#000000" fill-opacity="0.0" d="m537.67456 58.007874l17.921265 0" fill-rule="evenodd"/><path stroke="#000000" stroke-width="1.0" stroke-linejoin="round" stroke-linecap="butt" d="m537.67456 58.007874l11.921265 0" fill-rule="evenodd"/><path fill="#000000" stroke="#000000" stroke-width="1.0" stroke-linecap="butt" d="m549.5958 59.659607l4.538086 -1.6517334l-4.538086 -1.6517334z" fill-rule="evenodd"/><path fill="#000000" fill-opacity="0.0" d="m310.25986 98.480316l0 24.999954l537.38586 0l0 -42.417274" fill-rule="evenodd"/><path stroke="#000000" stroke-width="1.0" stroke-linejoin="round" stroke-linecap="butt" d="m310.25986 98.480316l0 24.999954l537.38586 0l0 -36.417274" fill-rule="evenodd"/><path fill="#000000" stroke="#000000" stroke-width="1.0" stroke-linecap="butt" d="m849.2974 87.06299l-1.6517334 -4.5380936l-1.6517334 4.5380936z" fill-rule="evenodd"/></g></svg>