<?xml version="1.0" encoding="UTF-8"?>
<svg xmlns="http://www.w3.org/2000/svg" xmlns:xlink="http://www.w3.org/1999/xlink" width="158pt" height="77pt" viewBox="0 0 158 77" version="1.1">
<defs>
<clipPath id="clip1">
  <path d="M 51 0.832031 L 63 0.832031 L 63 46 L 51 46 Z M 51 0.832031 "/>
</clipPath>
<clipPath id="clip2">
  <path d="M 1.101562 0.832031 L 52 0.832031 L 52 46 L 1.101562 46 Z M 1.101562 0.832031 "/>
</clipPath>
<clipPath id="clip3">
  <path d="M 82 0.832031 L 94 0.832031 L 94 46 L 82 46 Z M 82 0.832031 "/>
</clipPath>
<clipPath id="clip4">
  <path d="M 96 0.832031 L 108 0.832031 L 108 46 L 96 46 Z M 96 0.832031 "/>
</clipPath>
<clipPath id="clip5">
  <path d="M 106 0.832031 L 157.480469 0.832031 L 157.480469 46 L 106 46 Z M 106 0.832031 "/>
</clipPath>
<clipPath id="clip6">
  <path d="M 65 0.832031 L 71 0.832031 L 71 46 L 65 46 Z M 65 0.832031 "/>
</clipPath>
<clipPath id="clip7">
  <path d="M 72 0.832031 L 81 0.832031 L 81 23 L 72 23 Z M 72 0.832031 "/>
</clipPath>
<clipPath id="clip8">
  <path d="M 1.101562 50 L 7 50 L 7 62 L 1.101562 62 Z M 1.101562 50 "/>
</clipPath>
<clipPath id="clip9">
  <path d="M 152 52 L 157.480469 52 L 157.480469 62 L 152 62 Z M 152 52 "/>
</clipPath>
<clipPath id="clip10">
  <path d="M 1.101562 66 L 7 66 L 7 75.8125 L 1.101562 75.8125 Z M 1.101562 66 "/>
</clipPath>
<clipPath id="clip11">
  <path d="M 8 64 L 14 64 L 14 75.8125 L 8 75.8125 Z M 8 64 "/>
</clipPath>
<clipPath id="clip12">
  <path d="M 15 66 L 25 66 L 25 75.8125 L 15 75.8125 Z M 15 66 "/>
</clipPath>
<clipPath id="clip13">
  <path d="M 25 64 L 31 64 L 31 75.8125 L 25 75.8125 Z M 25 64 "/>
</clipPath>
<clipPath id="clip14">
  <path d="M 32 66 L 42 66 L 42 75.8125 L 32 75.8125 Z M 32 66 "/>
</clipPath>
<clipPath id="clip15">
  <path d="M 40 66 L 50 66 L 50 75.8125 L 40 75.8125 Z M 40 66 "/>
</clipPath>
<clipPath id="clip16">
  <path d="M 49 66 L 56 66 L 56 75.8125 L 49 75.8125 Z M 49 66 "/>
</clipPath>
<clipPath id="clip17">
  <path d="M 56 66 L 63 66 L 63 75.8125 L 56 75.8125 Z M 56 66 "/>
</clipPath>
<clipPath id="clip18">
  <path d="M 67 66 L 77 66 L 77 75.8125 L 67 75.8125 Z M 67 66 "/>
</clipPath>
<clipPath id="clip19">
  <path d="M 78 66 L 84 66 L 84 75.8125 L 78 75.8125 Z M 78 66 "/>
</clipPath>
<clipPath id="clip20">
  <path d="M 89 66 L 96 66 L 96 75.8125 L 89 75.8125 Z M 89 66 "/>
</clipPath>
<clipPath id="clip21">
  <path d="M 95 66 L 105 66 L 105 75.8125 L 95 75.8125 Z M 95 66 "/>
</clipPath>
<clipPath id="clip22">
  <path d="M 104 66 L 114 66 L 114 75.8125 L 104 75.8125 Z M 104 66 "/>
</clipPath>
<clipPath id="clip23">
  <path d="M 115 66 L 120 66 L 120 75.8125 L 115 75.8125 Z M 115 66 "/>
</clipPath>
<clipPath id="clip24">
  <path d="M 120 66 L 130 66 L 130 75.8125 L 120 75.8125 Z M 120 66 "/>
</clipPath>
<clipPath id="clip25">
  <path d="M 129 66 L 140 66 L 140 75.8125 L 129 75.8125 Z M 129 66 "/>
</clipPath>
<clipPath id="clip26">
  <path d="M 140 66 L 151 66 L 151 75.8125 L 140 75.8125 Z M 140 66 "/>
</clipPath>
<clipPath id="clip27">
  <path d="M 152 66 L 157.480469 66 L 157.480469 75.8125 L 152 75.8125 Z M 152 66 "/>
</clipPath>
</defs>
<g id="surface1">
<g clip-path="url(#clip1)" clip-rule="nonzero">
<path style=" stroke:none;fill-rule:nonzero;fill:rgb(13.729858%,12.159729%,12.548828%);fill-opacity:1;" d="M 62.277344 0.832031 C 62.277344 0.832031 56.5 10.917969 56.28125 20.40625 L 61.625 20.40625 L 61.625 24.984375 L 56.0625 24.984375 C 56.0625 24.984375 55.628906 34.46875 62.277344 45.042969 L 56.882812 45.042969 C 56.882812 45.042969 43.796875 27.003906 56.882812 0.832031 L 62.277344 0.832031 "/>
</g>
<g clip-path="url(#clip2)" clip-rule="nonzero">
<path style=" stroke:none;fill-rule:nonzero;fill:rgb(93.595886%,18.060303%,19.245911%);fill-opacity:1;" d="M 51.738281 45.03125 C 51.738281 45.03125 38.65625 27.003906 51.738281 0.832031 L 1.421875 0.832031 L 1.421875 45.03125 L 51.738281 45.03125 "/>
</g>
<g clip-path="url(#clip3)" clip-rule="nonzero">
<path style=" stroke:none;fill-rule:nonzero;fill:rgb(13.729858%,12.159729%,12.548828%);fill-opacity:1;" d="M 82.507812 45.050781 L 87.59375 45.050781 L 87.59375 24.992188 L 93.027344 24.992188 L 93.027344 20.414062 L 87.679688 20.414062 C 87.902344 10.925781 93.679688 0.84375 93.679688 0.84375 L 88.285156 0.84375 C 84.136719 9.136719 82.617188 16.617188 82.480469 22.96875 L 82.507812 45.050781 "/>
</g>
<g clip-path="url(#clip4)" clip-rule="nonzero">
<path style=" stroke:none;fill-rule:nonzero;fill:rgb(13.729858%,12.159729%,12.548828%);fill-opacity:1;" d="M 101.066406 24.992188 C 101.066406 24.992188 100.628906 34.476562 107.28125 45.054688 L 101.882812 45.054688 C 101.882812 45.054688 95.78125 36.640625 96.082031 22.964844 L 96.082031 0.832031 L 101.039062 0.832031 L 101.066406 24.992188 "/>
</g>
<g clip-path="url(#clip5)" clip-rule="nonzero">
<path style=" stroke:none;fill-rule:nonzero;fill:rgb(93.595886%,18.060303%,19.245911%);fill-opacity:1;" d="M 112.46875 45.054688 C 105.816406 34.476562 106.253906 24.992188 106.253906 24.992188 L 106.226562 0.832031 L 157.363281 0.832031 L 157.324219 45.050781 L 112.46875 45.054688 "/>
</g>
<g clip-path="url(#clip6)" clip-rule="nonzero">
<path style=" stroke:none;fill-rule:nonzero;fill:rgb(13.729858%,12.159729%,12.548828%);fill-opacity:1;" d="M 65.613281 45.050781 L 70.628906 45.050781 L 70.628906 0.832031 L 65.613281 0.832031 Z M 65.613281 45.050781 "/>
</g>
<g clip-path="url(#clip7)" clip-rule="nonzero">
<path style=" stroke:none;fill-rule:nonzero;fill:rgb(13.729858%,12.159729%,12.548828%);fill-opacity:1;" d="M 77.390625 0.832031 L 72.046875 0.832031 C 72.046875 0.832031 80.445312 11.84375 72.046875 22.96875 L 77.390625 22.96875 C 77.390625 22.96875 85.296875 12.511719 77.390625 0.832031 "/>
</g>
<g clip-path="url(#clip8)" clip-rule="nonzero">
<path style=" stroke:none;fill-rule:nonzero;fill:rgb(13.729858%,12.159729%,12.548828%);fill-opacity:1;" d="M 5.539062 51.03125 C 5.597656 51.140625 5.539062 51.171875 5.492188 51.171875 C 5.457031 51.171875 5.339844 51.152344 5.140625 51.171875 C 4.5625 51.230469 3.738281 51.5 3.351562 51.664062 C 3.269531 51.699219 3.199219 51.722656 3.175781 51.722656 C 3.148438 51.722656 3.113281 51.699219 3.113281 51.652344 C 3.113281 51.617188 3.140625 51.59375 3.199219 51.5625 C 3.621094 51.269531 4.71875 50.605469 4.800781 50.558594 C 5 50.441406 5.070312 50.40625 5.128906 50.40625 C 5.164062 50.40625 5.1875 50.429688 5.246094 50.511719 C 5.328125 50.632812 5.410156 50.792969 5.539062 51.03125 Z M 2.128906 56.046875 C 2.128906 54.210938 2.128906 53.878906 2.101562 53.503906 C 2.078125 53.101562 1.984375 52.914062 1.597656 52.832031 C 1.5 52.808594 1.300781 52.792969 1.195312 52.792969 C 1.148438 52.792969 1.101562 52.773438 1.101562 52.722656 C 1.101562 52.65625 1.160156 52.628906 1.292969 52.628906 C 1.820312 52.628906 2.5625 52.664062 2.621094 52.664062 C 2.703125 52.664062 5.046875 52.664062 5.316406 52.65625 C 5.539062 52.644531 5.730469 52.617188 5.820312 52.59375 C 5.882812 52.582031 5.929688 52.539062 5.988281 52.539062 C 6.023438 52.539062 6.035156 52.582031 6.035156 52.644531 C 6.035156 52.722656 5.976562 52.867188 5.941406 53.199219 C 5.929688 53.316406 5.90625 53.832031 5.882812 53.972656 C 5.871094 54.03125 5.847656 54.105469 5.800781 54.105469 C 5.730469 54.105469 5.707031 54.042969 5.707031 53.953125 C 5.707031 53.867188 5.695312 53.664062 5.632812 53.527344 C 5.550781 53.339844 5.433594 53.199219 4.800781 53.128906 C 4.597656 53.101562 3.316406 53.09375 3.1875 53.09375 C 3.140625 53.09375 3.113281 53.128906 3.113281 53.210938 L 3.113281 56.457031 C 3.113281 56.539062 3.128906 56.574219 3.1875 56.574219 C 3.339844 56.574219 4.785156 56.574219 5.058594 56.550781 C 5.339844 56.527344 5.503906 56.503906 5.609375 56.386719 C 5.695312 56.292969 5.738281 56.234375 5.789062 56.234375 C 5.820312 56.234375 5.847656 56.261719 5.847656 56.332031 C 5.847656 56.394531 5.789062 56.597656 5.753906 56.988281 C 5.730469 57.226562 5.707031 57.65625 5.707031 57.738281 C 5.707031 57.835938 5.707031 57.964844 5.625 57.964844 C 5.5625 57.964844 5.539062 57.917969 5.539062 57.855469 C 5.539062 57.738281 5.539062 57.621094 5.492188 57.46875 C 5.445312 57.304688 5.339844 57.105469 4.882812 57.058594 C 4.5625 57.023438 3.398438 57 3.199219 57 C 3.140625 57 3.113281 57.035156 3.113281 57.082031 L 3.113281 58.117188 C 3.113281 58.515625 3.105469 59.882812 3.113281 60.132812 C 3.148438 60.945312 3.328125 61.097656 4.480469 61.097656 C 4.785156 61.097656 5.304688 61.097656 5.609375 60.96875 C 5.917969 60.839844 6.058594 60.597656 6.140625 60.121094 C 6.164062 59.988281 6.1875 59.945312 6.246094 59.945312 C 6.316406 59.945312 6.316406 60.035156 6.316406 60.121094 C 6.316406 60.214844 6.222656 61.015625 6.164062 61.257812 C 6.082031 61.566406 5.988281 61.566406 5.527344 61.566406 C 3.75 61.566406 2.960938 61.492188 2.621094 61.492188 C 2.5625 61.492188 1.820312 61.53125 1.46875 61.53125 C 1.335938 61.53125 1.28125 61.507812 1.28125 61.433594 C 1.28125 61.402344 1.300781 61.363281 1.375 61.363281 C 1.480469 61.363281 1.621094 61.339844 1.726562 61.316406 C 1.960938 61.269531 2.019531 61.015625 2.066406 60.671875 C 2.128906 60.179688 2.128906 59.246094 2.128906 58.117188 L 2.128906 56.046875 "/>
</g>
<path style=" stroke:none;fill-rule:nonzero;fill:rgb(13.729858%,12.159729%,12.548828%);fill-opacity:1;" d="M 9.390625 60.421875 C 8.246094 59.398438 7.964844 58.058594 7.964844 56.941406 C 7.964844 56.152344 8.234375 54.773438 9.28125 53.722656 C 9.988281 53.023438 11.0625 52.46875 12.871094 52.46875 C 13.34375 52.46875 14.003906 52.503906 14.578125 52.609375 C 15.027344 52.691406 15.40625 52.761719 15.78125 52.78125 C 15.910156 52.792969 15.933594 52.84375 15.933594 52.914062 C 15.933594 53.011719 15.898438 53.152344 15.875 53.574219 C 15.851562 53.960938 15.851562 54.605469 15.839844 54.785156 C 15.828125 54.964844 15.804688 55.035156 15.734375 55.035156 C 15.652344 55.035156 15.640625 54.953125 15.640625 54.785156 C 15.640625 54.328125 15.449219 53.84375 15.144531 53.585938 C 14.730469 53.234375 13.828125 52.914062 12.789062 52.914062 C 11.226562 52.914062 10.496094 53.375 10.085938 53.773438 C 9.222656 54.59375 9.023438 55.644531 9.023438 56.84375 C 9.023438 59.09375 10.753906 61.15625 13.273438 61.15625 C 14.15625 61.15625 14.851562 61.050781 15.320312 60.566406 C 15.570312 60.304688 15.722656 59.789062 15.757812 59.578125 C 15.78125 59.445312 15.804688 59.398438 15.875 59.398438 C 15.933594 59.398438 15.957031 59.480469 15.957031 59.578125 C 15.957031 59.660156 15.816406 60.679688 15.699219 61.085938 C 15.628906 61.304688 15.605469 61.328125 15.390625 61.421875 C 14.921875 61.609375 14.027344 61.695312 13.273438 61.695312 C 11.507812 61.695312 10.320312 61.257812 9.390625 60.421875 "/>
<path style=" stroke:none;fill-rule:nonzero;fill:rgb(13.729858%,12.159729%,12.548828%);fill-opacity:1;" d="M 18.558594 56.738281 C 18.558594 54.164062 20.03125 52.867188 21.996094 52.867188 C 23.855469 52.867188 25.574219 54.386719 25.574219 57.214844 C 25.574219 60.636719 23.386719 61.246094 22.324219 61.246094 C 20.207031 61.246094 18.558594 59.480469 18.558594 56.738281 Z M 17.441406 57.074219 C 17.441406 59.191406 18.78125 61.695312 22.007812 61.695312 C 24.84375 61.695312 26.703125 59.515625 26.703125 56.882812 C 26.703125 54.140625 24.726562 52.46875 22.078125 52.46875 C 18.832031 52.46875 17.441406 55.164062 17.441406 57.074219 "/>
<path style=" stroke:none;fill-rule:nonzero;fill:rgb(13.729858%,12.159729%,12.548828%);fill-opacity:1;" d="M 30.539062 58.144531 C 30.539062 59.871094 30.589844 60.625 30.800781 60.839844 C 30.988281 61.027344 31.292969 61.109375 32.210938 61.109375 C 32.835938 61.109375 33.351562 61.097656 33.636719 60.753906 C 33.789062 60.566406 33.90625 60.269531 33.941406 60.046875 C 33.953125 59.957031 33.976562 59.898438 34.050781 59.898438 C 34.109375 59.898438 34.117188 59.945312 34.117188 60.074219 C 34.117188 60.203125 34.035156 60.90625 33.941406 61.246094 C 33.859375 61.519531 33.824219 61.566406 33.203125 61.566406 C 31.507812 61.566406 30.730469 61.492188 30.046875 61.492188 C 29.941406 61.492188 29.246094 61.53125 28.894531 61.53125 C 28.765625 61.53125 28.703125 61.507812 28.703125 61.433594 C 28.703125 61.402344 28.726562 61.363281 28.800781 61.363281 C 28.90625 61.363281 29.046875 61.339844 29.152344 61.316406 C 29.386719 61.269531 29.445312 61.015625 29.492188 60.671875 C 29.550781 60.179688 29.550781 59.246094 29.550781 58.117188 L 29.550781 56.046875 C 29.550781 54.210938 29.550781 53.878906 29.527344 53.503906 C 29.503906 53.101562 29.410156 52.914062 29.023438 52.832031 C 28.929688 52.808594 28.726562 52.792969 28.621094 52.792969 C 28.574219 52.792969 28.527344 52.773438 28.527344 52.722656 C 28.527344 52.65625 28.585938 52.628906 28.71875 52.628906 C 29.246094 52.628906 29.988281 52.664062 30.046875 52.664062 C 30.105469 52.664062 30.964844 52.628906 31.320312 52.628906 C 31.445312 52.628906 31.507812 52.65625 31.507812 52.722656 C 31.507812 52.773438 31.460938 52.792969 31.410156 52.792969 C 31.328125 52.792969 31.164062 52.808594 31.023438 52.832031 C 30.679688 52.890625 30.589844 53.09375 30.566406 53.503906 C 30.539062 53.878906 30.539062 54.210938 30.539062 56.046875 L 30.539062 58.144531 "/>
<path style=" stroke:none;fill-rule:nonzero;fill:rgb(13.729858%,12.159729%,12.548828%);fill-opacity:1;" d="M 36.519531 56.046875 C 36.519531 54.210938 36.519531 53.878906 36.496094 53.503906 C 36.472656 53.101562 36.378906 52.914062 35.992188 52.832031 C 35.898438 52.808594 35.699219 52.792969 35.589844 52.792969 C 35.542969 52.792969 35.496094 52.773438 35.496094 52.722656 C 35.496094 52.65625 35.554688 52.628906 35.683594 52.628906 C 36.214844 52.628906 36.957031 52.664062 37.015625 52.664062 C 37.097656 52.664062 39.441406 52.664062 39.710938 52.65625 C 39.933594 52.644531 40.121094 52.617188 40.214844 52.59375 C 40.277344 52.582031 40.320312 52.539062 40.382812 52.539062 C 40.417969 52.539062 40.425781 52.582031 40.425781 52.644531 C 40.425781 52.722656 40.371094 52.867188 40.335938 53.199219 C 40.320312 53.316406 40.296875 53.832031 40.277344 53.972656 C 40.261719 54.03125 40.238281 54.105469 40.191406 54.105469 C 40.121094 54.105469 40.097656 54.042969 40.097656 53.953125 C 40.097656 53.867188 40.085938 53.664062 40.027344 53.527344 C 39.945312 53.339844 39.828125 53.199219 39.191406 53.128906 C 38.992188 53.101562 37.710938 53.09375 37.582031 53.09375 C 37.53125 53.09375 37.507812 53.128906 37.507812 53.210938 L 37.507812 56.457031 C 37.507812 56.539062 37.519531 56.574219 37.582031 56.574219 C 37.730469 56.574219 39.179688 56.574219 39.449219 56.550781 C 39.734375 56.527344 39.898438 56.503906 40.003906 56.386719 C 40.085938 56.292969 40.132812 56.234375 40.179688 56.234375 C 40.214844 56.234375 40.238281 56.261719 40.238281 56.332031 C 40.238281 56.394531 40.179688 56.597656 40.148438 56.988281 C 40.121094 57.226562 40.097656 57.65625 40.097656 57.738281 C 40.097656 57.835938 40.097656 57.964844 40.015625 57.964844 C 39.957031 57.964844 39.933594 57.917969 39.933594 57.855469 C 39.933594 57.738281 39.933594 57.621094 39.886719 57.46875 C 39.839844 57.304688 39.734375 57.105469 39.273438 57.058594 C 38.957031 57.023438 37.792969 57 37.59375 57 C 37.53125 57 37.507812 57.035156 37.507812 57.082031 L 37.507812 58.117188 C 37.507812 58.515625 37.496094 59.882812 37.507812 60.132812 C 37.542969 60.945312 37.722656 61.097656 38.875 61.097656 C 39.179688 61.097656 39.699219 61.097656 40.003906 60.96875 C 40.3125 60.839844 40.453125 60.597656 40.535156 60.121094 C 40.558594 59.988281 40.582031 59.945312 40.640625 59.945312 C 40.710938 59.945312 40.710938 60.035156 40.710938 60.121094 C 40.710938 60.214844 40.617188 61.015625 40.558594 61.257812 C 40.476562 61.566406 40.382812 61.566406 39.921875 61.566406 C 38.144531 61.566406 37.355469 61.492188 37.015625 61.492188 C 36.957031 61.492188 36.214844 61.53125 35.863281 61.53125 C 35.730469 61.53125 35.671875 61.507812 35.671875 61.433594 C 35.671875 61.402344 35.699219 61.363281 35.765625 61.363281 C 35.871094 61.363281 36.015625 61.339844 36.121094 61.316406 C 36.355469 61.269531 36.414062 61.015625 36.460938 60.671875 C 36.519531 60.179688 36.519531 59.246094 36.519531 58.117188 L 36.519531 56.046875 "/>
<path style=" stroke:none;fill-rule:nonzero;fill:rgb(13.729858%,12.159729%,12.548828%);fill-opacity:1;" d="M 47.527344 56.046875 C 47.527344 54.210938 47.527344 53.878906 47.503906 53.503906 C 47.480469 53.101562 47.382812 52.914062 46.996094 52.832031 C 46.902344 52.808594 46.703125 52.792969 46.597656 52.792969 C 46.550781 52.792969 46.5 52.773438 46.5 52.722656 C 46.5 52.65625 46.5625 52.628906 46.691406 52.628906 C 47.21875 52.628906 47.925781 52.664062 48.019531 52.664062 C 48.277344 52.664062 48.960938 52.628906 49.503906 52.628906 C 50.976562 52.628906 51.503906 53.128906 51.691406 53.300781 C 51.953125 53.546875 52.28125 54.082031 52.28125 54.703125 C 52.28125 56.375 51.058594 57.503906 49.386719 57.503906 C 49.328125 57.503906 49.199219 57.503906 49.140625 57.488281 C 49.078125 57.488281 49.007812 57.46875 49.007812 57.40625 C 49.007812 57.320312 49.078125 57.304688 49.328125 57.304688 C 50.46875 57.304688 51.363281 56.46875 51.363281 55.386719 C 51.363281 54.996094 51.328125 54.210938 50.703125 53.574219 C 50.078125 52.9375 49.363281 52.984375 49.089844 52.984375 C 48.890625 52.984375 48.691406 53.011719 48.585938 53.054688 C 48.515625 53.082031 48.492188 53.160156 48.492188 53.28125 L 48.492188 58.117188 C 48.492188 59.246094 48.492188 60.179688 48.550781 60.671875 C 48.585938 61.015625 48.65625 61.269531 49.007812 61.316406 C 49.171875 61.339844 49.433594 61.363281 49.539062 61.363281 C 49.609375 61.363281 49.632812 61.402344 49.632812 61.433594 C 49.632812 61.492188 49.574219 61.53125 49.445312 61.53125 C 48.796875 61.53125 48.054688 61.492188 47.996094 61.492188 C 47.960938 61.492188 47.21875 61.53125 46.867188 61.53125 C 46.738281 61.53125 46.679688 61.507812 46.679688 61.433594 C 46.679688 61.402344 46.703125 61.363281 46.773438 61.363281 C 46.878906 61.363281 47.019531 61.339844 47.125 61.316406 C 47.359375 61.269531 47.417969 61.015625 47.46875 60.671875 C 47.527344 60.179688 47.527344 59.246094 47.527344 58.117188 L 47.527344 56.046875 "/>
<path style=" stroke:none;fill-rule:nonzero;fill:rgb(13.729858%,12.159729%,12.548828%);fill-opacity:1;" d="M 54.859375 56.738281 C 54.859375 54.164062 56.332031 52.867188 58.296875 52.867188 C 60.15625 52.867188 61.875 54.386719 61.875 57.214844 C 61.875 60.636719 59.683594 61.246094 58.625 61.246094 C 56.507812 61.246094 54.859375 59.480469 54.859375 56.738281 Z M 53.738281 57.074219 C 53.738281 59.191406 55.082031 61.695312 58.308594 61.695312 C 61.144531 61.695312 63.003906 59.515625 63.003906 56.882812 C 63.003906 54.140625 61.027344 52.46875 58.378906 52.46875 C 55.128906 52.46875 53.738281 55.164062 53.738281 57.074219 "/>
<path style=" stroke:none;fill-rule:nonzero;fill:rgb(13.729858%,12.159729%,12.548828%);fill-opacity:1;" d="M 66.605469 58.144531 C 66.605469 59.871094 66.652344 60.625 66.863281 60.839844 C 67.050781 61.027344 67.359375 61.109375 68.277344 61.109375 C 68.902344 61.109375 69.417969 61.097656 69.703125 60.753906 C 69.855469 60.566406 69.972656 60.269531 70.007812 60.046875 C 70.019531 59.957031 70.042969 59.898438 70.113281 59.898438 C 70.171875 59.898438 70.183594 59.945312 70.183594 60.074219 C 70.183594 60.203125 70.101562 60.90625 70.007812 61.246094 C 69.925781 61.519531 69.890625 61.566406 69.265625 61.566406 C 67.570312 61.566406 66.792969 61.492188 66.109375 61.492188 C 66.007812 61.492188 65.3125 61.53125 64.957031 61.53125 C 64.828125 61.53125 64.769531 61.507812 64.769531 61.433594 C 64.769531 61.402344 64.792969 61.363281 64.863281 61.363281 C 64.96875 61.363281 65.109375 61.339844 65.21875 61.316406 C 65.453125 61.269531 65.511719 61.015625 65.558594 60.671875 C 65.617188 60.179688 65.617188 59.246094 65.617188 58.117188 L 65.617188 56.046875 C 65.617188 54.210938 65.617188 53.878906 65.59375 53.503906 C 65.570312 53.101562 65.476562 52.914062 65.085938 52.832031 C 64.992188 52.808594 64.792969 52.792969 64.6875 52.792969 C 64.640625 52.792969 64.59375 52.773438 64.59375 52.722656 C 64.59375 52.65625 64.652344 52.628906 64.78125 52.628906 C 65.3125 52.628906 66.050781 52.664062 66.109375 52.664062 C 66.171875 52.664062 67.03125 52.628906 67.382812 52.628906 C 67.511719 52.628906 67.570312 52.65625 67.570312 52.722656 C 67.570312 52.773438 67.523438 52.792969 67.476562 52.792969 C 67.394531 52.792969 67.230469 52.808594 67.089844 52.832031 C 66.746094 52.890625 66.652344 53.09375 66.628906 53.503906 C 66.605469 53.878906 66.605469 54.210938 66.605469 56.046875 L 66.605469 58.144531 "/>
<path style=" stroke:none;fill-rule:nonzero;fill:rgb(13.729858%,12.159729%,12.548828%);fill-opacity:1;" d="M 73.65625 58.480469 C 73.65625 57.84375 73.539062 57.589844 73.386719 57.246094 C 73.304688 57.058594 71.726562 54.46875 71.316406 53.855469 C 71.019531 53.421875 70.726562 53.128906 70.515625 52.984375 C 70.339844 52.867188 70.113281 52.792969 70.007812 52.792969 C 69.949219 52.792969 69.890625 52.773438 69.890625 52.714844 C 69.890625 52.664062 69.9375 52.628906 70.042969 52.628906 C 70.265625 52.628906 71.148438 52.664062 71.207031 52.664062 C 71.289062 52.664062 71.738281 52.628906 72.195312 52.628906 C 72.328125 52.628906 72.351562 52.664062 72.351562 52.714844 C 72.351562 52.761719 72.28125 52.773438 72.171875 52.820312 C 72.082031 52.867188 72.023438 52.9375 72.023438 53.03125 C 72.023438 53.175781 72.082031 53.316406 72.171875 53.492188 C 72.363281 53.832031 74.128906 56.867188 74.339844 57.214844 C 74.5625 56.71875 76.058594 54.140625 76.292969 53.75 C 76.449219 53.503906 76.492188 53.300781 76.492188 53.152344 C 76.492188 52.984375 76.449219 52.855469 76.304688 52.820312 C 76.199219 52.78125 76.128906 52.761719 76.128906 52.703125 C 76.128906 52.65625 76.199219 52.628906 76.316406 52.628906 C 76.621094 52.628906 77 52.664062 77.09375 52.664062 C 77.164062 52.664062 78.011719 52.628906 78.234375 52.628906 C 78.316406 52.628906 78.390625 52.65625 78.390625 52.703125 C 78.390625 52.761719 78.332031 52.792969 78.234375 52.792969 C 78.105469 52.792969 77.882812 52.84375 77.695312 52.964844 C 77.457031 53.101562 77.328125 53.246094 77.070312 53.558594 C 76.683594 54.03125 75.03125 56.796875 74.820312 57.304688 C 74.644531 57.726562 74.644531 58.09375 74.644531 58.480469 L 74.644531 59.492188 C 74.644531 59.679688 74.644531 60.179688 74.679688 60.671875 C 74.707031 61.015625 74.808594 61.269531 75.164062 61.316406 C 75.328125 61.339844 75.585938 61.363281 75.695312 61.363281 C 75.761719 61.363281 75.785156 61.402344 75.785156 61.433594 C 75.785156 61.492188 75.730469 61.53125 75.597656 61.53125 C 74.953125 61.53125 74.210938 61.492188 74.152344 61.492188 C 74.09375 61.492188 73.347656 61.53125 72.996094 61.53125 C 72.867188 61.53125 72.808594 61.507812 72.808594 61.433594 C 72.808594 61.402344 72.832031 61.363281 72.902344 61.363281 C 73.011719 61.363281 73.148438 61.339844 73.257812 61.316406 C 73.492188 61.269531 73.597656 61.015625 73.621094 60.671875 C 73.65625 60.179688 73.65625 59.679688 73.65625 59.492188 L 73.65625 58.480469 "/>
<path style=" stroke:none;fill-rule:nonzero;fill:rgb(13.729858%,12.159729%,12.548828%);fill-opacity:1;" d="M 82.789062 58.117188 C 82.789062 59.246094 82.789062 60.179688 82.847656 60.671875 C 82.882812 61.015625 82.957031 61.269531 83.308594 61.316406 C 83.472656 61.339844 83.730469 61.363281 83.835938 61.363281 C 83.90625 61.363281 83.929688 61.402344 83.929688 61.433594 C 83.929688 61.492188 83.871094 61.53125 83.746094 61.53125 C 83.097656 61.53125 82.355469 61.492188 82.296875 61.492188 C 82.238281 61.492188 81.496094 61.53125 81.144531 61.53125 C 81.011719 61.53125 80.953125 61.507812 80.953125 61.433594 C 80.953125 61.402344 80.976562 61.363281 81.046875 61.363281 C 81.15625 61.363281 81.296875 61.339844 81.402344 61.316406 C 81.636719 61.269531 81.699219 61.015625 81.742188 60.671875 C 81.800781 60.179688 81.800781 59.246094 81.800781 58.117188 L 81.800781 53.140625 L 80.058594 53.160156 C 79.332031 53.175781 79.046875 53.257812 78.859375 53.539062 C 78.730469 53.738281 78.695312 53.820312 78.660156 53.902344 C 78.625 53.996094 78.589844 54.023438 78.539062 54.023438 C 78.507812 54.023438 78.480469 53.984375 78.480469 53.914062 C 78.480469 53.796875 78.71875 52.78125 78.742188 52.691406 C 78.765625 52.617188 78.8125 52.46875 78.859375 52.46875 C 78.941406 52.46875 79.058594 52.582031 79.378906 52.609375 C 79.71875 52.644531 80.164062 52.664062 80.308594 52.664062 L 84.722656 52.664062 C 85.472656 52.664062 85.789062 52.550781 85.886719 52.550781 C 85.945312 52.550781 85.945312 52.617188 85.945312 52.691406 C 85.945312 53.042969 85.910156 53.855469 85.910156 53.984375 C 85.910156 54.09375 85.875 54.140625 85.828125 54.140625 C 85.769531 54.140625 85.742188 54.105469 85.730469 53.941406 L 85.71875 53.808594 C 85.675781 53.457031 85.40625 53.1875 84.277344 53.160156 L 82.789062 53.140625 L 82.789062 58.117188 "/>
<path style=" stroke:none;fill-rule:nonzero;fill:rgb(13.729858%,12.159729%,12.548828%);fill-opacity:1;" d="M 88.414062 56.046875 C 88.414062 54.210938 88.414062 53.878906 88.394531 53.503906 C 88.371094 53.101562 88.277344 52.914062 87.886719 52.832031 C 87.792969 52.808594 87.59375 52.792969 87.484375 52.792969 C 87.441406 52.792969 87.394531 52.773438 87.394531 52.722656 C 87.394531 52.65625 87.449219 52.628906 87.582031 52.628906 C 88.109375 52.628906 88.851562 52.664062 88.910156 52.664062 C 88.996094 52.664062 91.335938 52.664062 91.605469 52.65625 C 91.828125 52.644531 92.019531 52.617188 92.113281 52.59375 C 92.171875 52.582031 92.21875 52.539062 92.28125 52.539062 C 92.3125 52.539062 92.324219 52.582031 92.324219 52.644531 C 92.324219 52.722656 92.265625 52.867188 92.230469 53.199219 C 92.21875 53.316406 92.199219 53.832031 92.171875 53.972656 C 92.160156 54.03125 92.140625 54.105469 92.09375 54.105469 C 92.019531 54.105469 91.992188 54.042969 91.992188 53.953125 C 91.992188 53.867188 91.984375 53.664062 91.921875 53.527344 C 91.84375 53.339844 91.722656 53.199219 91.089844 53.128906 C 90.890625 53.101562 89.605469 53.09375 89.476562 53.09375 C 89.429688 53.09375 89.40625 53.128906 89.40625 53.210938 L 89.40625 56.457031 C 89.40625 56.539062 89.417969 56.574219 89.476562 56.574219 C 89.628906 56.574219 91.078125 56.574219 91.347656 56.550781 C 91.628906 56.527344 91.792969 56.503906 91.902344 56.386719 C 91.984375 56.292969 92.03125 56.234375 92.082031 56.234375 C 92.113281 56.234375 92.140625 56.261719 92.140625 56.332031 C 92.140625 56.394531 92.082031 56.597656 92.042969 56.988281 C 92.019531 57.226562 91.992188 57.65625 91.992188 57.738281 C 91.992188 57.835938 91.992188 57.964844 91.914062 57.964844 C 91.851562 57.964844 91.828125 57.917969 91.828125 57.855469 C 91.828125 57.738281 91.828125 57.621094 91.785156 57.46875 C 91.734375 57.304688 91.628906 57.105469 91.171875 57.058594 C 90.855469 57.023438 89.6875 57 89.488281 57 C 89.429688 57 89.40625 57.035156 89.40625 57.082031 L 89.40625 58.117188 C 89.40625 58.515625 89.394531 59.882812 89.40625 60.132812 C 89.441406 60.945312 89.617188 61.097656 90.769531 61.097656 C 91.078125 61.097656 91.59375 61.097656 91.902344 60.96875 C 92.210938 60.839844 92.347656 60.597656 92.429688 60.121094 C 92.457031 59.988281 92.480469 59.945312 92.535156 59.945312 C 92.605469 59.945312 92.605469 60.035156 92.605469 60.121094 C 92.605469 60.214844 92.511719 61.015625 92.457031 61.257812 C 92.371094 61.566406 92.28125 61.566406 91.820312 61.566406 C 90.042969 61.566406 89.253906 61.492188 88.910156 61.492188 C 88.851562 61.492188 88.109375 61.53125 87.757812 61.53125 C 87.628906 61.53125 87.570312 61.507812 87.570312 61.433594 C 87.570312 61.402344 87.59375 61.363281 87.664062 61.363281 C 87.769531 61.363281 87.910156 61.339844 88.015625 61.316406 C 88.253906 61.269531 88.3125 61.015625 88.359375 60.671875 C 88.414062 60.179688 88.414062 59.246094 88.414062 58.117188 L 88.414062 56.046875 "/>
<path style=" stroke:none;fill-rule:nonzero;fill:rgb(13.729858%,12.159729%,12.548828%);fill-opacity:1;" d="M 95.675781 60.421875 C 94.535156 59.398438 94.253906 58.058594 94.253906 56.941406 C 94.253906 56.152344 94.523438 54.773438 95.570312 53.722656 C 96.28125 53.023438 97.347656 52.46875 99.164062 52.46875 C 99.636719 52.46875 100.289062 52.503906 100.871094 52.609375 C 101.3125 52.691406 101.695312 52.761719 102.070312 52.78125 C 102.195312 52.792969 102.222656 52.84375 102.222656 52.914062 C 102.222656 53.011719 102.1875 53.152344 102.164062 53.574219 C 102.140625 53.960938 102.140625 54.605469 102.128906 54.785156 C 102.117188 54.964844 102.097656 55.035156 102.027344 55.035156 C 101.941406 55.035156 101.933594 54.953125 101.933594 54.785156 C 101.933594 54.328125 101.742188 53.84375 101.4375 53.585938 C 101.023438 53.234375 100.117188 52.914062 99.085938 52.914062 C 97.515625 52.914062 96.785156 53.375 96.371094 53.773438 C 95.511719 54.59375 95.316406 55.644531 95.316406 56.84375 C 95.316406 59.09375 97.046875 61.15625 99.5625 61.15625 C 100.445312 61.15625 101.140625 61.050781 101.609375 60.566406 C 101.859375 60.304688 102.015625 59.789062 102.050781 59.578125 C 102.070312 59.445312 102.097656 59.398438 102.164062 59.398438 C 102.222656 59.398438 102.242188 59.480469 102.242188 59.578125 C 102.242188 59.660156 102.105469 60.679688 101.988281 61.085938 C 101.921875 61.304688 101.894531 61.328125 101.683594 61.421875 C 101.210938 61.609375 100.3125 61.695312 99.5625 61.695312 C 97.796875 61.695312 96.605469 61.257812 95.675781 60.421875 "/>
<path style=" stroke:none;fill-rule:nonzero;fill:rgb(13.729858%,12.159729%,12.548828%);fill-opacity:1;" d="M 112.183594 58.117188 C 112.183594 59.246094 112.183594 60.179688 112.238281 60.671875 C 112.273438 61.015625 112.347656 61.269531 112.699219 61.316406 C 112.863281 61.339844 113.121094 61.363281 113.230469 61.363281 C 113.300781 61.363281 113.320312 61.402344 113.320312 61.433594 C 113.320312 61.492188 113.265625 61.53125 113.136719 61.53125 C 112.488281 61.53125 111.746094 61.492188 111.6875 61.492188 C 111.632812 61.492188 110.886719 61.53125 110.53125 61.53125 C 110.402344 61.53125 110.347656 61.507812 110.347656 61.433594 C 110.347656 61.402344 110.367188 61.363281 110.4375 61.363281 C 110.546875 61.363281 110.6875 61.339844 110.796875 61.316406 C 111.027344 61.269531 111.085938 61.015625 111.132812 60.671875 C 111.191406 60.179688 111.191406 59.246094 111.191406 58.117188 L 111.191406 56.882812 C 111.191406 56.835938 111.15625 56.808594 111.121094 56.808594 L 106.128906 56.808594 C 106.09375 56.808594 106.0625 56.824219 106.0625 56.882812 L 106.0625 58.117188 C 106.0625 59.246094 106.0625 60.179688 106.117188 60.671875 C 106.152344 61.015625 106.226562 61.269531 106.578125 61.316406 C 106.746094 61.339844 107.003906 61.363281 107.105469 61.363281 C 107.179688 61.363281 107.203125 61.402344 107.203125 61.433594 C 107.203125 61.492188 107.144531 61.53125 107.015625 61.53125 C 106.367188 61.53125 105.625 61.492188 105.566406 61.492188 C 105.507812 61.492188 104.769531 61.53125 104.414062 61.53125 C 104.28125 61.53125 104.222656 61.507812 104.222656 61.433594 C 104.222656 61.402344 104.246094 61.363281 104.316406 61.363281 C 104.425781 61.363281 104.5625 61.339844 104.671875 61.316406 C 104.910156 61.269531 104.96875 61.015625 105.015625 60.671875 C 105.070312 60.179688 105.070312 59.246094 105.070312 58.117188 L 105.070312 56.046875 C 105.070312 54.210938 105.070312 53.878906 105.050781 53.503906 C 105.023438 53.101562 104.933594 52.914062 104.542969 52.832031 C 104.449219 52.808594 104.246094 52.792969 104.140625 52.792969 C 104.09375 52.792969 104.050781 52.773438 104.050781 52.722656 C 104.050781 52.65625 104.105469 52.628906 104.234375 52.628906 C 104.769531 52.628906 105.507812 52.664062 105.566406 52.664062 C 105.625 52.664062 106.367188 52.628906 106.722656 52.628906 C 106.855469 52.628906 106.910156 52.65625 106.910156 52.722656 C 106.910156 52.773438 106.863281 52.792969 106.816406 52.792969 C 106.734375 52.792969 106.660156 52.808594 106.519531 52.832031 C 106.199219 52.890625 106.105469 53.09375 106.082031 53.503906 C 106.0625 53.878906 106.0625 54.210938 106.0625 56.046875 L 106.0625 56.292969 C 106.0625 56.351562 106.09375 56.359375 106.128906 56.359375 L 111.121094 56.359375 C 111.15625 56.359375 111.191406 56.351562 111.191406 56.292969 L 111.191406 56.046875 C 111.191406 54.210938 111.191406 53.878906 111.167969 53.503906 C 111.144531 53.101562 111.050781 52.914062 110.664062 52.832031 C 110.570312 52.808594 110.367188 52.792969 110.265625 52.792969 C 110.214844 52.792969 110.164062 52.773438 110.164062 52.722656 C 110.164062 52.65625 110.226562 52.628906 110.355469 52.628906 C 110.886719 52.628906 111.632812 52.664062 111.6875 52.664062 C 111.746094 52.664062 112.488281 52.628906 112.839844 52.628906 C 112.96875 52.628906 113.027344 52.65625 113.027344 52.722656 C 113.027344 52.773438 112.980469 52.792969 112.933594 52.792969 C 112.851562 52.792969 112.78125 52.808594 112.644531 52.832031 C 112.320312 52.890625 112.226562 53.09375 112.203125 53.503906 C 112.183594 53.878906 112.183594 54.210938 112.183594 56.046875 L 112.183594 58.117188 "/>
<path style=" stroke:none;fill-rule:nonzero;fill:rgb(13.729858%,12.159729%,12.548828%);fill-opacity:1;" d="M 116.691406 59.929688 C 116.714844 60.898438 116.828125 61.203125 117.148438 61.292969 C 117.371094 61.351562 117.632812 61.363281 117.734375 61.363281 C 117.796875 61.363281 117.828125 61.386719 117.828125 61.433594 C 117.828125 61.507812 117.761719 61.53125 117.621094 61.53125 C 116.945312 61.53125 116.480469 61.492188 116.371094 61.492188 C 116.265625 61.492188 115.769531 61.53125 115.242188 61.53125 C 115.121094 61.53125 115.054688 61.519531 115.054688 61.433594 C 115.054688 61.386719 115.089844 61.363281 115.144531 61.363281 C 115.242188 61.363281 115.453125 61.351562 115.632812 61.292969 C 115.925781 61.214844 115.980469 60.871094 115.980469 59.800781 L 115.996094 53.054688 C 115.996094 52.59375 116.03125 52.46875 116.125 52.46875 C 116.21875 52.46875 116.421875 52.722656 116.539062 52.84375 C 116.714844 53.042969 118.46875 54.941406 120.28125 56.882812 C 121.445312 58.132812 122.730469 59.5625 123.105469 59.957031 L 122.976562 53.972656 C 122.964844 53.210938 122.878906 52.949219 122.519531 52.855469 C 122.308594 52.808594 122.035156 52.792969 121.9375 52.792969 C 121.855469 52.792969 121.84375 52.761719 121.84375 52.714844 C 121.84375 52.644531 121.9375 52.628906 122.078125 52.628906 C 122.609375 52.628906 123.175781 52.664062 123.308594 52.664062 C 123.4375 52.664062 123.824219 52.628906 124.308594 52.628906 C 124.4375 52.628906 124.519531 52.644531 124.519531 52.714844 C 124.519531 52.761719 124.472656 52.792969 124.390625 52.792969 C 124.328125 52.792969 124.246094 52.792969 124.105469 52.832031 C 123.71875 52.914062 123.667969 53.175781 123.667969 53.878906 L 123.644531 60.777344 C 123.644531 61.554688 123.621094 61.609375 123.539062 61.609375 C 123.445312 61.609375 123.308594 61.480469 122.679688 60.859375 C 122.554688 60.738281 120.855469 59.015625 119.609375 57.667969 C 118.242188 56.203125 116.910156 54.714844 116.539062 54.289062 L 116.691406 59.929688 "/>
<path style=" stroke:none;fill-rule:nonzero;fill:rgb(13.729858%,12.159729%,12.548828%);fill-opacity:1;" d="M 128.507812 58.117188 C 128.507812 59.246094 128.507812 60.179688 128.566406 60.671875 C 128.601562 61.015625 128.671875 61.269531 129.027344 61.316406 C 129.191406 61.339844 129.449219 61.363281 129.554688 61.363281 C 129.625 61.363281 129.648438 61.402344 129.648438 61.433594 C 129.648438 61.492188 129.589844 61.53125 129.460938 61.53125 C 128.8125 61.53125 128.070312 61.492188 128.015625 61.492188 C 127.953125 61.492188 127.214844 61.53125 126.859375 61.53125 C 126.730469 61.53125 126.671875 61.507812 126.671875 61.433594 C 126.671875 61.402344 126.691406 61.363281 126.765625 61.363281 C 126.871094 61.363281 127.015625 61.339844 127.117188 61.316406 C 127.355469 61.269531 127.414062 61.015625 127.460938 60.671875 C 127.515625 60.179688 127.515625 59.246094 127.515625 58.117188 L 127.515625 56.046875 C 127.515625 54.210938 127.515625 53.878906 127.492188 53.503906 C 127.472656 53.101562 127.355469 52.902344 127.097656 52.84375 C 126.96875 52.808594 126.8125 52.792969 126.730469 52.792969 C 126.683594 52.792969 126.636719 52.773438 126.636719 52.722656 C 126.636719 52.65625 126.691406 52.628906 126.820312 52.628906 C 127.214844 52.628906 127.953125 52.664062 128.015625 52.664062 C 128.070312 52.664062 128.8125 52.628906 129.171875 52.628906 C 129.296875 52.628906 129.355469 52.65625 129.355469 52.722656 C 129.355469 52.773438 129.308594 52.792969 129.261719 52.792969 C 129.179688 52.792969 129.109375 52.808594 128.96875 52.832031 C 128.644531 52.890625 128.554688 53.09375 128.527344 53.503906 C 128.507812 53.878906 128.507812 54.210938 128.507812 56.046875 L 128.507812 58.117188 "/>
<path style=" stroke:none;fill-rule:nonzero;fill:rgb(13.729858%,12.159729%,12.548828%);fill-opacity:1;" d="M 132.472656 56.738281 C 132.472656 54.164062 133.945312 52.867188 135.910156 52.867188 C 137.769531 52.867188 139.488281 54.386719 139.488281 57.214844 C 139.488281 60.636719 137.300781 61.246094 136.238281 61.246094 C 134.121094 61.246094 132.472656 59.480469 132.472656 56.738281 Z M 139.785156 62.390625 C 141.691406 63.4375 143.207031 63.96875 144.636719 63.96875 C 146.378906 63.96875 147.695312 63.460938 148.363281 63.15625 C 148.4375 63.117188 148.460938 63.085938 148.460938 63.039062 C 148.460938 63.003906 148.4375 62.96875 148.390625 62.96875 C 148.355469 62.96875 148.296875 62.992188 148.222656 63.019531 C 147.414062 63.34375 146.492188 63.472656 145.902344 63.472656 C 145.316406 63.472656 143.527344 63.410156 140.949219 62.089844 L 138.535156 60.839844 C 139.3125 60.328125 140.621094 58.953125 140.621094 56.882812 C 140.621094 54.152344 138.644531 52.46875 135.996094 52.46875 C 132.746094 52.46875 131.355469 55.164062 131.355469 57.074219 C 131.355469 59.191406 132.695312 61.695312 135.960938 61.695312 C 136.582031 61.695312 137.382812 61.519531 137.808594 61.292969 L 139.785156 62.390625 "/>
<path style=" stroke:none;fill-rule:nonzero;fill:rgb(13.729858%,12.159729%,12.548828%);fill-opacity:1;" d="M 142.847656 56.046875 C 142.847656 54.210938 142.847656 53.878906 142.820312 53.503906 C 142.800781 53.101562 142.703125 52.914062 142.3125 52.832031 C 142.21875 52.808594 142.019531 52.792969 141.914062 52.792969 C 141.867188 52.792969 141.820312 52.773438 141.820312 52.722656 C 141.820312 52.65625 141.882812 52.628906 142.007812 52.628906 C 142.539062 52.628906 143.257812 52.664062 143.363281 52.664062 C 143.46875 52.664062 144.171875 52.628906 144.527344 52.628906 C 144.660156 52.628906 144.71875 52.65625 144.71875 52.722656 C 144.71875 52.773438 144.667969 52.792969 144.625 52.792969 C 144.539062 52.792969 144.46875 52.808594 144.324219 52.832031 C 144.007812 52.878906 143.914062 53.09375 143.894531 53.503906 C 143.867188 53.878906 143.867188 54.210938 143.867188 56.046875 L 143.867188 57.695312 C 143.867188 59.386719 144.242188 60.121094 144.753906 60.597656 C 145.328125 61.144531 145.859375 61.246094 146.527344 61.246094 C 147.246094 61.246094 147.949219 60.90625 148.378906 60.398438 C 148.917969 59.730469 149.058594 58.726562 149.058594 57.515625 L 149.058594 56.046875 C 149.058594 54.210938 149.058594 53.878906 149.035156 53.503906 C 149.011719 53.101562 148.917969 52.914062 148.53125 52.832031 C 148.4375 52.808594 148.234375 52.792969 148.128906 52.792969 C 148.078125 52.792969 148.035156 52.773438 148.035156 52.722656 C 148.035156 52.65625 148.09375 52.628906 148.222656 52.628906 C 148.753906 52.628906 149.402344 52.664062 149.472656 52.664062 C 149.554688 52.664062 150.105469 52.628906 150.464844 52.628906 C 150.59375 52.628906 150.648438 52.65625 150.648438 52.722656 C 150.648438 52.773438 150.605469 52.792969 150.558594 52.792969 C 150.476562 52.792969 150.402344 52.792969 150.261719 52.832031 C 149.9375 52.890625 149.847656 53.09375 149.824219 53.503906 C 149.800781 53.878906 149.800781 54.210938 149.800781 56.046875 L 149.800781 57.304688 C 149.800781 58.574219 149.660156 59.988281 148.71875 60.828125 C 147.871094 61.578125 146.988281 61.695312 146.289062 61.695312 C 145.894531 61.695312 144.703125 61.648438 143.867188 60.859375 C 143.289062 60.304688 142.847656 59.480469 142.847656 57.765625 L 142.847656 56.046875 "/>
<g clip-path="url(#clip9)" clip-rule="nonzero">
<path style=" stroke:none;fill-rule:nonzero;fill:rgb(13.729858%,12.159729%,12.548828%);fill-opacity:1;" d="M 153.296875 56.046875 C 153.296875 54.210938 153.296875 53.878906 153.273438 53.503906 C 153.25 53.101562 153.15625 52.914062 152.765625 52.832031 C 152.675781 52.808594 152.476562 52.792969 152.367188 52.792969 C 152.320312 52.792969 152.273438 52.773438 152.273438 52.722656 C 152.273438 52.65625 152.332031 52.628906 152.460938 52.628906 C 152.988281 52.628906 153.730469 52.664062 153.789062 52.664062 C 153.871094 52.664062 156.21875 52.664062 156.484375 52.65625 C 156.710938 52.644531 156.894531 52.617188 156.992188 52.59375 C 157.050781 52.582031 157.101562 52.539062 157.15625 52.539062 C 157.195312 52.539062 157.203125 52.582031 157.203125 52.644531 C 157.203125 52.722656 157.144531 52.867188 157.109375 53.199219 C 157.101562 53.316406 157.074219 53.832031 157.050781 53.972656 C 157.039062 54.03125 157.015625 54.105469 156.96875 54.105469 C 156.894531 54.105469 156.871094 54.042969 156.871094 53.953125 C 156.871094 53.867188 156.863281 53.664062 156.804688 53.527344 C 156.722656 53.339844 156.605469 53.199219 155.96875 53.128906 C 155.769531 53.101562 154.484375 53.09375 154.355469 53.09375 C 154.3125 53.09375 154.285156 53.128906 154.285156 53.210938 L 154.285156 56.457031 C 154.285156 56.539062 154.300781 56.574219 154.355469 56.574219 C 154.507812 56.574219 155.953125 56.574219 156.230469 56.550781 C 156.511719 56.527344 156.675781 56.503906 156.777344 56.386719 C 156.863281 56.292969 156.90625 56.234375 156.957031 56.234375 C 156.992188 56.234375 157.015625 56.261719 157.015625 56.332031 C 157.015625 56.394531 156.957031 56.597656 156.921875 56.988281 C 156.894531 57.226562 156.871094 57.65625 156.871094 57.738281 C 156.871094 57.835938 156.871094 57.964844 156.789062 57.964844 C 156.734375 57.964844 156.710938 57.917969 156.710938 57.855469 C 156.710938 57.738281 156.710938 57.621094 156.664062 57.46875 C 156.613281 57.304688 156.511719 57.105469 156.050781 57.058594 C 155.734375 57.023438 154.566406 57 154.367188 57 C 154.3125 57 154.285156 57.035156 154.285156 57.082031 L 154.285156 58.117188 C 154.285156 58.515625 154.273438 59.882812 154.285156 60.132812 C 154.320312 60.945312 154.5 61.097656 155.648438 61.097656 C 155.953125 61.097656 156.476562 61.097656 156.777344 60.96875 C 157.089844 60.839844 157.230469 60.597656 157.3125 60.121094 C 157.335938 59.988281 157.359375 59.945312 157.414062 59.945312 C 157.488281 59.945312 157.488281 60.035156 157.488281 60.121094 C 157.488281 60.214844 157.394531 61.015625 157.335938 61.257812 C 157.253906 61.566406 157.15625 61.566406 156.695312 61.566406 C 154.917969 61.566406 154.132812 61.492188 153.789062 61.492188 C 153.730469 61.492188 152.988281 61.53125 152.640625 61.53125 C 152.511719 61.53125 152.449219 61.507812 152.449219 61.433594 C 152.449219 61.402344 152.476562 61.363281 152.546875 61.363281 C 152.648438 61.363281 152.789062 61.339844 152.894531 61.316406 C 153.132812 61.269531 153.1875 61.015625 153.238281 60.671875 C 153.296875 60.179688 153.296875 59.246094 153.296875 58.117188 L 153.296875 56.046875 "/>
</g>
<g clip-path="url(#clip10)" clip-rule="nonzero">
<path style=" stroke:none;fill-rule:nonzero;fill:rgb(13.729858%,12.159729%,12.548828%);fill-opacity:1;" d="M 2.214844 70.167969 C 2.214844 68.332031 2.214844 68.007812 2.191406 67.625 C 2.167969 67.226562 2.074219 67.042969 1.683594 66.960938 C 1.589844 66.933594 1.390625 66.921875 1.285156 66.921875 C 1.238281 66.921875 1.191406 66.902344 1.191406 66.851562 C 1.191406 66.78125 1.25 66.757812 1.378906 66.757812 C 1.910156 66.757812 2.648438 66.792969 2.707031 66.792969 C 2.945312 66.792969 5.332031 66.792969 5.605469 66.78125 C 5.828125 66.769531 6.015625 66.769531 6.121094 66.734375 C 6.195312 66.710938 6.242188 66.664062 6.289062 66.664062 C 6.335938 66.664062 6.359375 66.710938 6.359375 66.769531 C 6.359375 66.851562 6.300781 66.992188 6.261719 67.320312 C 6.253906 67.4375 6.230469 67.957031 6.203125 68.09375 C 6.195312 68.15625 6.167969 68.226562 6.113281 68.226562 C 6.050781 68.226562 6.03125 68.167969 6.03125 68.082031 C 6.03125 67.992188 5.992188 67.792969 5.921875 67.640625 C 5.851562 67.488281 5.582031 67.273438 5.121094 67.261719 L 3.308594 67.226562 C 3.238281 67.226562 3.203125 67.261719 3.203125 67.355469 L 3.203125 70.605469 C 3.203125 70.679688 3.214844 70.710938 3.285156 70.710938 L 4.792969 70.699219 C 4.992188 70.699219 5.15625 70.699219 5.324219 70.6875 C 5.605469 70.667969 5.757812 70.632812 5.863281 70.476562 C 5.910156 70.417969 5.945312 70.355469 5.992188 70.355469 C 6.039062 70.355469 6.050781 70.394531 6.050781 70.453125 C 6.050781 70.523438 5.992188 70.726562 5.957031 71.109375 C 5.933594 71.34375 5.910156 71.820312 5.910156 71.902344 C 5.910156 72.003906 5.910156 72.125 5.828125 72.125 C 5.769531 72.125 5.746094 72.074219 5.746094 72.019531 C 5.734375 71.902344 5.722656 71.738281 5.675781 71.59375 C 5.617188 71.429688 5.429688 71.21875 5.0625 71.167969 C 4.769531 71.136719 3.488281 71.136719 3.285156 71.136719 C 3.226562 71.136719 3.203125 71.15625 3.203125 71.238281 L 3.203125 72.242188 C 3.203125 73.371094 3.203125 74.300781 3.261719 74.796875 C 3.296875 75.136719 3.367188 75.394531 3.722656 75.445312 C 3.886719 75.46875 4.144531 75.492188 4.25 75.492188 C 4.320312 75.492188 4.34375 75.527344 4.34375 75.5625 C 4.34375 75.625 4.285156 75.65625 4.15625 75.65625 C 3.511719 75.65625 2.769531 75.625 2.707031 75.625 C 2.648438 75.625 1.910156 75.65625 1.554688 75.65625 C 1.425781 75.65625 1.367188 75.636719 1.367188 75.5625 C 1.367188 75.527344 1.390625 75.492188 1.460938 75.492188 C 1.566406 75.492188 1.707031 75.46875 1.816406 75.445312 C 2.050781 75.394531 2.109375 75.136719 2.15625 74.796875 C 2.214844 74.300781 2.214844 73.371094 2.214844 72.242188 L 2.214844 70.167969 "/>
</g>
<g clip-path="url(#clip11)" clip-rule="nonzero">
<path style=" stroke:none;fill-rule:nonzero;fill:rgb(13.729858%,12.159729%,12.548828%);fill-opacity:1;" d="M 12.597656 65.15625 C 12.65625 65.261719 12.597656 65.296875 12.546875 65.296875 C 12.515625 65.296875 12.398438 65.273438 12.195312 65.296875 C 11.617188 65.355469 10.796875 65.628906 10.40625 65.792969 C 10.324219 65.828125 10.253906 65.851562 10.230469 65.851562 C 10.207031 65.851562 10.171875 65.828125 10.171875 65.78125 C 10.171875 65.746094 10.195312 65.71875 10.253906 65.683594 C 10.679688 65.390625 11.773438 64.730469 11.855469 64.683594 C 12.054688 64.566406 12.125 64.53125 12.183594 64.53125 C 12.21875 64.53125 12.242188 64.554688 12.300781 64.640625 C 12.382812 64.757812 12.46875 64.921875 12.597656 65.15625 Z M 9.183594 70.167969 C 9.183594 68.332031 9.183594 68.007812 9.160156 67.625 C 9.136719 67.226562 9.042969 67.042969 8.652344 66.960938 C 8.558594 66.933594 8.359375 66.921875 8.253906 66.921875 C 8.207031 66.921875 8.160156 66.902344 8.160156 66.851562 C 8.160156 66.78125 8.21875 66.757812 8.347656 66.757812 C 8.878906 66.757812 9.617188 66.792969 9.675781 66.792969 C 9.757812 66.792969 12.101562 66.792969 12.375 66.78125 C 12.597656 66.769531 12.785156 66.746094 12.878906 66.722656 C 12.9375 66.710938 12.984375 66.664062 13.042969 66.664062 C 13.078125 66.664062 13.089844 66.710938 13.089844 66.769531 C 13.089844 66.851562 13.03125 66.992188 12.996094 67.320312 C 12.984375 67.4375 12.960938 67.957031 12.9375 68.09375 C 12.925781 68.15625 12.902344 68.226562 12.855469 68.226562 C 12.785156 68.226562 12.761719 68.167969 12.761719 68.074219 C 12.761719 67.992188 12.75 67.792969 12.691406 67.652344 C 12.609375 67.460938 12.488281 67.320312 11.855469 67.25 C 11.65625 67.226562 10.371094 67.210938 10.242188 67.210938 C 10.195312 67.210938 10.171875 67.25 10.171875 67.332031 L 10.171875 70.582031 C 10.171875 70.667969 10.183594 70.699219 10.242188 70.699219 C 10.394531 70.699219 11.84375 70.699219 12.113281 70.679688 C 12.398438 70.65625 12.5625 70.632812 12.667969 70.511719 C 12.75 70.417969 12.796875 70.355469 12.84375 70.355469 C 12.878906 70.355469 12.902344 70.382812 12.902344 70.453125 C 12.902344 70.523438 12.84375 70.726562 12.808594 71.109375 C 12.785156 71.34375 12.761719 71.785156 12.761719 71.863281 C 12.761719 71.957031 12.761719 72.085938 12.679688 72.085938 C 12.621094 72.085938 12.597656 72.039062 12.597656 71.980469 C 12.597656 71.863281 12.597656 71.75 12.546875 71.59375 C 12.503906 71.429688 12.398438 71.230469 11.9375 71.179688 C 11.617188 71.144531 10.453125 71.125 10.253906 71.125 C 10.195312 71.125 10.171875 71.15625 10.171875 71.207031 L 10.171875 72.242188 C 10.171875 72.644531 10.160156 74.007812 10.171875 74.253906 C 10.207031 75.066406 10.382812 75.21875 11.535156 75.21875 C 11.84375 75.21875 12.359375 75.21875 12.667969 75.085938 C 12.972656 74.957031 13.113281 74.726562 13.199219 74.242188 C 13.21875 74.113281 13.242188 74.0625 13.300781 74.0625 C 13.375 74.0625 13.375 74.160156 13.375 74.242188 C 13.375 74.335938 13.28125 75.136719 13.21875 75.386719 C 13.136719 75.691406 13.042969 75.691406 12.585938 75.691406 C 10.808594 75.691406 10.019531 75.625 9.675781 75.625 C 9.617188 75.625 8.878906 75.65625 8.523438 75.65625 C 8.394531 75.65625 8.335938 75.636719 8.335938 75.5625 C 8.335938 75.527344 8.359375 75.492188 8.429688 75.492188 C 8.535156 75.492188 8.675781 75.46875 8.78125 75.445312 C 9.019531 75.394531 9.078125 75.136719 9.125 74.796875 C 9.183594 74.300781 9.183594 73.371094 9.183594 72.242188 L 9.183594 70.167969 "/>
</g>
<g clip-path="url(#clip12)" clip-rule="nonzero">
<path style=" stroke:none;fill-rule:nonzero;fill:rgb(13.729858%,12.159729%,12.548828%);fill-opacity:1;" d="M 17.351562 69.980469 C 17.351562 69.074219 17.351562 67.875 17.363281 67.476562 C 17.363281 67.34375 17.398438 67.285156 17.503906 67.238281 C 17.597656 67.191406 18.035156 67.15625 18.269531 67.15625 C 19.671875 67.15625 21.015625 67.320312 22.117188 68.488281 C 22.601562 68.992188 23.25 69.957031 23.25 71.453125 C 23.25 72.539062 22.917969 73.667969 22.308594 74.265625 C 21.613281 74.957031 20.601562 75.363281 19.507812 75.363281 C 18.117188 75.363281 17.65625 75.113281 17.503906 74.890625 C 17.410156 74.761719 17.386719 74.292969 17.375 73.992188 C 17.363281 73.773438 17.351562 72.691406 17.351562 71.441406 Z M 16.363281 72.242188 C 16.363281 73.371094 16.363281 74.300781 16.304688 74.796875 C 16.257812 75.136719 16.199219 75.394531 15.960938 75.445312 C 15.855469 75.46875 15.714844 75.492188 15.609375 75.492188 C 15.539062 75.492188 15.515625 75.527344 15.515625 75.5625 C 15.515625 75.636719 15.574219 75.65625 15.703125 75.65625 C 16.054688 75.65625 16.796875 75.625 16.855469 75.625 C 16.972656 75.625 18.457031 75.761719 19.46875 75.761719 C 21.472656 75.761719 22.53125 74.9375 23.039062 74.40625 C 23.695312 73.714844 24.308594 72.574219 24.308594 71.085938 C 24.308594 69.6875 23.753906 68.710938 23.167969 68.09375 C 21.765625 66.652344 19.613281 66.757812 18.449219 66.757812 C 17.738281 66.757812 17 66.792969 16.855469 66.792969 C 16.796875 66.792969 16.054688 66.757812 15.527344 66.757812 C 15.398438 66.757812 15.339844 66.78125 15.339844 66.851562 C 15.339844 66.902344 15.386719 66.921875 15.433594 66.921875 C 15.539062 66.921875 15.738281 66.933594 15.832031 66.960938 C 16.222656 67.042969 16.316406 67.226562 16.339844 67.625 C 16.363281 68.007812 16.363281 68.332031 16.363281 70.167969 L 16.363281 72.242188 "/>
</g>
<g clip-path="url(#clip13)" clip-rule="nonzero">
<path style=" stroke:none;fill-rule:nonzero;fill:rgb(13.729858%,12.159729%,12.548828%);fill-opacity:1;" d="M 30.097656 65.15625 C 30.160156 65.261719 30.097656 65.296875 30.050781 65.296875 C 30.015625 65.296875 29.898438 65.273438 29.699219 65.296875 C 29.121094 65.355469 28.296875 65.628906 27.910156 65.792969 C 27.828125 65.828125 27.757812 65.851562 27.734375 65.851562 C 27.710938 65.851562 27.675781 65.828125 27.675781 65.78125 C 27.675781 65.746094 27.699219 65.71875 27.757812 65.683594 C 28.179688 65.390625 29.273438 64.730469 29.355469 64.683594 C 29.558594 64.566406 29.628906 64.53125 29.6875 64.53125 C 29.722656 64.53125 29.746094 64.554688 29.804688 64.640625 C 29.886719 64.757812 29.96875 64.921875 30.097656 65.15625 Z M 26.683594 70.167969 C 26.683594 68.332031 26.683594 68.007812 26.660156 67.625 C 26.640625 67.226562 26.542969 67.042969 26.15625 66.960938 C 26.0625 66.933594 25.863281 66.921875 25.757812 66.921875 C 25.710938 66.921875 25.660156 66.902344 25.660156 66.851562 C 25.660156 66.78125 25.71875 66.757812 25.851562 66.757812 C 26.378906 66.757812 27.121094 66.792969 27.179688 66.792969 C 27.261719 66.792969 29.605469 66.792969 29.875 66.78125 C 30.097656 66.769531 30.285156 66.746094 30.382812 66.722656 C 30.441406 66.710938 30.488281 66.664062 30.546875 66.664062 C 30.582031 66.664062 30.59375 66.710938 30.59375 66.769531 C 30.59375 66.851562 30.535156 66.992188 30.5 67.320312 C 30.488281 67.4375 30.464844 67.957031 30.441406 68.09375 C 30.429688 68.15625 30.40625 68.226562 30.359375 68.226562 C 30.285156 68.226562 30.265625 68.167969 30.265625 68.074219 C 30.265625 67.992188 30.253906 67.792969 30.195312 67.652344 C 30.109375 67.460938 29.992188 67.320312 29.355469 67.25 C 29.15625 67.226562 27.875 67.210938 27.746094 67.210938 C 27.699219 67.210938 27.675781 67.25 27.675781 67.332031 L 27.675781 70.582031 C 27.675781 70.667969 27.6875 70.699219 27.746094 70.699219 C 27.898438 70.699219 29.347656 70.699219 29.617188 70.679688 C 29.898438 70.65625 30.066406 70.632812 30.171875 70.511719 C 30.253906 70.417969 30.300781 70.355469 30.347656 70.355469 C 30.382812 70.355469 30.40625 70.382812 30.40625 70.453125 C 30.40625 70.523438 30.347656 70.726562 30.3125 71.109375 C 30.285156 71.34375 30.265625 71.785156 30.265625 71.863281 C 30.265625 71.957031 30.265625 72.085938 30.179688 72.085938 C 30.121094 72.085938 30.097656 72.039062 30.097656 71.980469 C 30.097656 71.863281 30.097656 71.75 30.050781 71.59375 C 30.003906 71.429688 29.898438 71.230469 29.441406 71.179688 C 29.121094 71.144531 27.957031 71.125 27.757812 71.125 C 27.699219 71.125 27.675781 71.15625 27.675781 71.207031 L 27.675781 72.242188 C 27.675781 72.644531 27.664062 74.007812 27.675781 74.253906 C 27.710938 75.066406 27.886719 75.21875 29.039062 75.21875 C 29.347656 75.21875 29.863281 75.21875 30.171875 75.085938 C 30.476562 74.957031 30.617188 74.726562 30.699219 74.242188 C 30.722656 74.113281 30.746094 74.0625 30.804688 74.0625 C 30.875 74.0625 30.875 74.160156 30.875 74.242188 C 30.875 74.335938 30.78125 75.136719 30.722656 75.386719 C 30.640625 75.691406 30.546875 75.691406 30.089844 75.691406 C 28.308594 75.691406 27.523438 75.625 27.179688 75.625 C 27.121094 75.625 26.378906 75.65625 26.027344 75.65625 C 25.898438 75.65625 25.839844 75.636719 25.839844 75.5625 C 25.839844 75.527344 25.863281 75.492188 25.933594 75.492188 C 26.039062 75.492188 26.179688 75.46875 26.285156 75.445312 C 26.519531 75.394531 26.582031 75.136719 26.628906 74.796875 C 26.683594 74.300781 26.683594 73.371094 26.683594 72.242188 L 26.683594 70.167969 "/>
</g>
<g clip-path="url(#clip14)" clip-rule="nonzero">
<path style=" stroke:none;fill-rule:nonzero;fill:rgb(13.729858%,12.159729%,12.548828%);fill-opacity:1;" d="M 34.808594 67.34375 C 34.808594 67.273438 34.84375 67.226562 34.902344 67.203125 C 35.019531 67.167969 35.335938 67.132812 35.691406 67.132812 C 36.949219 67.132812 37.726562 68.019531 37.726562 69.488281 C 37.726562 70.382812 37.421875 71.015625 37.007812 71.300781 C 36.738281 71.488281 36.40625 71.523438 36.125 71.523438 C 35.609375 71.523438 35.066406 71.441406 34.890625 71.335938 C 34.832031 71.300781 34.808594 71.253906 34.808594 71.195312 Z M 33.867188 72.242188 C 33.867188 73.371094 33.867188 74.300781 33.808594 74.796875 C 33.761719 75.136719 33.703125 75.394531 33.464844 75.445312 C 33.359375 75.46875 33.21875 75.492188 33.113281 75.492188 C 33.042969 75.492188 33.019531 75.527344 33.019531 75.5625 C 33.019531 75.636719 33.078125 75.65625 33.207031 75.65625 C 33.558594 75.65625 34.300781 75.625 34.3125 75.625 C 34.371094 75.625 35.113281 75.65625 35.761719 75.65625 C 35.890625 75.65625 35.949219 75.625 35.949219 75.5625 C 35.949219 75.527344 35.925781 75.492188 35.855469 75.492188 C 35.75 75.492188 35.492188 75.46875 35.324219 75.445312 C 34.972656 75.394531 34.902344 75.136719 34.867188 74.796875 C 34.808594 74.300781 34.808594 73.371094 34.808594 72.242188 L 34.808594 71.957031 C 34.808594 71.902344 34.832031 71.863281 34.890625 71.863281 L 36.335938 71.886719 C 36.40625 71.886719 36.445312 71.914062 36.492188 71.957031 C 36.726562 72.265625 37.28125 73.050781 37.773438 73.703125 C 38.445312 74.585938 38.855469 75.160156 39.363281 75.433594 C 39.667969 75.601562 39.964844 75.65625 40.621094 75.65625 L 41.457031 75.65625 C 41.671875 75.65625 41.738281 75.636719 41.738281 75.5625 C 41.738281 75.527344 41.695312 75.492188 41.632812 75.492188 C 41.5625 75.492188 41.398438 75.492188 41.175781 75.457031 C 40.882812 75.40625 40.375 75.277344 39.738281 74.613281 C 39.058594 73.878906 38.257812 72.832031 37.289062 71.59375 C 38.351562 70.617188 38.714844 69.75 38.714844 68.875 C 38.714844 68.0625 38.199219 67.488281 37.902344 67.273438 C 37.28125 66.832031 36.492188 66.757812 35.75 66.757812 C 35.382812 66.757812 34.488281 66.792969 34.359375 66.792969 C 34.300781 66.792969 33.558594 66.757812 33.03125 66.757812 C 32.902344 66.757812 32.84375 66.78125 32.84375 66.851562 C 32.84375 66.902344 32.886719 66.921875 32.9375 66.921875 C 33.042969 66.921875 33.242188 66.933594 33.335938 66.960938 C 33.726562 67.042969 33.820312 67.226562 33.84375 67.625 C 33.867188 68.007812 33.867188 68.332031 33.867188 70.167969 L 33.867188 72.242188 "/>
</g>
<g clip-path="url(#clip15)" clip-rule="nonzero">
<path style=" stroke:none;fill-rule:nonzero;fill:rgb(13.729858%,12.159729%,12.548828%);fill-opacity:1;" d="M 43.410156 71.761719 C 43.378906 71.761719 43.351562 71.738281 43.378906 71.675781 L 44.414062 68.5 C 44.472656 68.320312 44.53125 68.320312 44.589844 68.5 L 45.707031 71.675781 C 45.71875 71.726562 45.71875 71.761719 45.660156 71.761719 Z M 41.765625 74.359375 C 41.550781 74.949219 41.316406 75.394531 40.777344 75.46875 C 40.679688 75.480469 40.515625 75.492188 40.433594 75.492188 C 40.375 75.492188 40.328125 75.515625 40.328125 75.5625 C 40.328125 75.636719 40.398438 75.65625 40.550781 75.65625 C 41.105469 75.65625 41.753906 75.625 41.882812 75.625 C 42.011719 75.625 42.515625 75.65625 42.800781 75.65625 C 42.90625 75.65625 42.976562 75.636719 42.976562 75.5625 C 42.976562 75.515625 42.941406 75.492188 42.859375 75.492188 L 42.742188 75.492188 C 42.542969 75.492188 42.292969 75.386719 42.292969 75.148438 C 42.292969 74.9375 42.351562 74.65625 42.457031 74.359375 L 43.164062 72.273438 C 43.1875 72.21875 43.222656 72.183594 43.28125 72.183594 L 45.8125 72.183594 C 45.871094 72.183594 45.894531 72.207031 45.917969 72.25 L 47.015625 75.148438 C 47.085938 75.335938 47.015625 75.445312 46.945312 75.46875 C 46.894531 75.480469 46.859375 75.503906 46.859375 75.550781 C 46.859375 75.625 46.988281 75.625 47.214844 75.636719 C 48.027344 75.65625 48.886719 75.65625 49.0625 75.65625 C 49.191406 75.65625 49.296875 75.636719 49.296875 75.5625 C 49.296875 75.503906 49.25 75.492188 49.179688 75.492188 C 49.0625 75.492188 48.886719 75.480469 48.707031 75.421875 C 48.460938 75.351562 48.121094 75.160156 47.699219 74.113281 C 46.980469 72.324219 45.128906 67.460938 44.953125 67.015625 C 44.8125 66.652344 44.765625 66.59375 44.695312 66.59375 C 44.625 66.59375 44.578125 66.664062 44.4375 67.050781 L 41.765625 74.359375 "/>
</g>
<g clip-path="url(#clip16)" clip-rule="nonzero">
<path style=" stroke:none;fill-rule:nonzero;fill:rgb(13.729858%,12.159729%,12.548828%);fill-opacity:1;" d="M 51.96875 72.265625 C 51.96875 73.992188 52.015625 74.75 52.226562 74.957031 C 52.417969 75.148438 52.722656 75.230469 53.640625 75.230469 C 54.265625 75.230469 54.78125 75.21875 55.066406 74.875 C 55.21875 74.695312 55.335938 74.394531 55.371094 74.171875 C 55.382812 74.074219 55.40625 74.019531 55.476562 74.019531 C 55.535156 74.019531 55.546875 74.0625 55.546875 74.195312 C 55.546875 74.324219 55.464844 75.03125 55.371094 75.375 C 55.289062 75.644531 55.253906 75.691406 54.628906 75.691406 C 52.933594 75.691406 52.15625 75.625 51.472656 75.625 C 51.367188 75.625 50.675781 75.65625 50.320312 75.65625 C 50.191406 75.65625 50.132812 75.636719 50.132812 75.5625 C 50.132812 75.527344 50.15625 75.492188 50.226562 75.492188 C 50.332031 75.492188 50.472656 75.46875 50.582031 75.445312 C 50.816406 75.394531 50.875 75.136719 50.921875 74.796875 C 50.980469 74.300781 50.980469 73.371094 50.980469 72.242188 L 50.980469 70.167969 C 50.980469 68.332031 50.980469 68.007812 50.957031 67.625 C 50.933594 67.226562 50.839844 67.042969 50.453125 66.960938 C 50.355469 66.933594 50.15625 66.921875 50.050781 66.921875 C 50.003906 66.921875 49.957031 66.902344 49.957031 66.851562 C 49.957031 66.78125 50.015625 66.757812 50.144531 66.757812 C 50.675781 66.757812 51.417969 66.792969 51.472656 66.792969 C 51.535156 66.792969 52.394531 66.757812 52.746094 66.757812 C 52.875 66.757812 52.933594 66.78125 52.933594 66.851562 C 52.933594 66.902344 52.886719 66.921875 52.839844 66.921875 C 52.757812 66.921875 52.59375 66.933594 52.453125 66.960938 C 52.109375 67.015625 52.015625 67.210938 51.992188 67.625 C 51.96875 68.007812 51.96875 68.332031 51.96875 70.167969 L 51.96875 72.265625 "/>
</g>
<g clip-path="url(#clip17)" clip-rule="nonzero">
<path style=" stroke:none;fill-rule:nonzero;fill:rgb(13.729858%,12.159729%,12.548828%);fill-opacity:1;" d="M 57.949219 70.167969 C 57.949219 68.332031 57.949219 68.007812 57.925781 67.625 C 57.902344 67.226562 57.808594 67.042969 57.417969 66.960938 C 57.324219 66.933594 57.125 66.921875 57.019531 66.921875 C 56.972656 66.921875 56.925781 66.902344 56.925781 66.851562 C 56.925781 66.78125 56.984375 66.757812 57.113281 66.757812 C 57.644531 66.757812 58.386719 66.792969 58.441406 66.792969 C 58.523438 66.792969 60.867188 66.792969 61.140625 66.78125 C 61.363281 66.769531 61.550781 66.746094 61.644531 66.722656 C 61.703125 66.710938 61.75 66.664062 61.808594 66.664062 C 61.84375 66.664062 61.855469 66.710938 61.855469 66.769531 C 61.855469 66.851562 61.796875 66.992188 61.761719 67.320312 C 61.75 67.4375 61.726562 67.957031 61.703125 68.09375 C 61.691406 68.15625 61.667969 68.226562 61.621094 68.226562 C 61.550781 68.226562 61.527344 68.167969 61.527344 68.074219 C 61.527344 67.992188 61.515625 67.792969 61.457031 67.652344 C 61.375 67.460938 61.257812 67.320312 60.621094 67.25 C 60.421875 67.226562 59.136719 67.210938 59.007812 67.210938 C 58.960938 67.210938 58.9375 67.25 58.9375 67.332031 L 58.9375 70.582031 C 58.9375 70.667969 58.949219 70.699219 59.007812 70.699219 C 59.160156 70.699219 60.609375 70.699219 60.878906 70.679688 C 61.160156 70.65625 61.328125 70.632812 61.433594 70.511719 C 61.515625 70.417969 61.5625 70.355469 61.609375 70.355469 C 61.644531 70.355469 61.667969 70.382812 61.667969 70.453125 C 61.667969 70.523438 61.609375 70.726562 61.574219 71.109375 C 61.550781 71.34375 61.527344 71.785156 61.527344 71.863281 C 61.527344 71.957031 61.527344 72.085938 61.445312 72.085938 C 61.386719 72.085938 61.363281 72.039062 61.363281 71.980469 C 61.363281 71.863281 61.363281 71.75 61.316406 71.59375 C 61.269531 71.429688 61.160156 71.230469 60.703125 71.179688 C 60.386719 71.144531 59.21875 71.125 59.019531 71.125 C 58.960938 71.125 58.9375 71.15625 58.9375 71.207031 L 58.9375 72.242188 C 58.9375 72.644531 58.925781 74.007812 58.9375 74.253906 C 58.972656 75.066406 59.152344 75.21875 60.300781 75.21875 C 60.609375 75.21875 61.125 75.21875 61.433594 75.085938 C 61.738281 74.957031 61.882812 74.726562 61.964844 74.242188 C 61.984375 74.113281 62.011719 74.0625 62.070312 74.0625 C 62.140625 74.0625 62.140625 74.160156 62.140625 74.242188 C 62.140625 74.335938 62.046875 75.136719 61.984375 75.386719 C 61.90625 75.691406 61.808594 75.691406 61.351562 75.691406 C 59.574219 75.691406 58.785156 75.625 58.441406 75.625 C 58.386719 75.625 57.644531 75.65625 57.289062 75.65625 C 57.160156 75.65625 57.101562 75.636719 57.101562 75.5625 C 57.101562 75.527344 57.125 75.492188 57.195312 75.492188 C 57.300781 75.492188 57.445312 75.46875 57.546875 75.445312 C 57.785156 75.394531 57.84375 75.136719 57.890625 74.796875 C 57.949219 74.300781 57.949219 73.371094 57.949219 72.242188 L 57.949219 70.167969 "/>
</g>
<g clip-path="url(#clip18)" clip-rule="nonzero">
<path style=" stroke:none;fill-rule:nonzero;fill:rgb(13.729858%,12.159729%,12.548828%);fill-opacity:1;" d="M 69.941406 69.980469 C 69.941406 69.074219 69.941406 67.875 69.953125 67.476562 C 69.953125 67.34375 69.988281 67.285156 70.097656 67.238281 C 70.191406 67.191406 70.625 67.15625 70.859375 67.15625 C 72.261719 67.15625 73.601562 67.320312 74.710938 68.488281 C 75.195312 68.992188 75.839844 69.957031 75.839844 71.453125 C 75.839844 72.539062 75.511719 73.667969 74.898438 74.265625 C 74.203125 74.957031 73.191406 75.363281 72.097656 75.363281 C 70.707031 75.363281 70.25 75.113281 70.097656 74.890625 C 70.003906 74.761719 69.976562 74.292969 69.964844 73.992188 C 69.953125 73.773438 69.941406 72.691406 69.941406 71.441406 Z M 68.953125 72.242188 C 68.953125 73.371094 68.953125 74.300781 68.894531 74.796875 C 68.847656 75.136719 68.789062 75.394531 68.554688 75.445312 C 68.449219 75.46875 68.304688 75.492188 68.203125 75.492188 C 68.132812 75.492188 68.105469 75.527344 68.105469 75.5625 C 68.105469 75.636719 68.164062 75.65625 68.292969 75.65625 C 68.648438 75.65625 69.390625 75.625 69.449219 75.625 C 69.566406 75.625 71.050781 75.761719 72.0625 75.761719 C 74.0625 75.761719 75.121094 74.9375 75.628906 74.40625 C 76.285156 73.714844 76.898438 72.574219 76.898438 71.085938 C 76.898438 69.6875 76.347656 68.710938 75.757812 68.09375 C 74.355469 66.652344 72.203125 66.757812 71.039062 66.757812 C 70.332031 66.757812 69.589844 66.792969 69.449219 66.792969 C 69.390625 66.792969 68.648438 66.757812 68.117188 66.757812 C 67.988281 66.757812 67.929688 66.78125 67.929688 66.851562 C 67.929688 66.902344 67.976562 66.921875 68.023438 66.921875 C 68.132812 66.921875 68.332031 66.933594 68.425781 66.960938 C 68.8125 67.042969 68.90625 67.226562 68.929688 67.625 C 68.953125 68.007812 68.953125 68.332031 68.953125 70.167969 L 68.953125 72.242188 "/>
</g>
<g clip-path="url(#clip19)" clip-rule="nonzero">
<path style=" stroke:none;fill-rule:nonzero;fill:rgb(13.729858%,12.159729%,12.548828%);fill-opacity:1;" d="M 79.746094 70.167969 C 79.746094 68.332031 79.746094 68.007812 79.722656 67.625 C 79.699219 67.226562 79.605469 67.042969 79.21875 66.960938 C 79.125 66.933594 78.921875 66.921875 78.820312 66.921875 C 78.769531 66.921875 78.722656 66.902344 78.722656 66.851562 C 78.722656 66.78125 78.78125 66.757812 78.910156 66.757812 C 79.441406 66.757812 80.183594 66.792969 80.242188 66.792969 C 80.324219 66.792969 82.667969 66.792969 82.933594 66.78125 C 83.160156 66.769531 83.351562 66.746094 83.445312 66.722656 C 83.503906 66.710938 83.550781 66.664062 83.609375 66.664062 C 83.644531 66.664062 83.65625 66.710938 83.65625 66.769531 C 83.65625 66.851562 83.597656 66.992188 83.5625 67.320312 C 83.550781 67.4375 83.527344 67.957031 83.503906 68.09375 C 83.492188 68.15625 83.46875 68.226562 83.421875 68.226562 C 83.351562 68.226562 83.328125 68.167969 83.328125 68.074219 C 83.328125 67.992188 83.316406 67.792969 83.257812 67.652344 C 83.171875 67.460938 83.054688 67.320312 82.421875 67.25 C 82.21875 67.226562 80.933594 67.210938 80.808594 67.210938 C 80.761719 67.210938 80.738281 67.25 80.738281 67.332031 L 80.738281 70.582031 C 80.738281 70.667969 80.746094 70.699219 80.808594 70.699219 C 80.960938 70.699219 82.40625 70.699219 82.679688 70.679688 C 82.960938 70.65625 83.125 70.632812 83.234375 70.511719 C 83.316406 70.417969 83.363281 70.355469 83.410156 70.355469 C 83.445312 70.355469 83.46875 70.382812 83.46875 70.453125 C 83.46875 70.523438 83.410156 70.726562 83.375 71.109375 C 83.351562 71.34375 83.328125 71.785156 83.328125 71.863281 C 83.328125 71.957031 83.328125 72.085938 83.242188 72.085938 C 83.183594 72.085938 83.160156 72.039062 83.160156 71.980469 C 83.160156 71.863281 83.160156 71.75 83.113281 71.59375 C 83.066406 71.429688 82.960938 71.230469 82.503906 71.179688 C 82.183594 71.144531 81.019531 71.125 80.820312 71.125 C 80.761719 71.125 80.738281 71.15625 80.738281 71.207031 L 80.738281 72.242188 C 80.738281 72.644531 80.722656 74.007812 80.738281 74.253906 C 80.773438 75.066406 80.945312 75.21875 82.101562 75.21875 C 82.40625 75.21875 82.925781 75.21875 83.234375 75.085938 C 83.535156 74.957031 83.679688 74.726562 83.761719 74.242188 C 83.78125 74.113281 83.804688 74.0625 83.863281 74.0625 C 83.9375 74.0625 83.9375 74.160156 83.9375 74.242188 C 83.9375 74.335938 83.84375 75.136719 83.78125 75.386719 C 83.703125 75.691406 83.609375 75.691406 83.152344 75.691406 C 81.371094 75.691406 80.585938 75.625 80.242188 75.625 C 80.183594 75.625 79.441406 75.65625 79.089844 75.65625 C 78.960938 75.65625 78.902344 75.636719 78.902344 75.5625 C 78.902344 75.527344 78.921875 75.492188 78.992188 75.492188 C 79.101562 75.492188 79.242188 75.46875 79.347656 75.445312 C 79.585938 75.394531 79.640625 75.136719 79.6875 74.796875 C 79.746094 74.300781 79.746094 73.371094 79.746094 72.242188 L 79.746094 70.167969 "/>
</g>
<g clip-path="url(#clip20)" clip-rule="nonzero">
<path style=" stroke:none;fill-rule:nonzero;fill:rgb(13.729858%,12.159729%,12.548828%);fill-opacity:1;" d="M 91.742188 72.265625 C 91.742188 73.992188 91.789062 74.75 92.003906 74.957031 C 92.191406 75.148438 92.492188 75.230469 93.414062 75.230469 C 94.035156 75.230469 94.550781 75.21875 94.839844 74.875 C 94.992188 74.695312 95.109375 74.394531 95.144531 74.171875 C 95.15625 74.074219 95.179688 74.019531 95.25 74.019531 C 95.308594 74.019531 95.320312 74.0625 95.320312 74.195312 C 95.320312 74.324219 95.238281 75.03125 95.144531 75.375 C 95.066406 75.644531 95.027344 75.691406 94.402344 75.691406 C 92.707031 75.691406 91.929688 75.625 91.25 75.625 C 91.144531 75.625 90.449219 75.65625 90.09375 75.65625 C 89.964844 75.65625 89.90625 75.636719 89.90625 75.5625 C 89.90625 75.527344 89.929688 75.492188 90 75.492188 C 90.105469 75.492188 90.25 75.46875 90.351562 75.445312 C 90.585938 75.394531 90.648438 75.136719 90.695312 74.796875 C 90.753906 74.300781 90.753906 73.371094 90.753906 72.242188 L 90.753906 70.167969 C 90.753906 68.332031 90.753906 68.007812 90.726562 67.625 C 90.707031 67.226562 90.609375 67.042969 90.222656 66.960938 C 90.132812 66.933594 89.929688 66.921875 89.824219 66.921875 C 89.777344 66.921875 89.726562 66.902344 89.726562 66.851562 C 89.726562 66.78125 89.789062 66.757812 89.917969 66.757812 C 90.449219 66.757812 91.191406 66.792969 91.25 66.792969 C 91.304688 66.792969 92.167969 66.757812 92.519531 66.757812 C 92.648438 66.757812 92.707031 66.78125 92.707031 66.851562 C 92.707031 66.902344 92.65625 66.921875 92.609375 66.921875 C 92.53125 66.921875 92.367188 66.933594 92.226562 66.960938 C 91.882812 67.015625 91.789062 67.210938 91.765625 67.625 C 91.742188 68.007812 91.742188 68.332031 91.742188 70.167969 L 91.742188 72.265625 "/>
</g>
<g clip-path="url(#clip21)" clip-rule="nonzero">
<path style=" stroke:none;fill-rule:nonzero;fill:rgb(13.729858%,12.159729%,12.548828%);fill-opacity:1;" d="M 98.628906 71.761719 C 98.59375 71.761719 98.570312 71.738281 98.59375 71.675781 L 99.628906 68.5 C 99.683594 68.320312 99.746094 68.320312 99.804688 68.5 L 100.925781 71.675781 C 100.9375 71.726562 100.9375 71.761719 100.878906 71.761719 Z M 96.980469 74.359375 C 96.769531 74.949219 96.53125 75.394531 95.992188 75.46875 C 95.898438 75.480469 95.730469 75.492188 95.648438 75.492188 C 95.589844 75.492188 95.539062 75.515625 95.539062 75.5625 C 95.539062 75.636719 95.613281 75.65625 95.769531 75.65625 C 96.320312 75.65625 96.96875 75.625 97.097656 75.625 C 97.226562 75.625 97.730469 75.65625 98.019531 75.65625 C 98.125 75.65625 98.195312 75.636719 98.195312 75.5625 C 98.195312 75.515625 98.160156 75.492188 98.078125 75.492188 L 97.960938 75.492188 C 97.757812 75.492188 97.507812 75.386719 97.507812 75.148438 C 97.507812 74.9375 97.566406 74.65625 97.671875 74.359375 L 98.378906 72.273438 C 98.402344 72.21875 98.4375 72.183594 98.496094 72.183594 L 101.03125 72.183594 C 101.089844 72.183594 101.109375 72.207031 101.136719 72.25 L 102.230469 75.148438 C 102.300781 75.335938 102.230469 75.445312 102.15625 75.46875 C 102.109375 75.480469 102.078125 75.503906 102.078125 75.550781 C 102.078125 75.625 102.203125 75.625 102.429688 75.636719 C 103.238281 75.65625 104.101562 75.65625 104.277344 75.65625 C 104.40625 75.65625 104.515625 75.636719 104.515625 75.5625 C 104.515625 75.503906 104.464844 75.492188 104.394531 75.492188 C 104.277344 75.492188 104.101562 75.480469 103.929688 75.421875 C 103.679688 75.351562 103.335938 75.160156 102.914062 74.113281 C 102.191406 72.324219 100.347656 67.460938 100.171875 67.015625 C 100.03125 66.652344 99.984375 66.59375 99.910156 66.59375 C 99.84375 66.59375 99.792969 66.664062 99.652344 67.050781 L 96.980469 74.359375 "/>
</g>
<g clip-path="url(#clip22)" clip-rule="nonzero">
<path style=" stroke:none;fill-rule:nonzero;fill:rgb(13.729858%,12.159729%,12.548828%);fill-opacity:1;" d="M 105.515625 70.167969 C 105.515625 68.332031 105.515625 68.007812 105.488281 67.625 C 105.464844 67.226562 105.371094 67.042969 104.984375 66.960938 C 104.894531 66.933594 104.691406 66.921875 104.585938 66.921875 C 104.535156 66.921875 104.488281 66.902344 104.488281 66.851562 C 104.488281 66.78125 104.550781 66.757812 104.679688 66.757812 C 105.207031 66.757812 105.929688 66.792969 106.03125 66.792969 C 106.136719 66.792969 106.847656 66.757812 107.195312 66.757812 C 107.324219 66.757812 107.382812 66.78125 107.382812 66.851562 C 107.382812 66.902344 107.339844 66.921875 107.289062 66.921875 C 107.207031 66.921875 107.136719 66.933594 106.996094 66.960938 C 106.679688 67.003906 106.585938 67.210938 106.5625 67.625 C 106.539062 68.007812 106.539062 68.332031 106.539062 70.167969 L 106.539062 71.820312 C 106.539062 73.515625 106.914062 74.242188 107.421875 74.726562 C 107.996094 75.269531 108.527344 75.375 109.195312 75.375 C 109.914062 75.375 110.625 75.03125 111.046875 74.527344 C 111.589844 73.855469 111.730469 72.855469 111.730469 71.644531 L 111.730469 70.167969 C 111.730469 68.332031 111.730469 68.007812 111.707031 67.625 C 111.6875 67.226562 111.589844 67.042969 111.195312 66.960938 C 111.105469 66.933594 110.902344 66.921875 110.800781 66.921875 C 110.757812 66.921875 110.707031 66.902344 110.707031 66.851562 C 110.707031 66.78125 110.765625 66.757812 110.894531 66.757812 C 111.421875 66.757812 112.066406 66.792969 112.140625 66.792969 C 112.222656 66.792969 112.777344 66.757812 113.128906 66.757812 C 113.257812 66.757812 113.316406 66.78125 113.316406 66.851562 C 113.316406 66.902344 113.269531 66.921875 113.222656 66.921875 C 113.140625 66.921875 113.070312 66.921875 112.925781 66.960938 C 112.613281 67.015625 112.519531 67.210938 112.492188 67.625 C 112.472656 68.007812 112.472656 68.332031 112.472656 70.167969 L 112.472656 71.429688 C 112.472656 72.707031 112.328125 74.113281 111.390625 74.949219 C 110.539062 75.707031 109.660156 75.820312 108.964844 75.820312 C 108.5625 75.820312 107.371094 75.773438 106.539062 74.980469 C 105.964844 74.429688 105.515625 73.609375 105.515625 71.886719 L 105.515625 70.167969 "/>
</g>
<g clip-path="url(#clip23)" clip-rule="nonzero">
<path style=" stroke:none;fill-rule:nonzero;fill:rgb(13.729858%,12.159729%,12.548828%);fill-opacity:1;" d="M 115.210938 75.503906 C 115.046875 75.421875 115.035156 75.375 115.035156 75.054688 C 115.035156 74.46875 115.082031 73.992188 115.097656 73.808594 C 115.105469 73.679688 115.132812 73.621094 115.1875 73.621094 C 115.261719 73.621094 115.269531 73.65625 115.269531 73.75 C 115.269531 73.855469 115.269531 74.019531 115.308594 74.183594 C 115.484375 75.054688 116.261719 75.386719 117.050781 75.386719 C 118.179688 75.386719 118.730469 74.574219 118.730469 73.820312 C 118.730469 73.007812 118.394531 72.539062 117.378906 71.703125 L 116.847656 71.261719 C 115.605469 70.238281 115.316406 69.511719 115.316406 68.710938 C 115.316406 67.449219 116.261719 66.59375 117.753906 66.59375 C 118.214844 66.59375 118.558594 66.640625 118.851562 66.710938 C 119.070312 66.757812 119.167969 66.769531 119.261719 66.769531 C 119.355469 66.769531 119.382812 66.792969 119.382812 66.851562 C 119.382812 66.910156 119.335938 67.296875 119.335938 68.09375 C 119.335938 68.289062 119.3125 68.367188 119.25 68.367188 C 119.179688 68.367188 119.167969 68.308594 119.15625 68.214844 C 119.144531 68.074219 119.070312 67.757812 119.003906 67.625 C 118.933594 67.5 118.613281 67.003906 117.535156 67.003906 C 116.71875 67.003906 116.082031 67.511719 116.082031 68.367188 C 116.082031 69.039062 116.414062 69.4375 117.523438 70.34375 L 117.847656 70.605469 C 119.238281 71.703125 119.566406 72.429688 119.566406 73.371094 C 119.566406 73.855469 119.382812 74.75 118.566406 75.324219 C 118.0625 75.679688 117.429688 75.820312 116.789062 75.820312 C 116.234375 75.820312 115.695312 75.738281 115.210938 75.503906 "/>
</g>
<g clip-path="url(#clip24)" clip-rule="nonzero">
<path style=" stroke:none;fill-rule:nonzero;fill:rgb(13.729858%,12.159729%,12.548828%);fill-opacity:1;" d="M 123.347656 71.761719 C 123.3125 71.761719 123.289062 71.738281 123.3125 71.675781 L 124.351562 68.5 C 124.40625 68.320312 124.464844 68.320312 124.519531 68.5 L 125.640625 71.675781 C 125.652344 71.726562 125.652344 71.761719 125.59375 71.761719 Z M 121.695312 74.359375 C 121.488281 74.949219 121.253906 75.394531 120.707031 75.46875 C 120.613281 75.480469 120.449219 75.492188 120.371094 75.492188 C 120.3125 75.492188 120.265625 75.515625 120.265625 75.5625 C 120.265625 75.636719 120.335938 75.65625 120.484375 75.65625 C 121.039062 75.65625 121.683594 75.625 121.8125 75.625 C 121.941406 75.625 122.453125 75.65625 122.730469 75.65625 C 122.839844 75.65625 122.90625 75.636719 122.90625 75.5625 C 122.90625 75.515625 122.871094 75.492188 122.792969 75.492188 L 122.671875 75.492188 C 122.476562 75.492188 122.230469 75.386719 122.230469 75.148438 C 122.230469 74.9375 122.289062 74.65625 122.394531 74.359375 L 123.101562 72.273438 C 123.121094 72.21875 123.160156 72.183594 123.21875 72.183594 L 125.746094 72.183594 C 125.804688 72.183594 125.828125 72.207031 125.851562 72.25 L 126.945312 75.148438 C 127.019531 75.335938 126.945312 75.445312 126.878906 75.46875 C 126.828125 75.480469 126.792969 75.503906 126.792969 75.550781 C 126.792969 75.625 126.925781 75.625 127.148438 75.636719 C 127.960938 75.65625 128.816406 75.65625 128.996094 75.65625 C 129.128906 75.65625 129.234375 75.636719 129.234375 75.5625 C 129.234375 75.503906 129.1875 75.492188 129.113281 75.492188 C 128.996094 75.492188 128.816406 75.480469 128.644531 75.421875 C 128.394531 75.351562 128.054688 75.160156 127.628906 74.113281 C 126.910156 72.324219 125.0625 67.460938 124.886719 67.015625 C 124.746094 66.652344 124.695312 66.59375 124.628906 66.59375 C 124.558594 66.59375 124.511719 66.664062 124.371094 67.050781 L 121.695312 74.359375 "/>
</g>
<g clip-path="url(#clip25)" clip-rule="nonzero">
<path style=" stroke:none;fill-rule:nonzero;fill:rgb(13.729858%,12.159729%,12.548828%);fill-opacity:1;" d="M 131.230469 74.050781 C 131.257812 75.019531 131.371094 75.324219 131.691406 75.421875 C 131.917969 75.480469 132.175781 75.492188 132.277344 75.492188 C 132.339844 75.492188 132.375 75.515625 132.375 75.5625 C 132.375 75.636719 132.304688 75.65625 132.164062 75.65625 C 131.488281 75.65625 131.023438 75.625 130.914062 75.625 C 130.808594 75.625 130.3125 75.65625 129.785156 75.65625 C 129.664062 75.65625 129.597656 75.644531 129.597656 75.5625 C 129.597656 75.515625 129.632812 75.492188 129.6875 75.492188 C 129.785156 75.492188 129.996094 75.480469 130.175781 75.421875 C 130.464844 75.335938 130.523438 74.992188 130.523438 73.925781 L 130.535156 67.175781 C 130.535156 66.722656 130.570312 66.59375 130.664062 66.59375 C 130.761719 66.59375 130.964844 66.851562 131.082031 66.96875 C 131.257812 67.167969 133.011719 69.0625 134.820312 71.007812 C 135.988281 72.25 137.269531 73.695312 137.648438 74.074219 L 137.519531 68.09375 C 137.503906 67.332031 137.425781 67.074219 137.0625 66.980469 C 136.847656 66.933594 136.574219 66.921875 136.480469 66.921875 C 136.398438 66.921875 136.386719 66.890625 136.386719 66.84375 C 136.386719 66.769531 136.480469 66.757812 136.621094 66.757812 C 137.152344 66.757812 137.71875 66.792969 137.851562 66.792969 C 137.980469 66.792969 138.363281 66.757812 138.851562 66.757812 C 138.980469 66.757812 139.0625 66.769531 139.0625 66.84375 C 139.0625 66.890625 139.015625 66.921875 138.933594 66.921875 C 138.871094 66.921875 138.789062 66.921875 138.648438 66.960938 C 138.257812 67.042969 138.214844 67.296875 138.214844 68.007812 L 138.1875 74.902344 C 138.1875 75.679688 138.164062 75.738281 138.085938 75.738281 C 137.992188 75.738281 137.851562 75.609375 137.226562 74.980469 C 137.09375 74.863281 135.398438 73.136719 134.148438 71.796875 C 132.785156 70.324219 131.453125 68.84375 131.082031 68.417969 L 131.230469 74.050781 "/>
</g>
<g clip-path="url(#clip26)" clip-rule="nonzero">
<path style=" stroke:none;fill-rule:nonzero;fill:rgb(13.729858%,12.159729%,12.548828%);fill-opacity:1;" d="M 142.378906 74.050781 C 142.402344 75.019531 142.519531 75.324219 142.839844 75.421875 C 143.0625 75.480469 143.320312 75.492188 143.429688 75.492188 C 143.484375 75.492188 143.519531 75.515625 143.519531 75.5625 C 143.519531 75.636719 143.449219 75.65625 143.308594 75.65625 C 142.640625 75.65625 142.164062 75.625 142.0625 75.625 C 141.953125 75.625 141.460938 75.65625 140.933594 75.65625 C 140.8125 75.65625 140.742188 75.644531 140.742188 75.5625 C 140.742188 75.515625 140.78125 75.492188 140.839844 75.492188 C 140.933594 75.492188 141.144531 75.480469 141.316406 75.421875 C 141.613281 75.335938 141.675781 74.992188 141.675781 73.925781 L 141.6875 67.175781 C 141.6875 66.722656 141.722656 66.59375 141.8125 66.59375 C 141.90625 66.59375 142.109375 66.851562 142.226562 66.96875 C 142.402344 67.167969 144.15625 69.0625 145.96875 71.007812 C 147.132812 72.25 148.417969 73.695312 148.796875 74.074219 L 148.667969 68.09375 C 148.652344 67.332031 148.570312 67.074219 148.207031 66.980469 C 147.992188 66.933594 147.722656 66.921875 147.632812 66.921875 C 147.550781 66.921875 147.535156 66.890625 147.535156 66.84375 C 147.535156 66.769531 147.632812 66.757812 147.769531 66.757812 C 148.300781 66.757812 148.863281 66.792969 148.992188 66.792969 C 149.121094 66.792969 149.511719 66.757812 149.992188 66.757812 C 150.121094 66.757812 150.203125 66.769531 150.203125 66.84375 C 150.203125 66.890625 150.160156 66.921875 150.074219 66.921875 C 150.015625 66.921875 149.933594 66.921875 149.796875 66.960938 C 149.40625 67.042969 149.359375 67.296875 149.359375 68.007812 L 149.335938 74.902344 C 149.335938 75.679688 149.3125 75.738281 149.230469 75.738281 C 149.136719 75.738281 148.992188 75.609375 148.371094 74.980469 C 148.238281 74.863281 146.550781 73.136719 145.296875 71.796875 C 143.933594 70.324219 142.605469 68.84375 142.226562 68.417969 L 142.378906 74.050781 "/>
</g>
<g clip-path="url(#clip27)" clip-rule="nonzero">
<path style=" stroke:none;fill-rule:nonzero;fill:rgb(13.729858%,12.159729%,12.548828%);fill-opacity:1;" d="M 153.210938 70.167969 C 153.210938 68.332031 153.210938 68.007812 153.1875 67.625 C 153.160156 67.226562 153.066406 67.042969 152.679688 66.960938 C 152.585938 66.933594 152.386719 66.921875 152.277344 66.921875 C 152.230469 66.921875 152.1875 66.902344 152.1875 66.851562 C 152.1875 66.78125 152.242188 66.757812 152.371094 66.757812 C 152.898438 66.757812 153.644531 66.792969 153.703125 66.792969 C 153.785156 66.792969 156.128906 66.792969 156.398438 66.78125 C 156.621094 66.769531 156.808594 66.746094 156.902344 66.722656 C 156.964844 66.710938 157.011719 66.664062 157.070312 66.664062 C 157.105469 66.664062 157.117188 66.710938 157.117188 66.769531 C 157.117188 66.851562 157.058594 66.992188 157.019531 67.320312 C 157.011719 67.4375 156.984375 67.957031 156.964844 68.09375 C 156.949219 68.15625 156.929688 68.226562 156.878906 68.226562 C 156.808594 68.226562 156.785156 68.167969 156.785156 68.074219 C 156.785156 67.992188 156.769531 67.792969 156.71875 67.652344 C 156.632812 67.460938 156.515625 67.320312 155.878906 67.25 C 155.679688 67.226562 154.398438 67.210938 154.269531 67.210938 C 154.222656 67.210938 154.195312 67.25 154.195312 67.332031 L 154.195312 70.582031 C 154.195312 70.667969 154.210938 70.699219 154.269531 70.699219 C 154.421875 70.699219 155.867188 70.699219 156.140625 70.679688 C 156.425781 70.65625 156.589844 70.632812 156.691406 70.511719 C 156.769531 70.417969 156.820312 70.355469 156.867188 70.355469 C 156.902344 70.355469 156.929688 70.382812 156.929688 70.453125 C 156.929688 70.523438 156.867188 70.726562 156.832031 71.109375 C 156.808594 71.34375 156.785156 71.785156 156.785156 71.863281 C 156.785156 71.957031 156.785156 72.085938 156.703125 72.085938 C 156.644531 72.085938 156.621094 72.039062 156.621094 71.980469 C 156.621094 71.863281 156.621094 71.75 156.574219 71.59375 C 156.527344 71.429688 156.425781 71.230469 155.964844 71.179688 C 155.644531 71.144531 154.480469 71.125 154.28125 71.125 C 154.222656 71.125 154.195312 71.15625 154.195312 71.207031 L 154.195312 72.242188 C 154.195312 72.644531 154.1875 74.007812 154.195312 74.253906 C 154.230469 75.066406 154.410156 75.21875 155.5625 75.21875 C 155.867188 75.21875 156.390625 75.21875 156.691406 75.085938 C 156.996094 74.957031 157.140625 74.726562 157.226562 74.242188 C 157.246094 74.113281 157.269531 74.0625 157.328125 74.0625 C 157.398438 74.0625 157.398438 74.160156 157.398438 74.242188 C 157.398438 74.335938 157.304688 75.136719 157.246094 75.386719 C 157.164062 75.691406 157.070312 75.691406 156.609375 75.691406 C 154.828125 75.691406 154.042969 75.625 153.703125 75.625 C 153.644531 75.625 152.898438 75.65625 152.554688 75.65625 C 152.421875 75.65625 152.363281 75.636719 152.363281 75.5625 C 152.363281 75.527344 152.386719 75.492188 152.453125 75.492188 C 152.5625 75.492188 152.703125 75.46875 152.808594 75.445312 C 153.042969 75.394531 153.101562 75.136719 153.148438 74.796875 C 153.210938 74.300781 153.210938 73.371094 153.210938 72.242188 L 153.210938 70.167969 "/>
</g>
</g>
</svg>
