<?xml version="1.0" encoding="UTF-8"?>
<svg xmlns="http://www.w3.org/2000/svg" xmlns:xlink="http://www.w3.org/1999/xlink" width="842pt" height="595pt" viewBox="0 0 842 595" version="1.1">
<defs>
<clipPath id="clip1">
  <path d="M 11 0.148438 L 831 0.148438 L 831 218 L 11 218 Z M 11 0.148438 "/>
</clipPath>
<clipPath id="clip2">
  <path d="M 11 377 L 831 377 L 831 595 L 11 595 Z M 11 377 "/>
</clipPath>
</defs>
<g id="surface1">
<path style=" stroke:none;fill-rule:nonzero;fill:rgb(18.414307%,18.89801%,39.169312%);fill-opacity:1;" d="M 703.941406 300.539062 C 703.941406 440.046875 577.179688 553.25 420.71875 553.25 C 264.332031 553.25 137.550781 440.046875 137.550781 300.539062 C 137.550781 160.921875 264.332031 47.796875 420.71875 47.796875 C 577.179688 47.796875 703.941406 160.921875 703.941406 300.539062 "/>
<g clip-path="url(#clip1)" clip-rule="nonzero">
<path style=" stroke:none;fill-rule:nonzero;fill:rgb(18.414307%,18.89801%,39.169312%);fill-opacity:1;" d="M 36.65625 212.609375 C 97.214844 144.601562 178.617188 96.40625 257.210938 66.832031 C 335.316406 37.25 418.613281 28.492188 499.839844 42.328125 C 612.386719 61.644531 715.914062 125.089844 804.835938 207.320312 C 820.015625 221.460938 841.574219 196.171875 826.242188 181.945312 C 735.730469 98.296875 633.414062 33.96875 519.664062 10.070312 C 434.105469 -8.054688 346.136719 -0.78125 262.699219 27.292969 C 174.335938 57.070312 82.726562 111.535156 15.269531 187.214844 C 1.09375 203.15625 22.484375 228.445312 36.65625 212.609375 "/>
</g>
<g clip-path="url(#clip2)" clip-rule="nonzero">
<path style=" stroke:none;fill-rule:nonzero;fill:rgb(18.414307%,18.89801%,39.169312%);fill-opacity:1;" d="M 804.835938 382.582031 C 744.210938 450.488281 662.832031 498.683594 584.300781 528.375 C 506.117188 557.839844 422.832031 566.703125 341.652344 552.765625 C 229.125 533.453125 125.601562 470.121094 36.65625 387.761719 C 21.476562 373.722656 -0.0703125 398.917969 15.269531 413.148438 C 105.714844 496.890625 208.082031 561.132812 321.78125 585.125 C 407.328125 603.148438 495.359375 595.988281 578.746094 567.800781 C 667.15625 538.023438 758.765625 483.554688 826.242188 407.980469 C 840.414062 392.046875 819.015625 366.648438 804.835938 382.582031 "/>
</g>
<path style=" stroke:none;fill-rule:nonzero;fill:rgb(95.622253%,42.869568%,8.753967%);fill-opacity:1;" d="M 330.574219 460.359375 C 329.90625 460.359375 329.238281 460.316406 328.582031 460.234375 L 328.578125 460.234375 C 324.597656 459.746094 320.929688 458.183594 317.953125 456.042969 C 314.953125 453.894531 312.554688 451.238281 310.5 448.304688 C 306.414062 442.425781 303.554688 435.355469 300.980469 427.597656 C 295.914062 412.121094 292.179688 393.703125 286.929688 378.660156 C 283.488281 368.648438 279.25 360.265625 274.597656 355.640625 C 271.933594 352.964844 269.382812 351.484375 266.484375 350.796875 C 266.238281 350.738281 266.0625 350.71875 265.894531 350.71875 C 265.328125 350.6875 263.765625 351.066406 261.207031 353.511719 C 258.730469 355.863281 255.832031 359.839844 252.957031 364.636719 C 247.140625 374.261719 241.324219 387.023438 234.929688 397.910156 C 230.585938 405.183594 226.167969 411.726562 220.015625 416.363281 C 216.519531 418.976562 212.023438 421.003906 206.898438 420.996094 C 205.53125 420.996094 204.152344 420.855469 202.800781 420.570312 L 202.804688 420.570312 C 190.796875 417.929688 180.085938 410.335938 171.601562 403.59375 C 163.214844 396.808594 157.433594 390.671875 157.273438 390.511719 C 154.347656 387.402344 154.660156 382.660156 157.980469 379.914062 C 161.296875 377.171875 166.367188 377.46875 169.296875 380.578125 C 169.296875 380.578125 169.566406 380.859375 170.167969 381.476562 C 170.773438 382.085938 171.664062 382.976562 172.800781 384.0625 C 175.078125 386.234375 178.316406 389.1875 182.078125 392.226562 C 189.511719 398.347656 199.4375 404.605469 206.308594 405.917969 C 206.539062 405.96875 206.726562 405.984375 206.898438 405.984375 C 207.566406 406.019531 209.164062 405.605469 211.746094 403.167969 C 214.25 400.8125 217.171875 396.84375 220.058594 392.054688 C 225.902344 382.4375 231.714844 369.6875 238.074219 358.804688 C 242.386719 351.542969 246.753906 345.007812 252.84375 340.367188 C 256.308594 337.757812 260.773438 335.703125 265.894531 335.707031 C 267.390625 335.707031 268.898438 335.882812 270.367188 336.226562 C 278.828125 338.195312 285.320312 343.457031 290.082031 349.734375 C 294.894531 356.054688 298.378906 363.59375 301.34375 371.683594 C 307.21875 387.832031 310.992188 406.429688 315.640625 421.113281 C 318.648438 430.875 322.292969 438.816406 325.773438 442.410156 C 327.652344 444.367188 328.992188 445.046875 330.417969 445.308594 C 330.582031 445.210938 330.867188 445.015625 331.242188 444.675781 C 332.292969 443.75 333.890625 441.703125 335.5 438.710938 C 338.78125 432.714844 342.214844 423.113281 345.414062 411.128906 C 351.855469 387.117188 357.601562 353.453125 362.886719 316.617188 C 373.484375 242.863281 382.273438 156.429688 392.484375 105.371094 C 395.429688 90.726562 398.417969 79.027344 401.957031 70.714844 C 403.941406 66.269531 405.789062 62.691406 409.40625 59.664062 C 411.265625 58.144531 414.085938 56.742188 417.378906 56.726562 L 417.371094 56.726562 C 417.402344 56.726562 417.445312 56.726562 417.503906 56.726562 C 422.328125 56.730469 426.289062 59.046875 429.03125 61.667969 C 431.855469 64.347656 434.019531 67.59375 436.078125 71.421875 C 440.132812 79.070312 443.640625 89.214844 447.035156 101.574219 C 453.789062 126.242188 459.882812 159.648438 465.785156 196.203125 C 477.550781 269.226562 488.523438 354.914062 501.03125 405.027344 C 504.566406 419.289062 508.304688 430.675781 511.808594 437.480469 C 513.21875 440.308594 514.671875 442.28125 515.578125 443.242188 C 516.410156 442.484375 517.617188 441.070312 518.90625 439.144531 C 521.597656 435.15625 524.671875 429.074219 527.769531 421.972656 C 534.015625 407.734375 540.539062 389.402344 547.238281 373.273438 C 551.734375 362.492188 556.234375 352.722656 561.238281 345.308594 C 564.160156 341.078125 567.132812 337.488281 571.417969 334.914062 C 573.699219 333.566406 576.550781 332.546875 579.710938 332.519531 L 579.707031 332.519531 C 579.753906 332.519531 579.792969 332.519531 579.839844 332.519531 C 583.148438 332.527344 586.070312 333.539062 588.496094 334.855469 C 590.941406 336.195312 593.027344 337.867188 595.023438 339.753906 C 598.976562 343.523438 602.578125 348.21875 606.238281 353.441406 C 613.5 363.847656 620.878906 376.410156 628.121094 386.238281 C 632.890625 392.777344 637.734375 398.023438 641.367188 400.320312 C 643.441406 401.667969 644.828125 401.976562 645.558594 401.964844 C 645.632812 401.964844 645.695312 401.960938 645.769531 401.957031 C 645.902344 402.035156 648.03125 401.378906 650.496094 399.585938 C 652.988281 397.84375 655.875 395.238281 658.597656 392.429688 C 664.070312 386.792969 668.9375 380.347656 670.742188 377.859375 C 671.261719 377.148438 671.507812 376.792969 671.507812 376.792969 C 673.933594 373.320312 678.898438 372.347656 682.601562 374.609375 C 686.3125 376.878906 687.355469 381.53125 684.9375 385.003906 C 684.851562 385.113281 682.042969 389.148438 677.789062 394.292969 C 673.519531 399.445312 667.921875 405.6875 661.683594 410.449219 C 657.464844 413.546875 653.0625 416.375 646.949219 416.929688 C 646.480469 416.957031 646.019531 416.976562 645.558594 416.976562 C 639.03125 416.929688 633.707031 414.027344 629.230469 410.488281 C 624.707031 406.882812 620.703125 402.324219 616.804688 397.265625 C 609.0625 387.160156 601.8125 374.941406 595.082031 364.960938 C 590.648438 358.328125 586.339844 352.691406 583.058594 349.785156 C 581.648438 348.484375 580.476562 347.828125 579.972656 347.609375 C 579.867188 347.667969 579.730469 347.753906 579.574219 347.867188 C 578.816406 348.390625 577.5625 349.589844 576.203125 351.375 C 573.4375 354.945312 570.226562 360.726562 567.039062 367.601562 C 560.605469 381.402344 554.042969 399.621094 547.527344 415.867188 C 543.15625 426.730469 538.855469 436.695312 534.253906 444.347656 C 531.566406 448.722656 528.917969 452.40625 525.210938 455.292969 C 523.226562 456.800781 520.773438 458.144531 517.691406 458.628906 C 516.976562 458.734375 516.242188 458.792969 515.515625 458.792969 C 510.589844 458.777344 506.691406 456.320312 504.050781 453.671875 C 501.324219 450.945312 499.25 447.671875 497.265625 443.808594 C 493.359375 436.085938 489.96875 425.816406 486.660156 413.304688 C 480.09375 388.324219 474.101562 354.503906 468.238281 317.570312 C 456.546875 243.804688 445.339844 157.511719 432.285156 108.210938 C 428.605469 94.183594 424.667969 83.140625 421.070312 76.925781 C 420.125 75.230469 419.179688 73.941406 418.421875 73.0625 C 417.78125 74.1875 417.027344 75.75 416.28125 77.652344 C 413.8125 83.84375 411.222656 93.589844 408.742188 105.675781 C 403.75 129.890625 399.011719 163.640625 394.230469 200.554688 C 384.636719 274.476562 374.910156 360.925781 361.636719 412.226562 C 357.796875 426.945312 353.777344 438.765625 348.804688 447.261719 C 346.089844 451.777344 343.179688 455.550781 338.703125 458.160156 C 336.417969 459.472656 333.582031 460.359375 330.632812 460.359375 C 330.613281 460.359375 330.59375 460.359375 330.574219 460.359375 "/>
<path style=" stroke:none;fill-rule:nonzero;fill:rgb(59.611511%,56.430054%,81.44989%);fill-opacity:1;" d="M 248.460938 205.308594 L 248.460938 356.195312 L 340.917969 356.195312 C 348.269531 356.195312 353.976562 357.769531 357.898438 361.074219 C 361.816406 364.355469 363.804688 368.496094 363.804688 373.492188 C 363.804688 378.582031 361.863281 382.722656 357.941406 385.914062 C 354.0625 388.992188 348.378906 390.59375 340.917969 390.59375 L 230.785156 390.59375 C 220.859375 390.59375 213.710938 388.566406 209.355469 384.542969 C 204.972656 380.5 202.828125 373.917969 202.828125 364.90625 L 202.828125 205.308594 C 202.828125 196.945312 204.914062 190.558594 209.042969 186.324219 C 213.183594 182.058594 218.65625 179.949219 225.40625 179.949219 C 232.242188 179.949219 237.84375 182.058594 242.070312 186.207031 C 246.3125 190.453125 248.460938 196.832031 248.460938 205.308594 "/>
<path style="fill:none;stroke-width:1.869;stroke-linecap:butt;stroke-linejoin:miter;stroke:rgb(18.414307%,18.89801%,39.169312%);stroke-opacity:1;stroke-miterlimit:4;" d="M 232.449333 379.867279 L 232.449333 232.784417 L 322.575521 232.784417 C 329.74175 232.784417 335.304907 231.249884 339.124104 228.028508 C 342.947108 224.829978 344.885265 220.793739 344.885265 215.923596 C 344.885265 210.962068 342.992801 206.925828 339.169797 203.814877 C 335.388678 200.814352 329.848368 199.253165 322.575521 199.253165 L 215.219158 199.253165 C 205.543606 199.253165 198.575381 201.229399 194.329714 205.151406 C 190.057392 209.092451 187.966924 215.508549 187.966924 224.293082 L 187.966924 379.867279 C 187.966924 388.019721 190.000275 394.245431 194.025092 398.373057 C 198.061332 402.531146 203.396022 404.587343 209.975854 404.587343 C 216.639458 404.587343 222.099805 402.531146 226.219816 398.48729 C 230.355058 394.348241 232.449333 388.130147 232.449333 379.867279 Z M 232.449333 379.867279 " transform="matrix(1.025862,0,0,-1.025862,10,595)"/>
<path style=" stroke:none;fill-rule:nonzero;fill:rgb(59.611511%,56.430054%,81.44989%);fill-opacity:1;" d="M 490.339844 218.066406 L 439.164062 218.066406 L 439.164062 368.613281 C 439.164062 377.203125 437.019531 383.683594 432.722656 387.828125 C 428.351562 392.074219 422.789062 394.183594 415.945312 394.183594 C 409 394.183594 403.308594 392.074219 398.957031 387.828125 C 394.609375 383.589844 392.402344 377.097656 392.402344 368.613281 L 392.402344 218.066406 L 341.226562 218.066406 C 333.214844 218.066406 327.246094 216.460938 323.378906 213.382812 C 319.441406 210.195312 317.507812 206.054688 317.507812 200.867188 C 317.507812 195.433594 319.554688 191.199219 323.597656 188.117188 C 327.613281 185.03125 333.546875 183.445312 341.226562 183.445312 L 490.339844 183.445312 C 498.460938 183.445312 504.492188 185.03125 508.476562 188.234375 C 512.441406 191.515625 514.375 195.648438 514.375 200.867188 C 514.375 206.054688 512.375 210.195312 508.410156 213.382812 C 504.378906 216.460938 498.371094 218.066406 490.339844 218.066406 "/>
<path style="fill:none;stroke-width:1.869;stroke-linecap:butt;stroke-linejoin:miter;stroke:rgb(18.414307%,18.89801%,39.169312%);stroke-opacity:1;stroke-miterlimit:4;" d="M 468.230467 367.431091 L 418.344829 367.431091 L 418.344829 220.679505 C 418.344829 212.306212 416.254361 205.989116 412.06581 201.949068 C 407.804912 197.810019 402.382643 195.753821 395.711424 195.753821 C 388.941203 195.753821 383.393277 197.810019 379.151417 201.949068 C 374.913366 206.080502 372.761974 212.409022 372.761974 220.679505 L 372.761974 367.431091 L 322.876335 367.431091 C 315.066592 367.431091 309.248314 368.996086 305.478618 371.996611 C 301.640383 375.103754 299.755535 379.139994 299.755535 384.196717 C 299.755535 389.49333 301.750808 393.620956 305.691854 396.625289 C 309.606245 399.63343 315.390252 401.179386 322.876335 401.179386 L 468.230467 401.179386 C 476.146828 401.179386 482.02603 399.63343 485.909959 396.511056 C 489.774849 393.312526 491.659697 389.283902 491.659697 384.196717 C 491.659697 379.139994 489.710117 375.103754 485.845227 371.996611 C 481.915605 368.996086 476.059249 367.431091 468.230467 367.431091 Z M 468.230467 367.431091 " transform="matrix(1.025862,0,0,-1.025862,10,595)"/>
<path style=" stroke:none;fill-rule:nonzero;fill:rgb(59.611511%,56.430054%,81.44989%);fill-opacity:1;" d="M 667.722656 328.492188 C 667.722656 341.003906 664.816406 352.261719 659.007812 362.246094 C 653.1875 372.21875 644.628906 379.96875 633.394531 385.6875 C 622.203125 391.332031 608.882812 394.183594 593.480469 394.183594 C 575.023438 394.183594 559.804688 390.257812 547.824219 382.515625 C 539.320312 377.003906 532.425781 369.5625 527.132812 360.332031 C 521.789062 350.984375 519.15625 341.957031 519.15625 333.242188 C 519.15625 328.152344 520.757812 323.800781 523.917969 320.183594 C 527.132812 316.597656 531.160156 314.777344 536.117188 314.777344 C 540.097656 314.777344 543.492188 316.171875 546.226562 319.035156 C 549 321.789062 551.386719 326.046875 553.335938 331.542969 C 555.6875 338.128906 558.296875 343.652344 561.019531 348.105469 C 563.796875 352.484375 567.691406 356.195312 572.699219 359.0625 C 577.734375 361.910156 584.316406 363.296875 592.476562 363.296875 C 603.722656 363.296875 612.820312 360.429688 619.820312 354.703125 C 626.84375 348.867188 630.355469 341.648438 630.355469 332.941406 C 630.355469 326.046875 628.453125 320.515625 624.671875 316.265625 C 620.898438 311.90625 615.996094 308.625 610.003906 306.394531 C 604.015625 304.15625 595.984375 301.714844 585.96875 299.179688 C 572.519531 295.660156 561.289062 291.640625 552.253906 286.945312 C 543.191406 282.28125 535.988281 275.917969 530.695312 267.859375 C 525.351562 259.894531 522.707031 249.800781 522.707031 237.910156 C 522.707031 226.453125 525.53125 216.367188 531.136719 207.445312 C 536.710938 198.617188 544.867188 191.832031 555.507812 187.0625 C 566.09375 182.277344 578.636719 179.949219 593.007812 179.949219 C 604.457031 179.949219 614.394531 181.53125 622.773438 184.617188 C 631.15625 187.808594 638.082031 192.050781 643.644531 197.25 C 649.144531 202.449219 653.1875 207.976562 655.746094 213.71875 C 658.308594 219.433594 659.574219 225.058594 659.574219 230.488281 C 659.574219 235.46875 657.945312 240.035156 654.800781 243.957031 C 651.570312 248.003906 647.621094 250.015625 642.863281 250.015625 C 638.511719 250.015625 635.214844 248.835938 632.953125 246.398438 C 630.710938 243.957031 628.285156 240.035156 625.628906 234.625 C 622.242188 226.777344 618.164062 220.726562 613.386719 216.367188 C 608.609375 211.898438 600.984375 209.785156 590.4375 209.785156 C 580.679688 209.785156 572.78125 212.113281 566.789062 216.898438 C 560.75 221.660156 557.765625 227.398438 557.765625 234.09375 C 557.765625 238.238281 558.808594 241.730469 560.851562 244.816406 C 562.886719 247.789062 565.703125 250.441406 569.265625 252.574219 C 572.828125 254.695312 576.46875 256.375 580.109375 257.664062 C 583.75 258.835938 589.792969 260.632812 598.207031 262.980469 C 608.738281 265.726562 618.292969 268.816406 626.84375 272.097656 C 635.398438 275.390625 642.679688 279.320312 648.683594 284.101562 C 654.65625 288.769531 659.34375 294.730469 662.6875 301.933594 C 666.027344 309.148438 667.722656 317.957031 667.722656 328.492188 "/>
<path style="fill:none;stroke-width:1.869;stroke-linecap:butt;stroke-linejoin:miter;stroke:rgb(18.414307%,18.89801%,39.169312%);stroke-opacity:1;stroke-miterlimit:4;" d="M 641.141456 259.789146 C 641.141456 247.592848 638.308473 236.618845 632.646314 226.886176 C 626.972731 217.161123 618.6299 209.610308 607.678744 204.035728 C 596.769473 198.533495 583.784966 195.753821 568.770915 195.753821 C 550.779186 195.753821 535.944101 199.580633 524.26566 207.12764 C 515.976138 212.500408 509.255418 219.754216 504.095885 228.751985 C 498.886851 237.863987 496.320412 246.663751 496.320412 255.158893 C 496.320412 260.120422 497.881599 264.362281 500.962087 267.88828 C 504.095885 271.383816 508.021699 273.158238 512.853763 273.158238 C 516.733885 273.158238 520.04284 271.798863 522.708281 269.007765 C 525.4118 266.323285 527.73835 262.172812 529.638428 256.815275 C 531.930708 250.395369 534.474301 245.011177 537.128319 240.670316 C 539.835646 236.401802 543.631996 232.784417 548.513561 229.989511 C 553.421781 227.213644 559.837879 225.861885 567.792318 225.861885 C 578.754897 225.861885 587.623201 228.656791 594.446731 234.238986 C 601.293108 239.9278 604.716296 246.964565 604.716296 255.452092 C 604.716296 262.172812 602.858103 267.564619 599.175986 271.707476 C 595.497677 275.956951 590.718921 279.155481 584.877797 281.32972 C 579.04048 283.511574 571.211698 285.891432 561.448567 288.362677 C 548.338403 291.793481 537.391055 295.71168 528.583675 300.288623 C 519.749641 304.835105 512.728107 311.037967 507.568574 318.893404 C 502.35954 326.657454 499.781678 336.49674 499.781678 348.087602 C 499.781678 359.255801 502.534698 369.087472 507.998852 377.784427 C 513.432545 386.389994 521.383176 393.004097 531.75555 397.653388 C 542.074616 402.31791 554.301377 404.587343 568.310175 404.587343 C 579.470758 404.587343 589.157734 403.045195 597.325408 400.037054 C 605.496889 396.926103 612.248072 392.790861 617.670341 387.722715 C 623.031686 382.654569 626.972731 377.266569 629.466823 371.669143 C 631.964722 366.09837 633.198441 360.615177 633.198441 355.322372 C 633.198441 350.467461 631.610599 346.016173 628.545342 342.193169 C 625.396313 338.248316 621.546654 336.287313 616.908786 336.287313 C 612.666927 336.287313 609.453166 337.43726 607.248465 339.813311 C 605.062803 342.193169 602.698176 346.016173 600.10889 351.28994 C 596.807551 358.939756 592.832235 364.837997 588.175328 369.087472 C 583.518422 373.443565 576.085648 375.50357 565.80466 375.50357 C 556.292842 375.50357 548.593524 373.234137 542.7524 368.569615 C 536.865582 363.927939 533.956443 358.33432 533.956443 351.807797 C 533.956443 347.767749 534.973119 344.3636 536.964584 341.355459 C 538.948434 338.457743 541.693839 335.872265 545.166528 333.793221 C 548.639218 331.7256 552.188062 330.088257 555.736907 328.831692 C 559.285752 327.68936 565.176377 325.937785 573.378321 323.649313 C 583.644078 320.972448 592.957892 317.960499 601.293108 314.76197 C 609.632131 311.552017 616.729821 307.721397 622.582369 303.060682 C 628.404454 298.510393 632.973782 292.699731 636.233236 285.678197 C 639.488882 278.645239 641.141456 270.05871 641.141456 259.789146 Z M 641.141456 259.789146 " transform="matrix(1.025862,0,0,-1.025862,10,595)"/>
<path style=" stroke:none;fill-rule:nonzero;fill:rgb(95.622253%,42.869568%,8.753967%);fill-opacity:1;" d="M 678.039062 383.417969 C 674.167969 381.398438 672.785156 376.828125 674.941406 373.203125 C 676.1875 371.109375 678.039062 369.617188 679.8125 368.664062 C 681.605469 367.695312 683.382812 367.148438 685.160156 366.753906 C 688.714844 365.992188 692.417969 365.808594 696.574219 365.796875 C 709.59375 365.824219 727.265625 367.910156 744.785156 367.898438 C 756.484375 367.910156 767.988281 366.949219 777.316406 364.152344 C 786.71875 361.316406 793.648438 356.988281 798.0625 350.097656 C 801.019531 345.453125 802.988281 339.386719 803.265625 331.03125 C 803.285156 330.40625 803.292969 329.796875 803.292969 329.207031 C 803.300781 321.890625 801.816406 317.160156 799.929688 314.261719 C 798.308594 311.800781 796.460938 310.375 793.8125 309.253906 C 791.175781 308.160156 787.636719 307.550781 783.335938 307.550781 C 774.378906 307.519531 762.535156 310.273438 750.789062 313.960938 C 739 317.628906 727.273438 322.121094 717.523438 325.257812 C 710.917969 327.320312 705.515625 328.9375 699.960938 329.019531 C 697.855469 329 695.503906 328.785156 692.914062 327.480469 C 690.296875 326.242188 687.980469 323.347656 687.433594 320.636719 C 686.253906 315.742188 683.339844 307.65625 680.703125 299.367188 C 678.085938 290.976562 675.605469 282.484375 675.542969 274.804688 C 675.574219 271.597656 675.9375 268.355469 677.796875 265.050781 C 679.542969 261.714844 683.722656 258.792969 688.003906 258.296875 C 696.703125 257.011719 711.113281 256.28125 726.867188 255.785156 C 742.554688 255.304688 759.339844 255.117188 771.871094 255.117188 C 772.292969 255.117188 772.714844 255.117188 773.125 255.121094 C 773.144531 255.121094 773.164062 255.121094 773.183594 255.121094 C 780.988281 255.121094 783.84375 253.464844 784.511719 252.867188 C 785.148438 252.292969 785.035156 252.148438 785.109375 251.675781 C 785.109375 251.605469 785.105469 251.546875 785.097656 251.507812 C 784.140625 247.59375 786.652344 243.636719 790.828125 242.582031 C 795.105469 241.503906 799.503906 243.875 800.65625 247.875 C 800.78125 248.339844 801.136719 249.675781 801.144531 251.675781 C 801.210938 254.753906 800.035156 260.082031 795.15625 264.09375 C 790.296875 268.085938 783.183594 270.132812 773.183594 270.136719 C 773.15625 270.136719 773.132812 270.136719 773.109375 270.136719 C 772.703125 270.132812 772.289062 270.132812 771.871094 270.132812 C 759.503906 270.132812 742.847656 270.316406 727.386719 270.789062 C 712.808594 271.226562 699.082031 271.972656 691.707031 272.953125 C 691.636719 273.40625 691.574219 274.035156 691.574219 274.804688 C 691.515625 279.1875 693.527344 287.203125 696.070312 295.09375 C 698.148438 301.652344 700.488281 308.1875 702.117188 313.78125 C 704.445312 313.375 708.148438 312.433594 712.324219 311.058594 C 718.347656 309.125 725.679688 306.449219 733.554688 303.730469 C 749.378906 298.339844 767.152344 292.617188 783.335938 292.539062 C 789.171875 292.546875 794.917969 293.320312 800.261719 295.507812 C 805.585938 297.667969 810.398438 301.402344 813.65625 306.5 C 817.53125 312.53125 819.320312 320.082031 819.328125 329.207031 C 819.328125 329.949219 819.3125 330.703125 819.289062 331.46875 C 818.976562 341.835938 816.398438 350.644531 811.828125 357.789062 C 807.289062 364.949219 800.828125 370.265625 793.582031 373.953125 C 779.03125 381.324219 761.5625 382.863281 744.785156 382.914062 C 726.074219 382.894531 707.839844 380.789062 696.574219 380.8125 C 692.503906 380.761719 689.332031 381.1875 688.246094 381.507812 C 686.695312 383.351562 684.347656 384.371094 681.9375 384.371094 C 680.617188 384.371094 679.273438 384.0625 678.039062 383.417969 "/>
</g>
</svg>
