<svg version="1.1" viewBox="0.0 0.0 462.9133858267717 125.74015748031496" fill="none" stroke="none" stroke-linecap="square" stroke-miterlimit="10" xmlns:xlink="http://www.w3.org/1999/xlink" xmlns="http://www.w3.org/2000/svg"><clipPath id="p.0"><path d="m0 0l462.9134 0l0 125.74016l-462.9134 0l0 -125.74016z" clip-rule="nonzero"/></clipPath><g clip-path="url(#p.0)"><path fill="#000000" fill-opacity="0.0" d="m0 0l462.9134 0l0 125.74016l-462.9134 0z" fill-rule="evenodd"/><path fill="#cfe2f3" d="m12.015748 12.813648l117.732285 0l0 29.637794l-117.732285 0z" fill-rule="evenodd"/><path stroke="#1155cc" stroke-width="1.0" stroke-linejoin="round" stroke-linecap="butt" d="m12.015748 12.813648l117.732285 0l0 29.637794l-117.732285 0z" fill-rule="evenodd"/><path fill="#0b5394" d="m34.2016 22.177544q0 -0.375 0.0625 -0.5q0.078125 -0.125 0.34375 -0.15625q0.28125 -0.03125 1.109375 -0.03125l0 12.765625q0 0.171875 -0.078125 0.234375q-0.0625 0.046875 -0.4375 0.0625q-0.375 0 -1.0 0l0 -12.375zm9.981033 2.859375q0.890625 0 1.34375 0.296875q0.453125 0.296875 0.59375 0.859375q0.15625 0.546875 0.15625 1.46875l0 6.59375q0 0.171875 -0.078125 0.234375q-0.0625 0.046875 -0.4375 0.0625q-0.375 0 -0.984375 0l0 -6.90625q0 -0.71875 -0.1875 -1.0q-0.171875 -0.28125 -0.734375 -0.28125q-0.6875 0 -1.265625 0.359375l0 7.53125q0 0.171875 -0.0625 0.234375q-0.0625 0.046875 -0.421875 0.0625q-0.359375 0 -0.984375 0l-0.015625 0l0 -6.9375q0 -0.53125 -0.0625 -0.78125q-0.0625 -0.25 -0.265625 -0.359375q-0.1875 -0.125 -0.609375 -0.125q-0.671875 0 -1.265625 0.328125l0 7.578125q0 0.171875 -0.078125 0.234375q-0.078125 0.046875 -0.453125 0.0625q-0.375 0 -0.984375 0l0 -8.90625q1.359375 -0.609375 2.8125 -0.609375q1.15625 0 1.703125 0.578125q0.46875 -0.265625 1.09375 -0.421875q0.625 -0.15625 1.1875 -0.15625zm5.9596252 9.703125q-1.1875 0 -1.875 -0.5625q-0.671875 -0.578125 -0.671875 -2.28125q0 -1.765625 0.671875 -2.40625q0.6875 -0.640625 1.828125 -0.640625q0.875 0 1.359375 0.234375l0 -1.46875q0 -0.640625 -0.28125 -0.875q-0.28125 -0.25 -0.875 -0.25q-0.671875 0 -1.375 0.125q-0.6875 0.125 -1.109375 0.3125q-0.203125 -0.390625 -0.203125 -0.875q0 -0.375 0.203125 -0.515625q0.28125 -0.1875 1.078125 -0.34375q0.8125 -0.15625 1.78125 -0.15625q1.203125 0 1.734375 0.53125q0.546875 0.515625 0.546875 1.75l0 0.984375q0 4.109375 -0.109375 5.796875q-0.4375 0.28125 -1.140625 0.453125q-0.6875 0.1875 -1.5625 0.1875zm0.265625 -1.265625q0.296875 0 0.578125 -0.09375q0.28125 -0.09375 0.40625 -0.203125q0.0625 -0.640625 0.0625 -3.03125q-0.359375 -0.1875 -0.875 -0.1875q-0.671875 0 -1.046875 0.390625q-0.375 0.390625 -0.375 1.515625q0 0.953125 0.296875 1.28125q0.3125 0.328125 0.953125 0.328125zm7.760559 -0.453125q1.234375 0.1875 1.859375 0.671875q0.625 0.46875 0.625 1.5q0 1.296875 -0.921875 2.15625q-0.90625 0.875 -2.65625 0.875q-1.71875 0 -2.359375 -0.578125q-0.640625 -0.5625 -0.640625 -1.453125q0 -0.640625 0.390625 -1.234375q0.40625 -0.578125 1.046875 -1.015625q-1.171875 -0.328125 -1.15625 -1.015625q0 -0.75 1.1875 -1.671875q-1.15625 -0.75 -1.15625 -2.796875q0 -1.78125 0.828125 -2.59375q0.828125 -0.828125 2.28125 -0.828125q0.421875 0 0.9375 0.15625l2.21875 0q0.140625 0.25 0.140625 0.703125q0 0.578125 -0.515625 0.578125q-0.25 0 -0.671875 -0.09375q0.703125 0.703125 0.703125 2.03125q0 1.546875 -0.734375 2.40625q-0.71875 0.859375 -2.28125 0.859375q-0.484375 0 -0.84375 -0.078125q-0.5 0.515625 -0.5 0.828125q0 0.21875 0.46875 0.328125q0.46875 0.09375 1.75 0.265625zm-0.734375 -6.875q-0.671875 0 -1.078125 0.546875q-0.390625 0.546875 -0.390625 1.71875q0 1.078125 0.28125 1.59375q0.296875 0.515625 1.140625 0.515625q0.71875 0 1.0625 -0.609375q0.359375 -0.625 0.359375 -1.859375q0 -1.0 -0.34375 -1.453125q-0.328125 -0.453125 -1.03125 -0.453125zm-0.234375 10.703125q0.9375 0 1.421875 -0.453125q0.5 -0.4375 0.5 -1.0q0 -0.4375 -0.1875 -0.671875q-0.1875 -0.234375 -0.640625 -0.34375q-0.4375 -0.125 -1.28125 -0.1875l-0.375 -0.03125q-0.421875 0.328125 -0.71875 0.78125q-0.28125 0.453125 -0.28125 0.890625q0 0.515625 0.328125 0.765625q0.34375 0.25 1.234375 0.25zm7.6630707 -3.5625q1.125 0 2.125 -0.59375q0.140625 0.40625 0.140625 1.015625q0 0.4375 -0.765625 0.734375q-0.75 0.296875 -1.8125 0.296875q-0.953125 0 -1.59375 -0.34375q-0.640625 -0.359375 -1.015625 -1.3125q-0.375 -0.953125 -0.375 -2.703125q0 -2.1875 0.453125 -3.359375q0.453125 -1.1875 1.15625 -1.578125q0.71875 -0.40625 1.6875 -0.40625q2.375 0 2.375 2.984375q0 1.5 -0.203125 2.421875q-0.828125 0.171875 -1.921875 0.234375q-1.09375 0.0625 -2.0 0.0625q0.03125 1.015625 0.21875 1.5625q0.203125 0.53125 0.5625 0.765625q0.375 0.21875 0.96875 0.21875zm-0.171875 -6.921875q-0.671875 0 -1.078125 0.703125q-0.40625 0.6875 -0.484375 2.484375q1.84375 0 2.5625 -0.21875q0.09375 -0.4375 0.09375 -1.125q-0.03125 -1.046875 -0.25 -1.4375q-0.21875 -0.40625 -0.84375 -0.40625zm10.385727 -5.671875q0.046875 -0.203125 0.140625 -0.28125q0.109375 -0.078125 0.421875 -0.09375q0.3125 -0.03125 1.09375 -0.03125l-4.203125 14.265625q-0.046875 0.1875 -0.15625 0.25q-0.109375 0.078125 -0.40625 0.09375q-0.296875 0.03125 -1.09375 0.03125l4.203125 -14.234375zm8.444504 14.046875q-1.0 0 -1.671875 -0.4375q-0.65625 -0.4375 -1.046875 -1.78125q-0.375 -1.359375 -0.375 -3.953125q0 -2.96875 0.53125 -4.5625q0.546875 -1.609375 1.34375 -2.15625q0.796875 -0.546875 1.796875 -0.546875q0.9375 0 1.34375 0.296875q0.40625 0.296875 0.40625 0.734375q0 0.5 -0.234375 0.90625q-0.578125 -0.453125 -1.21875 -0.453125q-0.6875 0 -1.21875 0.4375q-0.515625 0.4375 -0.84375 1.6875q-0.328125 1.25 -0.328125 3.578125q0 1.828125 0.21875 2.84375q0.234375 1.0 0.640625 1.375q0.421875 0.375 1.015625 0.375q0.515625 0 0.984375 -0.171875q0.46875 -0.1875 0.75 -0.4375q0.21875 0.5 0.21875 0.921875q0 0.5625 -0.65625 0.953125q-0.640625 0.390625 -1.65625 0.390625zm6.143036 0q-1.046875 0 -1.671875 -0.34375q-0.609375 -0.359375 -0.9375 -1.40625q-0.328125 -1.0625 -0.328125 -3.109375q0 -4.84375 3.125 -4.84375q1.015625 0 1.625 0.421875q0.625 0.421875 0.9375 1.484375q0.328125 1.046875 0.328125 2.90625q0 2.53125 -0.78125 3.71875q-0.765625 1.171875 -2.296875 1.171875zm0.03125 -1.265625q0.671875 0 1.03125 -0.78125q0.375 -0.796875 0.375 -2.84375q0 -1.453125 -0.140625 -2.21875q-0.140625 -0.765625 -0.421875 -1.046875q-0.28125 -0.28125 -0.75 -0.28125q-0.6875 0 -1.0625 0.796875q-0.359375 0.78125 -0.359375 2.828125q0 1.484375 0.140625 2.25q0.15625 0.765625 0.4375 1.03125q0.28125 0.265625 0.75 0.265625zm4.4053802 -11.9375q0 -0.359375 0.109375 -0.5q0.125 -0.140625 0.40625 -0.171875q0.28125 -0.03125 1.0 -0.03125l0 13.421875q0 0.171875 -0.078125 0.234375q-0.078125 0.046875 -0.4375 0.0625q-0.359375 0 -1.0 0l0 -13.015625zm5.805664 13.203125q-1.046875 0 -1.671875 -0.34375q-0.609375 -0.359375 -0.9375 -1.40625q-0.328125 -1.0625 -0.328125 -3.109375q0 -4.84375 3.125 -4.84375q1.015625 0 1.625 0.421875q0.625 0.421875 0.9375 1.484375q0.328125 1.046875 0.328125 2.90625q0 2.53125 -0.78125 3.71875q-0.765625 1.171875 -2.296875 1.171875zm0.03125 -1.265625q0.671875 0 1.03125 -0.78125q0.375 -0.796875 0.375 -2.84375q0 -1.453125 -0.140625 -2.21875q-0.140625 -0.765625 -0.421875 -1.046875q-0.28125 -0.28125 -0.75 -0.28125q-0.6875 0 -1.0625 0.796875q-0.359375 0.78125 -0.359375 2.828125q0 1.484375 0.140625 2.25q0.15625 0.765625 0.4375 1.03125q0.28125 0.265625 0.75 0.265625zm4.3897552 -7.59375q1.1875 -0.84375 2.53125 -0.84375q0.6875 0 1.0 0.203125q0.3125 0.1875 0.3125 0.578125q0 0.46875 -0.171875 0.875q-0.390625 -0.21875 -0.890625 -0.21875q-0.734375 0 -1.234375 0.421875l-0.015625 7.359375q0 0.171875 -0.078125 0.234375q-0.078125 0.046875 -0.453125 0.0625q-0.375 0 -1.0 0l0 -8.671875z" fill-rule="nonzero"/><path fill="#d9ead3" d="m12.015748 46.435696l117.732285 0l0 29.637798l-117.732285 0z" fill-rule="evenodd"/><path stroke="#38761d" stroke-width="1.0" stroke-linejoin="round" stroke-linecap="butt" d="m12.015748 46.435696l117.732285 0l0 29.637798l-117.732285 0z" fill-rule="evenodd"/><path fill="#38761d" d="m54.891396 55.471466q0 -0.1875 0.109375 -0.265625q0.109375 -0.09375 0.390625 -0.09375l1.828125 0q1.265625 0 2.046875 0.53125q0.78125 0.53125 1.1875 1.8125q0.40625 1.28125 0.40625 3.515625q0 2.6875 -0.421875 4.265625q-0.421875 1.578125 -1.234375 2.265625q-0.796875 0.671875 -1.984375 0.671875l-2.328125 0l0 -12.703125zm2.359375 11.265625q0.5625 0 0.96875 -0.4375q0.421875 -0.4375 0.671875 -1.734375q0.265625 -1.296875 0.265625 -3.734375q0 -1.703125 -0.203125 -2.640625q-0.203125 -0.953125 -0.625 -1.3125q-0.40625 -0.375 -1.078125 -0.375l-0.859375 0l0 10.234375l0.859375 0zm7.910507 0.171875q1.125 0 2.125 -0.59375q0.140625 0.40625 0.140625 1.015625q0 0.4375 -0.765625 0.734375q-0.75 0.296875 -1.8125 0.296875q-0.953125 0 -1.59375 -0.34375q-0.640625 -0.359375 -1.015625 -1.3125q-0.375 -0.953125 -0.375 -2.703125q0 -2.1875 0.453125 -3.359375q0.453125 -1.1875 1.15625 -1.578125q0.71875 -0.40625 1.6875 -0.40625q2.375 0 2.375 2.984375q0 1.5 -0.203125 2.421875q-0.828125 0.171875 -1.921875 0.234375q-1.09375 0.0625 -2.0 0.0625q0.03125 1.015625 0.21875 1.5625q0.203125 0.53125 0.5625 0.765625q0.375 0.21875 0.96875 0.21875zm-0.171875 -6.921875q-0.671875 0 -1.078125 0.703125q-0.40625 0.6875 -0.484375 2.484375q1.84375 0 2.5625 -0.21875q0.09375 -0.4375 0.09375 -1.125q-0.03125 -1.046875 -0.25 -1.4375q-0.21875 -0.40625 -0.84375 -0.40625zm4.625534 11.859375q-0.40625 0 -0.5625 -0.140625q-0.15625 -0.140625 -0.15625 -0.515625l0 -11.78125q1.171875 -0.75 2.71875 -0.75q1.5 0 2.265625 0.859375q0.78125 0.859375 0.78125 3.015625q0 3.390625 -0.796875 4.609375q-0.796875 1.21875 -1.984375 1.21875q-0.484375 0 -0.875 -0.15625q-0.375 -0.140625 -0.59375 -0.359375l0 3.890625q-0.359375 0.109375 -0.796875 0.109375zm1.796875 -4.828125q1.59375 0 1.59375 -4.3125q0 -1.09375 -0.171875 -1.6875q-0.15625 -0.609375 -0.46875 -0.828125q-0.296875 -0.21875 -0.828125 -0.21875q-0.625 0 -1.125 0.34375l0 6.09375q0.375 0.609375 1.0 0.609375zm7.1423187 1.34375q-0.765625 0 -1.15625 -0.328125q-0.375 -0.328125 -0.5 -0.90625q-0.109375 -0.59375 -0.109375 -1.546875l0 -5.453125l-1.265625 0q0 -0.5 0.015625 -0.796875q0.015625 -0.3125 0.078125 -0.390625q0.0625 -0.09375 0.21875 -0.09375l0.953125 0l0 -2.828125q0 -0.265625 0.109375 -0.359375q0.125 -0.109375 0.390625 -0.140625q0.28125 -0.03125 0.984375 -0.03125l0 3.359375l1.953125 0q0 0.5 -0.03125 0.828125q-0.015625 0.3125 -0.078125 0.390625q-0.0625 0.0625 -0.21875 0.0625l-1.625 0l0 5.453125q0 0.765625 0.125 1.140625q0.125 0.359375 0.578125 0.359375q0.296875 0 0.515625 -0.0625q0.21875 -0.078125 0.5625 -0.21875q0.109375 0.375 0.109375 0.734375q0 0.453125 -0.46875 0.640625q-0.46875 0.1875 -1.140625 0.1875zm2.9007568 -13.203125q0 -0.359375 0.109375 -0.5q0.109375 -0.140625 0.390625 -0.171875q0.28125 -0.03125 0.984375 -0.03125l0 4.9375q0.421875 -0.359375 0.984375 -0.546875q0.5625 -0.1875 1.125 -0.1875q1.140625 0 1.53125 0.59375q0.40625 0.578125 0.40625 1.875l0 6.75q0 0.171875 -0.078125 0.234375q-0.078125 0.046875 -0.453125 0.0625q-0.375 0 -1.0 0l0 -6.640625q0 -0.703125 -0.21875 -1.078125q-0.21875 -0.390625 -0.875 -0.390625q-0.359375 0 -0.734375 0.125q-0.359375 0.109375 -0.6875 0.375l0 7.3125q0 0.171875 -0.0625 0.234375q-0.0625 0.046875 -0.4375 0.0625q-0.359375 0 -0.984375 0l0 -13.015625z" fill-rule="nonzero"/><path fill="#fce5cd" d="m12.015748 80.05774l117.732285 0l0 29.637802l-117.732285 0z" fill-rule="evenodd"/><path stroke="#990000" stroke-width="1.0" stroke-linejoin="round" stroke-linecap="butt" d="m12.015748 80.05774l117.732285 0l0 29.637802l-117.732285 0z" fill-rule="evenodd"/><path fill="#990000" d="m62.529915 101.51539q0.03125 0.171875 -0.109375 0.25q-0.125 0.0625 -0.546875 0.0625q-0.5 0 -0.890625 -0.03125l-0.796875 -3.328125l-3.234375 0l-0.734375 3.0625q-0.0625 0.171875 -0.1875 0.234375q-0.109375 0.0625 -0.515625 0.0625q-0.390625 0 -0.9375 -0.046875l3.34375 -12.84375q0.046875 -0.25 0.5625 -0.25q0.421875 0 0.703125 0.046875l3.34375 12.78125zm-2.671875 -4.40625l-0.640625 -2.6875q-0.53125 -2.265625 -0.65625 -3.59375q-0.203125 1.65625 -0.65625 3.59375l-0.640625 2.6875l2.59375 0zm6.4027863 4.875q-1.109375 0 -1.703125 -0.328125q-0.59375 -0.34375 -0.84375 -1.0q-0.234375 -0.671875 -0.234375 -1.765625l0 -6.125q0 -0.171875 0.0625 -0.21875q0.0625 -0.0625 0.4375 -0.0625q0.390625 -0.015625 1.046875 -0.015625l0 6.546875q0 0.953125 0.25 1.3125q0.25 0.34375 1.015625 0.34375q0.75 0 1.25 -0.34375l0 -7.5625q0 -0.171875 0.078125 -0.21875q0.078125 -0.0625 0.4375 -0.0625q0.359375 -0.015625 1.0 -0.015625l0 8.84375q-0.5625 0.296875 -1.3125 0.484375q-0.75 0.1875 -1.484375 0.1875zm7.2260284 0q-0.9375 0 -1.59375 -0.3125q-0.640625 -0.328125 -1.03125 -1.3125q-0.390625 -0.984375 -0.390625 -2.890625q0 -2.625 0.796875 -3.90625q0.796875 -1.28125 2.0625 -1.28125q0.859375 0 1.34375 0.375l0 -3.875q0 -0.359375 0.109375 -0.5q0.125 -0.140625 0.40625 -0.171875q0.28125 -0.03125 0.984375 -0.03125l0 13.34375q-1.1875 0.5625 -2.6875 0.5625zm0.0625 -1.34375q0.703125 0 1.125 -0.28125l0 -6.53125q-0.328125 -0.234375 -0.859375 -0.234375q-1.6875 0 -1.6875 3.703125q0 1.359375 0.171875 2.09375q0.171875 0.734375 0.46875 1.0q0.296875 0.25 0.78125 0.25zm4.326782 -7.484375q0 -0.359375 0.125 -0.484375q0.125 -0.140625 0.390625 -0.171875q0.28125 -0.03125 1.0 -0.03125l0 9.03125q0 0.171875 -0.078125 0.234375q-0.0625 0.046875 -0.4375 0.0625q-0.359375 0 -1.0 0l0 -8.640625zm0.703125 -2.0q-0.75 0 -0.75 -1.078125q0 -1.1875 0.859375 -1.1875q0.40625 0 0.578125 0.25q0.171875 0.234375 0.171875 0.828125q0 0.5625 -0.234375 0.875q-0.21875 0.3125 -0.625 0.3125zm5.124222 10.828125q-1.046875 0 -1.671875 -0.34375q-0.609375 -0.359375 -0.9375 -1.40625q-0.328125 -1.0625 -0.328125 -3.109375q0 -4.84375 3.125 -4.84375q1.015625 0 1.625 0.421875q0.625 0.421875 0.9375 1.484375q0.328125 1.046875 0.328125 2.90625q0 2.53125 -0.78125 3.71875q-0.765625 1.171875 -2.296875 1.171875zm0.03125 -1.265625q0.671875 0 1.03125 -0.78125q0.375 -0.796875 0.375 -2.84375q0 -1.453125 -0.140625 -2.21875q-0.140625 -0.765625 -0.421875 -1.046875q-0.28125 -0.28125 -0.75 -0.28125q-0.6875 0 -1.0625 0.796875q-0.359375 0.78125 -0.359375 2.828125q0 1.484375 0.140625 2.25q0.15625 0.765625 0.4375 1.03125q0.28125 0.265625 0.75 0.265625z" fill-rule="nonzero"/><path fill="#f4cccc" d="m181.00262 46.703556l0 0c0 -4.018276 3.2574615 -7.275734 7.2757416 -7.275734l78.36192 0c1.9296265 0 3.780243 0.76654816 5.1447144 2.131012c1.3644714 1.3644676 2.131012 3.2150764 2.131012 5.144722l0 29.10207c0 4.01828 -3.2574768 7.2757416 -7.2757263 7.2757416l-78.36192 0l0 0c-4.01828 0 -7.2757416 -3.2574615 -7.2757416 -7.2757416z" fill-rule="evenodd"/><path stroke="#990000" stroke-width="1.0" stroke-linejoin="round" stroke-linecap="butt" d="m181.00262 46.703556l0 0c0 -4.018276 3.2574615 -7.275734 7.2757416 -7.275734l78.36192 0c1.9296265 0 3.780243 0.76654816 5.1447144 2.131012c1.3644714 1.3644676 2.131012 3.2150764 2.131012 5.144722l0 29.10207c0 4.01828 -3.2574768 7.2757416 -7.2757263 7.2757416l-78.36192 0l0 0c-4.01828 0 -7.2757416 -3.2574615 -7.2757416 -7.2757416z" fill-rule="evenodd"/><path fill="#990000" d="m214.58035 55.11209q0 0.53125 -0.015625 0.84375q0 0.296875 -0.0625 0.375q-0.046875 0.078125 -0.203125 0.078125l-3.0 0l0 3.96875l2.828125 0q0 0.5 -0.015625 0.84375q-0.015625 0.328125 -0.078125 0.4375q-0.046875 0.09375 -0.1875 0.09375l-2.546875 0l0 6.125q0 0.09375 -0.046875 0.203125q-0.046875 0.09375 -0.234375 0.09375l-1.203125 0l0 -12.765625q0 -0.0625 0.046875 -0.171875q0.0625 -0.125 0.25 -0.125l4.46875 0zm3.8550262 13.25q-1.109375 0 -1.703125 -0.328125q-0.59375 -0.34375 -0.84375 -1.0q-0.234375 -0.671875 -0.234375 -1.765625l0 -6.125q0 -0.171875 0.0625 -0.21875q0.0625 -0.0625 0.4375 -0.0625q0.390625 -0.015625 1.046875 -0.015625l0 6.546875q0 0.953125 0.25 1.3125q0.25 0.34375 1.015625 0.34375q0.75 0 1.25 -0.34375l0 -7.5625q0 -0.171875 0.078125 -0.21875q0.078125 -0.0625 0.4375 -0.0625q0.359375 -0.015625 1.0 -0.015625l0 8.84375q-0.5625 0.296875 -1.3125 0.484375q-0.75 0.1875 -1.484375 0.1875zm6.4604034 0q-1.015625 0 -1.640625 -0.234375q-0.625 -0.25 -0.625 -0.703125q0 -0.4375 0.28125 -0.875q0.765625 0.453125 1.84375 0.453125q0.734375 0 1.125 -0.28125q0.40625 -0.296875 0.40625 -0.859375q0 -0.40625 -0.171875 -0.765625q-0.171875 -0.359375 -0.578125 -0.703125l-1.8125 -1.546875q-1.078125 -0.890625 -1.078125 -1.984375q0 -1.03125 0.765625 -1.609375q0.78125 -0.59375 2.296875 -0.59375q1.265625 0 1.796875 0.34375q0.53125 0.328125 0.53125 0.703125q0 0.171875 -0.09375 0.390625q-0.09375 0.203125 -0.21875 0.375q-0.828125 -0.5 -1.84375 -0.5q-0.671875 0 -1.078125 0.25q-0.40625 0.234375 -0.40625 0.65625q0 0.28125 0.140625 0.53125q0.15625 0.25 0.609375 0.625l1.734375 1.40625q0.609375 0.59375 0.859375 1.125q0.265625 0.515625 0.265625 1.203125q0 1.234375 -0.84375 1.921875q-0.828125 0.671875 -2.265625 0.671875zm4.501938 -8.828125q0 -0.359375 0.125 -0.484375q0.125 -0.140625 0.390625 -0.171875q0.28125 -0.03125 1.0 -0.03125l0 9.03125q0 0.171875 -0.078125 0.234375q-0.0625 0.046875 -0.4375 0.0625q-0.359375 0 -1.0 0l0 -8.640625zm0.703125 -2.0q-0.75 0 -0.75 -1.078125q0 -1.1875 0.859375 -1.1875q0.40625 0 0.578125 0.25q0.171875 0.234375 0.171875 0.828125q0 0.5625 -0.234375 0.875q-0.21875 0.3125 -0.625 0.3125zm5.124222 10.828125q-1.046875 0 -1.671875 -0.34375q-0.609375 -0.359375 -0.9375 -1.40625q-0.328125 -1.0625 -0.328125 -3.109375q0 -4.84375 3.125 -4.84375q1.015625 0 1.625 0.421875q0.625 0.421875 0.9375 1.484375q0.328125 1.046875 0.328125 2.90625q0 2.53125 -0.78125 3.71875q-0.765625 1.171875 -2.296875 1.171875zm0.03125 -1.265625q0.671875 0 1.03125 -0.78125q0.375 -0.796875 0.375 -2.84375q0 -1.453125 -0.140625 -2.21875q-0.140625 -0.765625 -0.421875 -1.046875q-0.28125 -0.28125 -0.75 -0.28125q-0.6875 0 -1.0625 0.796875q-0.359375 0.78125 -0.359375 2.828125q0 1.484375 0.140625 2.25q0.15625 0.765625 0.4375 1.03125q0.28125 0.265625 0.75 0.265625zm4.3897552 -7.796875q0.578125 -0.265625 1.40625 -0.453125q0.84375 -0.1875 1.5625 -0.1875q1.453125 0 2.03125 0.578125q0.578125 0.5625 0.578125 1.921875l0 6.71875q0 0.171875 -0.078125 0.234375q-0.078125 0.046875 -0.46875 0.0625q-0.375 0 -1.0 0l0 -6.5625q0 -0.9375 -0.234375 -1.28125q-0.21875 -0.359375 -0.890625 -0.359375q-0.328125 0 -0.734375 0.078125q-0.390625 0.078125 -0.671875 0.25l0 7.578125q0 0.171875 -0.078125 0.234375q-0.0625 0.046875 -0.4375 0.0625q-0.375 0 -0.984375 0l0 -8.875z" fill-rule="nonzero"/><path fill="#efefef" d="m325.1706 46.435696l117.7323 0l0 29.637798l-117.7323 0z" fill-rule="evenodd"/><path stroke="#434343" stroke-width="1.0" stroke-linejoin="round" stroke-linecap="butt" d="m325.1706 46.435696l117.7323 0l0 29.637798l-117.7323 0z" fill-rule="evenodd"/><path fill="#434343" d="m349.8488 68.36209q-1.0 0 -1.671875 -0.4375q-0.65625 -0.4375 -1.046875 -1.78125q-0.375 -1.359375 -0.375 -3.953125q0 -2.96875 0.53125 -4.5625q0.546875 -1.609375 1.34375 -2.15625q0.796875 -0.546875 1.796875 -0.546875q0.9375 0 1.34375 0.296875q0.40625 0.296875 0.40625 0.734375q0 0.5 -0.234375 0.90625q-0.578125 -0.453125 -1.21875 -0.453125q-0.6875 0 -1.21875 0.4375q-0.515625 0.4375 -0.84375 1.6875q-0.328125 1.25 -0.328125 3.578125q0 1.828125 0.21875 2.84375q0.234375 1.0 0.640625 1.375q0.421875 0.375 1.015625 0.375q0.515625 0 0.984375 -0.171875q0.46875 -0.1875 0.75 -0.4375q0.21875 0.5 0.21875 0.921875q0 0.5625 -0.65625 0.953125q-0.640625 0.390625 -1.65625 0.390625zm3.564911 -13.203125q0 -0.359375 0.109375 -0.5q0.125 -0.140625 0.40625 -0.171875q0.28125 -0.03125 1.0 -0.03125l0 13.421875q0 0.171875 -0.078125 0.234375q-0.078125 0.046875 -0.4375 0.0625q-0.359375 0 -1.0 0l0 -13.015625zm5.461914 13.203125q-1.1875 0 -1.875 -0.5625q-0.671875 -0.578125 -0.671875 -2.28125q0 -1.765625 0.671875 -2.40625q0.6875 -0.640625 1.828125 -0.640625q0.875 0 1.359375 0.234375l0 -1.46875q0 -0.640625 -0.28125 -0.875q-0.28125 -0.25 -0.875 -0.25q-0.671875 0 -1.375 0.125q-0.6875 0.125 -1.109375 0.3125q-0.203125 -0.390625 -0.203125 -0.875q0 -0.375 0.203125 -0.515625q0.28125 -0.1875 1.078125 -0.34375q0.8125 -0.15625 1.78125 -0.15625q1.203125 0 1.734375 0.53125q0.546875 0.515625 0.546875 1.75l0 0.984375q0 4.109375 -0.109375 5.796875q-0.4375 0.28125 -1.140625 0.453125q-0.6875 0.1875 -1.5625 0.1875zm0.265625 -1.265625q0.296875 0 0.578125 -0.09375q0.28125 -0.09375 0.40625 -0.203125q0.0625 -0.640625 0.0625 -3.03125q-0.359375 -0.1875 -0.875 -0.1875q-0.671875 0 -1.046875 0.390625q-0.375 0.390625 -0.375 1.515625q0 0.953125 0.296875 1.28125q0.3125 0.328125 0.953125 0.328125zm6.073059 1.265625q-1.015625 0 -1.640625 -0.234375q-0.625 -0.25 -0.625 -0.703125q0 -0.4375 0.28125 -0.875q0.765625 0.453125 1.84375 0.453125q0.734375 0 1.125 -0.28125q0.40625 -0.296875 0.40625 -0.859375q0 -0.40625 -0.171875 -0.765625q-0.171875 -0.359375 -0.578125 -0.703125l-1.8125 -1.546875q-1.078125 -0.890625 -1.078125 -1.984375q0 -1.03125 0.765625 -1.609375q0.78125 -0.59375 2.296875 -0.59375q1.265625 0 1.796875 0.34375q0.53125 0.328125 0.53125 0.703125q0 0.171875 -0.09375 0.390625q-0.09375 0.203125 -0.21875 0.375q-0.828125 -0.5 -1.84375 -0.5q-0.671875 0 -1.078125 0.25q-0.40625 0.234375 -0.40625 0.65625q0 0.28125 0.140625 0.53125q0.15625 0.25 0.609375 0.625l1.734375 1.40625q0.609375 0.59375 0.859375 1.125q0.265625 0.515625 0.265625 1.203125q0 1.234375 -0.84375 1.921875q-0.828125 0.671875 -2.265625 0.671875zm6.4550476 0q-1.015625 0 -1.640625 -0.234375q-0.625 -0.25 -0.625 -0.703125q0 -0.4375 0.28125 -0.875q0.765625 0.453125 1.84375 0.453125q0.734375 0 1.125 -0.28125q0.40625 -0.296875 0.40625 -0.859375q0 -0.40625 -0.171875 -0.765625q-0.171875 -0.359375 -0.578125 -0.703125l-1.8125 -1.546875q-1.078125 -0.890625 -1.078125 -1.984375q0 -1.03125 0.765625 -1.609375q0.78125 -0.59375 2.296875 -0.59375q1.265625 0 1.796875 0.34375q0.53125 0.328125 0.53125 0.703125q0 0.171875 -0.09375 0.390625q-0.09375 0.203125 -0.21875 0.375q-0.828125 -0.5 -1.84375 -0.5q-0.671875 0 -1.078125 0.25q-0.40625 0.234375 -0.40625 0.65625q0 0.28125 0.140625 0.53125q0.15625 0.25 0.609375 0.625l1.734375 1.40625q0.609375 0.59375 0.859375 1.125q0.265625 0.515625 0.265625 1.203125q0 1.234375 -0.84375 1.921875q-0.828125 0.671875 -2.265625 0.671875zm4.501953 -8.828125q0 -0.359375 0.125 -0.484375q0.125 -0.140625 0.390625 -0.171875q0.28125 -0.03125 1.0 -0.03125l0 9.03125q0 0.171875 -0.078125 0.234375q-0.0625 0.046875 -0.4375 0.0625q-0.359375 0 -1.0 0l0 -8.640625zm0.703125 -2.0q-0.75 0 -0.75 -1.078125q0 -1.1875 0.859375 -1.1875q0.40625 0 0.578125 0.25q0.171875 0.234375 0.171875 0.828125q0 0.5625 -0.234375 0.875q-0.21875 0.3125 -0.625 0.3125zm3.2179565 2.578125l-1.28125 0q0 -0.5 0.015625 -0.796875q0.015625 -0.3125 0.078125 -0.390625q0.0625 -0.078125 0.265625 -0.078125l0.921875 0l0 -1.140625q0 -1.9375 0.875 -2.625q0.890625 -0.6875 2.234375 -0.6875q0.84375 0 1.28125 0.203125q0.453125 0.203125 0.453125 0.5625q0 0.421875 -0.15625 0.8125q-0.546875 -0.21875 -1.328125 -0.21875q-0.875 0 -1.375 0.375q-0.5 0.375 -0.5 1.46875l0 1.25l1.6875 0q0 0.5 -0.015625 0.8125q-0.015625 0.3125 -0.078125 0.390625q-0.0625 0.0625 -0.21875 0.0625l-1.375 0l0 7.765625q0 0.09375 -0.0625 0.203125q-0.0625 0.09375 -0.25 0.09375l-1.171875 0l0 -8.0625zm4.0824585 -0.578125q0 -0.359375 0.125 -0.484375q0.125 -0.140625 0.390625 -0.171875q0.28125 -0.03125 1.0 -0.03125l0 9.03125q0 0.171875 -0.078125 0.234375q-0.0625 0.046875 -0.4375 0.0625q-0.359375 0 -1.0 0l0 -8.640625zm0.703125 -2.0q-0.75 0 -0.75 -1.078125q0 -1.1875 0.859375 -1.1875q0.40625 0 0.578125 0.25q0.171875 0.234375 0.171875 0.828125q0 0.5625 -0.234375 0.875q-0.21875 0.3125 -0.625 0.3125zm5.0460815 10.828125q-0.96875 0 -1.578125 -0.359375q-0.59375 -0.375 -0.90625 -1.375q-0.296875 -1.015625 -0.296875 -2.90625q0 -3.015625 0.921875 -4.03125q0.9375 -1.03125 2.421875 -1.03125q0.671875 0 1.109375 0.25q0.453125 0.234375 0.453125 0.59375q0 0.421875 -0.171875 0.84375q-0.625 -0.359375 -1.3125 -0.359375q-0.828125 0 -1.359375 0.765625q-0.515625 0.75 -0.515625 2.984375q0 1.28125 0.171875 2.0q0.1875 0.71875 0.546875 1.0q0.359375 0.28125 0.96875 0.28125q0.421875 0 0.8125 -0.125q0.40625 -0.125 0.671875 -0.296875q0.15625 0.53125 0.15625 0.8125q0 0.390625 -0.609375 0.671875q-0.59375 0.28125 -1.484375 0.28125zm5.5737915 0q-1.1875 0 -1.875 -0.5625q-0.671875 -0.578125 -0.671875 -2.28125q0 -1.765625 0.671875 -2.40625q0.6875 -0.640625 1.828125 -0.640625q0.875 0 1.359375 0.234375l0 -1.46875q0 -0.640625 -0.28125 -0.875q-0.28125 -0.25 -0.875 -0.25q-0.671875 0 -1.375 0.125q-0.6875 0.125 -1.109375 0.3125q-0.203125 -0.390625 -0.203125 -0.875q0 -0.375 0.203125 -0.515625q0.28125 -0.1875 1.078125 -0.34375q0.8125 -0.15625 1.78125 -0.15625q1.203125 0 1.734375 0.53125q0.546875 0.515625 0.546875 1.75l0 0.984375q0 4.109375 -0.109375 5.796875q-0.4375 0.28125 -1.140625 0.453125q-0.6875 0.1875 -1.5625 0.1875zm0.265625 -1.265625q0.296875 0 0.578125 -0.09375q0.28125 -0.09375 0.40625 -0.203125q0.0625 -0.640625 0.0625 -3.03125q-0.359375 -0.1875 -0.875 -0.1875q-0.671875 0 -1.046875 0.390625q-0.375 0.390625 -0.375 1.515625q0 0.953125 0.296875 1.28125q0.3125 0.328125 0.953125 0.328125zm6.635559 1.265625q-0.765625 0 -1.15625 -0.328125q-0.375 -0.328125 -0.5 -0.90625q-0.109375 -0.59375 -0.109375 -1.546875l0 -5.453125l-1.265625 0q0 -0.5 0.015625 -0.796875q0.015625 -0.3125 0.078125 -0.390625q0.0625 -0.09375 0.21875 -0.09375l0.953125 0l0 -2.828125q0 -0.265625 0.109375 -0.359375q0.125 -0.109375 0.390625 -0.140625q0.28125 -0.03125 0.984375 -0.03125l0 3.359375l1.953125 0q0 0.5 -0.03125 0.828125q-0.015625 0.3125 -0.078125 0.390625q-0.0625 0.0625 -0.21875 0.0625l-1.625 0l0 5.453125q0 0.765625 0.125 1.140625q0.125 0.359375 0.578125 0.359375q0.296875 0 0.515625 -0.0625q0.21875 -0.078125 0.5625 -0.21875q0.109375 0.375 0.109375 0.734375q0 0.453125 -0.46875 0.640625q-0.46875 0.1875 -1.140625 0.1875zm2.9320068 -8.828125q0 -0.359375 0.125 -0.484375q0.125 -0.140625 0.390625 -0.171875q0.28125 -0.03125 1.0 -0.03125l0 9.03125q0 0.171875 -0.078125 0.234375q-0.0625 0.046875 -0.4375 0.0625q-0.359375 0 -1.0 0l0 -8.640625zm0.703125 -2.0q-0.75 0 -0.75 -1.078125q0 -1.1875 0.859375 -1.1875q0.40625 0 0.578125 0.25q0.171875 0.234375 0.171875 0.828125q0 0.5625 -0.234375 0.875q-0.21875 0.3125 -0.625 0.3125zm5.1242065 10.828125q-1.046875 0 -1.671875 -0.34375q-0.609375 -0.359375 -0.9375 -1.40625q-0.328125 -1.0625 -0.328125 -3.109375q0 -4.84375 3.125 -4.84375q1.015625 0 1.625 0.421875q0.625 0.421875 0.9375 1.484375q0.328125 1.046875 0.328125 2.90625q0 2.53125 -0.78125 3.71875q-0.765625 1.171875 -2.296875 1.171875zm0.03125 -1.265625q0.671875 0 1.03125 -0.78125q0.375 -0.796875 0.375 -2.84375q0 -1.453125 -0.140625 -2.21875q-0.140625 -0.765625 -0.421875 -1.046875q-0.28125 -0.28125 -0.75 -0.28125q-0.6875 0 -1.0625 0.796875q-0.359375 0.78125 -0.359375 2.828125q0 1.484375 0.140625 2.25q0.15625 0.765625 0.4375 1.03125q0.28125 0.265625 0.75 0.265625zm4.3897705 -7.796875q0.578125 -0.265625 1.40625 -0.453125q0.84375 -0.1875 1.5625 -0.1875q1.453125 0 2.03125 0.578125q0.578125 0.5625 0.578125 1.921875l0 6.71875q0 0.171875 -0.078125 0.234375q-0.078125 0.046875 -0.46875 0.0625q-0.375 0 -1.0 0l0 -6.5625q0 -0.9375 -0.234375 -1.28125q-0.21875 -0.359375 -0.890625 -0.359375q-0.328125 0 -0.734375 0.078125q-0.390625 0.078125 -0.671875 0.25l0 7.578125q0 0.171875 -0.078125 0.234375q-0.0625 0.046875 -0.4375 0.0625q-0.375 0 -0.984375 0l0 -8.875z" fill-rule="nonzero"/><path fill="#000000" fill-opacity="0.0" d="m129.74803 27.632545l25.627167 0l0 33.637794l25.616928 0" fill-rule="evenodd"/><path stroke="#000000" stroke-width="1.0" stroke-linejoin="round" stroke-linecap="butt" d="m129.74803 27.632545l25.627167 0l0 33.637794l25.616928 0" fill-rule="evenodd"/><path fill="#000000" fill-opacity="0.0" d="m129.74803 61.254593l25.627167 0l0 0.062992096l25.616928 0" fill-rule="evenodd"/><path stroke="#000000" stroke-width="1.0" stroke-linejoin="round" stroke-linecap="butt" d="m129.74803 61.254593l25.627167 0l0 0.062992096l25.616928 0" fill-rule="evenodd"/><path fill="#000000" fill-opacity="0.0" d="m129.74803 94.87664l25.627167 0l0 -33.637794l25.616928 0" fill-rule="evenodd"/><path stroke="#000000" stroke-width="1.0" stroke-linejoin="round" stroke-linecap="butt" d="m129.74803 94.87664l25.627167 0l0 -33.637794l25.616928 0" fill-rule="evenodd"/><path fill="#000000" fill-opacity="0.0" d="m273.91602 61.254593l25.627167 0l0 0.062992096l25.616913 0" fill-rule="evenodd"/><path stroke="#000000" stroke-width="1.0" stroke-linejoin="round" stroke-linecap="butt" d="m273.91602 61.254593l25.627167 0l0 0.062992096l25.616913 0" fill-rule="evenodd"/></g></svg>