<svg version="1.1" viewBox="0.0 0.0 378.3884514435696 100.0" fill="none" stroke="none" stroke-linecap="square" stroke-miterlimit="10" xmlns:xlink="http://www.w3.org/1999/xlink" xmlns="http://www.w3.org/2000/svg"><clipPath id="p.0"><path d="m0 0l378.38846 0l0 100.0l-378.38846 0l0 -100.0z" clip-rule="nonzero"/></clipPath><g clip-path="url(#p.0)"><path fill="#000000" fill-opacity="0.0" d="m0 0l378.38846 0l0 100.0l-378.38846 0z" fill-rule="evenodd"/><path fill="#fff2cc" d="m105.59055 24.251968l89.07087 0l0 51.496063l-89.07087 0z" fill-rule="evenodd"/><path stroke="#7f6000" stroke-width="1.0" stroke-linejoin="round" stroke-linecap="butt" d="m105.59055 24.251968l89.07087 0l0 51.496063l-89.07087 0z" fill-rule="evenodd"/><path fill="#7f6000" d="m119.90141 57.091873q-0.75 0 -1.1875 -0.171875q-0.421875 -0.15625 -0.59375 -0.40625q-0.171875 -0.25 -0.171875 -0.53125q0 -0.296875 0.078125 -0.5q0.078125 -0.21875 0.140625 -0.359375q0.265625 0.234375 0.671875 0.4375q0.40625 0.1875 0.875 0.1875q0.546875 0 0.796875 -0.265625q0.265625 -0.265625 0.34375 -0.75q0.078125 -0.5 0.078125 -1.234375l0 -8.953125q0 -0.34375 0.0625 -0.484375q0.0625 -0.140625 0.375 -0.171875q0.328125 -0.03125 1.09375 -0.03125l0 9.984375q0 0.6875 -0.125 1.296875q-0.109375 0.59375 -0.390625 1.03125q-0.265625 0.4375 -0.765625 0.6875q-0.5 0.234375 -1.28125 0.234375zm6.815628 0.015625q-0.71875 0 -1.265625 -0.1875q-0.546875 -0.171875 -0.921875 -0.671875q-0.375 -0.5 -0.5625 -1.453125q-0.1875 -0.96875 -0.1875 -2.546875q0 -2.546875 0.8125 -3.6875q0.828125 -1.15625 2.28125 -1.15625q1.0 0 1.640625 0.421875q0.640625 0.40625 0.953125 1.453125q0.328125 1.03125 0.328125 2.921875q0 2.609375 -0.796875 3.765625q-0.78125 1.140625 -2.28125 1.140625zm0.03125 -1.28125q0.40625 0 0.71875 -0.28125q0.3125 -0.296875 0.5 -1.078125q0.1875 -0.796875 0.1875 -2.25q0 -1.484375 -0.15625 -2.234375q-0.140625 -0.765625 -0.421875 -1.03125q-0.28125 -0.265625 -0.75 -0.265625q-0.40625 0 -0.734375 0.296875q-0.3125 0.28125 -0.5 1.078125q-0.171875 0.78125 -0.171875 2.234375q0 1.140625 0.09375 1.84375q0.09375 0.703125 0.25 1.078125q0.171875 0.359375 0.421875 0.484375q0.265625 0.125 0.5625 0.125zm4.4053802 1.09375l0 -8.640625q0 -0.359375 0.125 -0.484375q0.140625 -0.140625 0.46875 -0.171875q0.34375 -0.03125 0.953125 -0.03125l0 9.03125q0 0.140625 -0.0625 0.203125q-0.0625 0.0625 -0.390625 0.078125q-0.3125 0.015625 -1.09375 0.015625zm0.609375 -10.609375q-0.359375 -0.03125 -0.5625 -0.28125q-0.203125 -0.25 -0.203125 -0.90625q0.015625 -0.5 0.21875 -0.796875q0.203125 -0.3125 0.65625 -0.3125q0.421875 0 0.59375 0.25q0.171875 0.234375 0.15625 0.828125q0 0.5625 -0.21875 0.890625q-0.21875 0.328125 -0.640625 0.328125zm2.8825073 10.609375l0 -8.875q0.375 -0.171875 0.875 -0.3125q0.5 -0.140625 1.03125 -0.234375q0.546875 -0.09375 1.0625 -0.09375q0.96875 0 1.546875 0.25q0.578125 0.25 0.8125 0.796875q0.25 0.546875 0.25 1.453125l0 6.71875q0 0.140625 -0.078125 0.203125q-0.078125 0.0625 -0.390625 0.078125q-0.3125 0.015625 -1.109375 0.015625l0 -6.5625q0 -0.875 -0.203125 -1.25q-0.203125 -0.375 -0.890625 -0.375q-0.3125 0 -0.703125 0.078125q-0.390625 0.0625 -0.703125 0.25l0 7.5625q0 0.140625 -0.0625 0.203125q-0.0625 0.0625 -0.390625 0.078125q-0.3125 0.015625 -1.046875 0.015625zm9.673569 0.1875q-0.78125 0 -1.171875 -0.34375q-0.375 -0.34375 -0.484375 -0.96875q-0.109375 -0.625 -0.109375 -1.46875l0 -5.421875l-1.265625 0q0 -0.609375 0 -0.875q0.015625 -0.265625 0.078125 -0.34375q0.078125 -0.09375 0.234375 -0.09375l0.953125 0l0 -2.828125q0 -0.28125 0.109375 -0.390625q0.125 -0.109375 0.453125 -0.125q0.328125 -0.015625 0.953125 -0.015625l0 3.359375l1.890625 0q0 0.578125 -0.015625 0.859375q0 0.28125 -0.0625 0.375q-0.0625 0.078125 -0.21875 0.078125l-1.59375 0l0 5.421875q0 0.390625 0.015625 0.734375q0.03125 0.34375 0.171875 0.546875q0.140625 0.1875 0.484375 0.1875q0.3125 0 0.546875 -0.0625q0.25 -0.0625 0.53125 -0.21875q0.03125 0.15625 0.0625 0.34375q0.046875 0.1875 0.046875 0.421875q0 0.34375 -0.25 0.53125q-0.25 0.171875 -0.625 0.234375q-0.359375 0.0625 -0.734375 0.0625zm9.095413 -3.0625l-0.96875 -2.984375q-0.0625 -0.140625 -0.1875 -0.59375q-0.125 -0.453125 -0.296875 -1.046875q-0.171875 -0.609375 -0.359375 -1.25q-0.171875 -0.640625 -0.328125 -1.1875q-0.140625 -0.5625 -0.25 -0.90625q-0.09375 -0.34375 -0.09375 -0.34375l0.59375 -1.875l1.78125 5.65625q0.078125 0.28125 0.1875 0.640625q0.109375 0.34375 0.1875 0.671875q0.078125 0.328125 0.140625 0.546875q0.078125 0.21875 0.078125 0.21875q0 0 0.046875 -0.21875q0.046875 -0.21875 0.125 -0.546875q0.078125 -0.328125 0.171875 -0.65625q0.09375 -0.34375 0.1875 -0.625l1.640625 -5.390625l0.671875 1.640625q0 0 -0.09375 0.34375q-0.09375 0.328125 -0.25 0.875q-0.140625 0.546875 -0.3125 1.1875q-0.171875 0.625 -0.34375 1.21875q-0.171875 0.59375 -0.3125 1.03125q-0.125 0.4375 -0.171875 0.609375l-0.984375 2.84375q-0.0625 0.140625 -0.21875 0.140625l-0.640625 0zm-3.3125 2.875l0 -12.765625q0 -0.203125 0.09375 -0.25q0.09375 -0.046875 0.234375 -0.046875l1.09375 0l0.09375 2.390625l-0.390625 0.609375q0 0 0.03125 0.265625q0.03125 0.265625 0.046875 0.703125q0.03125 0.4375 0.078125 1.015625q0.046875 0.5625 0.09375 1.171875q0.046875 0.59375 0.078125 1.203125q0.03125 0.59375 0.03125 1.078125l0.03125 4.328125q0 0.140625 -0.09375 0.203125q-0.078125 0.0625 -0.390625 0.078125q-0.3125 0.015625 -1.03125 0.015625zm5.953125 0l0.078125 -4.546875q0 -0.484375 0.03125 -1.078125q0.03125 -0.609375 0.078125 -1.234375q0.046875 -0.640625 0.078125 -1.21875q0.03125 -0.59375 0.0625 -1.0625q0.046875 -0.46875 0.0625 -0.75q0.015625 -0.28125 0.015625 -0.28125l-0.390625 -0.34375l0 -2.25q0.0625 -0.125 0.109375 -0.203125q0.046875 -0.09375 0.203125 -0.09375q0.609375 0 0.859375 0q0.265625 0 0.3125 0q0.046875 0 0.046875 0l0 12.765625q0 0.140625 -0.0625 0.203125q-0.0625 0.0625 -0.390625 0.078125q-0.3125 0.015625 -1.09375 0.015625zm5.8104095 0.1875q-0.71875 0 -1.265625 -0.1875q-0.546875 -0.171875 -0.921875 -0.671875q-0.375 -0.5 -0.5625 -1.453125q-0.1875 -0.96875 -0.1875 -2.546875q0 -2.546875 0.8125 -3.6875q0.828125 -1.15625 2.28125 -1.15625q1.0 0 1.640625 0.421875q0.640625 0.40625 0.953125 1.453125q0.328125 1.03125 0.328125 2.921875q0 2.609375 -0.796875 3.765625q-0.78125 1.140625 -2.28125 1.140625zm0.03125 -1.28125q0.40625 0 0.71875 -0.28125q0.3125 -0.296875 0.5 -1.078125q0.1875 -0.796875 0.1875 -2.25q0 -1.484375 -0.15625 -2.234375q-0.140625 -0.765625 -0.421875 -1.03125q-0.28125 -0.265625 -0.75 -0.265625q-0.40625 0 -0.734375 0.296875q-0.3125 0.28125 -0.5 1.078125q-0.171875 0.78125 -0.171875 2.234375q0 1.140625 0.09375 1.84375q0.09375 0.703125 0.25 1.078125q0.171875 0.359375 0.421875 0.484375q0.265625 0.125 0.5625 0.125zm7.2144165 1.28125q-0.609375 0 -1.15625 -0.140625q-0.53125 -0.140625 -0.96875 -0.59375q-0.421875 -0.453125 -0.65625 -1.359375q-0.234375 -0.90625 -0.234375 -2.421875q0 -1.84375 0.375 -2.984375q0.390625 -1.15625 1.03125 -1.671875q0.640625 -0.53125 1.453125 -0.53125q0.421875 0 0.75 0.09375q0.34375 0.09375 0.5625 0.28125l0 -3.875q0 -0.359375 0.125 -0.5q0.125 -0.140625 0.453125 -0.171875q0.34375 -0.03125 0.9375 -0.03125l0 13.34375q-0.4375 0.21875 -1.125 0.390625q-0.6875 0.171875 -1.546875 0.171875zm0.0625 -1.359375q0.3125 0 0.59375 -0.0625q0.28125 -0.078125 0.5 -0.21875l0 -6.5q-0.15625 -0.140625 -0.359375 -0.1875q-0.1875 -0.046875 -0.484375 -0.046875q-0.3125 0 -0.609375 0.15625q-0.296875 0.140625 -0.546875 0.546875q-0.234375 0.390625 -0.375 1.109375q-0.125 0.71875 -0.125 1.875q0 1.0625 0.09375 1.71875q0.09375 0.65625 0.28125 1.0q0.1875 0.34375 0.4375 0.484375q0.265625 0.125 0.59375 0.125zm6.983032 1.359375q-0.640625 0 -1.1875 -0.1875q-0.546875 -0.171875 -0.953125 -0.625q-0.40625 -0.46875 -0.625 -1.328125q-0.203125 -0.859375 -0.203125 -2.21875q0 -1.765625 0.28125 -2.828125q0.28125 -1.0625 0.734375 -1.59375q0.46875 -0.546875 1.0625 -0.734375q0.609375 -0.1875 1.21875 -0.1875q1.171875 0 1.765625 0.75q0.609375 0.75 0.609375 2.25q0 0.625 -0.046875 1.28125q-0.046875 0.640625 -0.1875 1.15625q-0.625 0.125 -1.40625 0.1875q-0.78125 0.046875 -1.5 0.078125q-0.703125 0.03125 -1.171875 0.03125q-0.453125 0 -0.453125 0l0.03125 -1.234375q0 0 0.34375 0.015625q0.359375 0 0.875 0q0.515625 -0.015625 1.046875 -0.0625q0.53125 -0.046875 0.90625 -0.15625q0.046875 -0.265625 0.0625 -0.5625q0.015625 -0.296875 0.015625 -0.5625q-0.015625 -1.0 -0.234375 -1.421875q-0.203125 -0.421875 -0.828125 -0.421875q-0.3125 0 -0.609375 0.1875q-0.28125 0.171875 -0.515625 0.609375q-0.21875 0.4375 -0.34375 1.203125q-0.109375 0.765625 -0.109375 1.953125q0 0.875 0.09375 1.453125q0.109375 0.578125 0.328125 0.90625q0.21875 0.3125 0.53125 0.453125q0.328125 0.140625 0.796875 0.140625q0.5625 0 1.109375 -0.140625q0.546875 -0.15625 1.0 -0.4375q0.09375 0.21875 0.125 0.515625q0.03125 0.28125 0.03125 0.5q0 0.28125 -0.359375 0.53125q-0.359375 0.234375 -0.953125 0.359375q-0.578125 0.140625 -1.28125 0.140625zm4.0443726 -0.1875l0 -13.015625q0 -0.359375 0.109375 -0.5q0.125 -0.140625 0.453125 -0.171875q0.34375 -0.03125 0.953125 -0.03125l0 13.421875q0 0.140625 -0.078125 0.203125q-0.0625 0.0625 -0.375 0.078125q-0.296875 0.015625 -1.0625 0.015625z" fill-rule="nonzero"/><path fill="#fff2cc" d="m231.91864 24.251968l89.07086 0l0 51.496063l-89.07086 0z" fill-rule="evenodd"/><path stroke="#7f6000" stroke-width="1.0" stroke-linejoin="round" stroke-linecap="butt" d="m231.91864 24.251968l89.07086 0l0 51.496063l-89.07086 0z" fill-rule="evenodd"/><path fill="#7f6000" d="m251.41019 56.95125q-0.15625 0 -0.421875 -0.015625q-0.25 -0.015625 -0.53125 -0.03125l3.328125 -12.84375q0.046875 -0.25 0.578125 -0.25q0.171875 0 0.375 0.015625q0.203125 0.015625 0.328125 0.03125l3.34375 12.78125q0.03125 0.15625 -0.09375 0.234375q-0.125 0.078125 -0.5625 0.078125q-0.171875 0 -0.390625 -0.015625q-0.203125 0 -0.5 -0.015625l-1.765625 -7.34375q-0.140625 -0.640625 -0.28125 -1.296875q-0.125 -0.65625 -0.234375 -1.25q-0.09375 -0.609375 -0.140625 -1.0625q-0.03125 0.453125 -0.140625 1.0625q-0.09375 0.59375 -0.234375 1.25q-0.125 0.65625 -0.28125 1.296875l-1.671875 7.078125q-0.03125 0.15625 -0.140625 0.234375q-0.109375 0.0625 -0.5625 0.0625zm0.96875 -3.359375l0 -1.375l4.453125 0l0 1.375l-4.453125 0zm9.8880005 3.515625q-0.921875 0 -1.5625 -0.296875q-0.640625 -0.3125 -1.046875 -1.078125q-0.390625 -0.765625 -0.578125 -2.078125q-0.1875 -1.328125 -0.1875 -3.34375q0 -2.46875 0.390625 -3.921875q0.390625 -1.46875 1.171875 -2.09375q0.796875 -0.625 2.015625 -0.625q0.890625 0 1.53125 0.328125q0.640625 0.328125 1.03125 1.09375q0.390625 0.75 0.5625 2.015625q0.171875 1.25 0.171875 3.15625q0 2.578125 -0.359375 4.078125q-0.359375 1.484375 -1.140625 2.125q-0.765625 0.640625 -2.0 0.640625zm0.0625 -1.5625q0.6875 0 1.0625 -0.515625q0.390625 -0.515625 0.5625 -1.671875q0.171875 -1.171875 0.171875 -3.0625q0 -1.859375 -0.15625 -2.96875q-0.140625 -1.109375 -0.5 -1.59375q-0.359375 -0.484375 -1.03125 -0.484375q-0.65625 0 -1.078125 0.515625q-0.40625 0.515625 -0.59375 1.71875q-0.1875 1.1875 -0.1875 3.203125q0 1.734375 0.15625 2.796875q0.171875 1.0625 0.546875 1.5625q0.390625 0.5 1.046875 0.5zm11.060608 -1.5l-0.96875 -2.984375q-0.0625 -0.140625 -0.1875 -0.59375q-0.125 -0.453125 -0.296875 -1.046875q-0.171875 -0.609375 -0.359375 -1.25q-0.171875 -0.640625 -0.328125 -1.1875q-0.140625 -0.5625 -0.25 -0.90625q-0.09375 -0.34375 -0.09375 -0.34375l0.59375 -1.875l1.78125 5.65625q0.078125 0.28125 0.1875 0.640625q0.109375 0.34375 0.1875 0.671875q0.078125 0.328125 0.140625 0.546875q0.078125 0.21875 0.078125 0.21875q0 0 0.046875 -0.21875q0.046875 -0.21875 0.125 -0.546875q0.078125 -0.328125 0.171875 -0.65625q0.09375 -0.34375 0.1875 -0.625l1.640625 -5.390625l0.671875 1.640625q0 0 -0.09375 0.34375q-0.09375 0.328125 -0.25 0.875q-0.140625 0.546875 -0.3125 1.1875q-0.171875 0.625 -0.34375 1.21875q-0.171875 0.59375 -0.3125 1.03125q-0.125 0.4375 -0.171875 0.609375l-0.984375 2.84375q-0.0625 0.140625 -0.21875 0.140625l-0.640625 0zm-3.3125 2.875l0 -12.765625q0 -0.203125 0.09375 -0.25q0.09375 -0.046875 0.234375 -0.046875l1.09375 0l0.09375 2.390625l-0.390625 0.609375q0 0 0.03125 0.265625q0.03125 0.265625 0.046875 0.703125q0.03125 0.4375 0.078125 1.015625q0.046875 0.5625 0.09375 1.171875q0.046875 0.59375 0.078125 1.203125q0.03125 0.59375 0.03125 1.078125l0.03125 4.328125q0 0.140625 -0.09375 0.203125q-0.078125 0.0625 -0.390625 0.078125q-0.3125 0.015625 -1.03125 0.015625zm5.953125 0l0.078125 -4.546875q0 -0.484375 0.03125 -1.078125q0.03125 -0.609375 0.078125 -1.234375q0.046875 -0.640625 0.078125 -1.21875q0.03125 -0.59375 0.0625 -1.0625q0.046875 -0.46875 0.0625 -0.75q0.015625 -0.28125 0.015625 -0.28125l-0.390625 -0.34375l0 -2.25q0.0625 -0.125 0.109375 -0.203125q0.046875 -0.09375 0.203125 -0.09375q0.609375 0 0.859375 0q0.265625 0 0.3125 0q0.046875 0 0.046875 0l0 12.765625q0 0.140625 -0.0625 0.203125q-0.0625 0.0625 -0.390625 0.078125q-0.3125 0.015625 -1.09375 0.015625zm5.810425 0.1875q-0.71875 0 -1.265625 -0.1875q-0.546875 -0.171875 -0.921875 -0.671875q-0.375 -0.5 -0.5625 -1.453125q-0.1875 -0.96875 -0.1875 -2.546875q0 -2.546875 0.8125 -3.6875q0.828125 -1.15625 2.28125 -1.15625q1.0 0 1.640625 0.421875q0.640625 0.40625 0.953125 1.453125q0.328125 1.03125 0.328125 2.921875q0 2.609375 -0.796875 3.765625q-0.78125 1.140625 -2.28125 1.140625zm0.03125 -1.28125q0.40625 0 0.71875 -0.28125q0.3125 -0.296875 0.5 -1.078125q0.1875 -0.796875 0.1875 -2.25q0 -1.484375 -0.15625 -2.234375q-0.140625 -0.765625 -0.421875 -1.03125q-0.28125 -0.265625 -0.75 -0.265625q-0.40625 0 -0.734375 0.296875q-0.3125 0.28125 -0.5 1.078125q-0.171875 0.78125 -0.171875 2.234375q0 1.140625 0.09375 1.84375q0.09375 0.703125 0.25 1.078125q0.171875 0.359375 0.421875 0.484375q0.265625 0.125 0.5625 0.125zm7.2144165 1.28125q-0.609375 0 -1.15625 -0.140625q-0.53125 -0.140625 -0.96875 -0.59375q-0.421875 -0.453125 -0.65625 -1.359375q-0.234375 -0.90625 -0.234375 -2.421875q0 -1.84375 0.375 -2.984375q0.390625 -1.15625 1.03125 -1.671875q0.640625 -0.53125 1.453125 -0.53125q0.421875 0 0.75 0.09375q0.34375 0.09375 0.5625 0.28125l0 -3.875q0 -0.359375 0.125 -0.5q0.125 -0.140625 0.453125 -0.171875q0.34375 -0.03125 0.9375 -0.03125l0 13.34375q-0.4375 0.21875 -1.125 0.390625q-0.6875 0.171875 -1.546875 0.171875zm0.0625 -1.359375q0.3125 0 0.59375 -0.0625q0.28125 -0.078125 0.5 -0.21875l0 -6.5q-0.15625 -0.140625 -0.359375 -0.1875q-0.1875 -0.046875 -0.484375 -0.046875q-0.3125 0 -0.609375 0.15625q-0.296875 0.140625 -0.546875 0.546875q-0.234375 0.390625 -0.375 1.109375q-0.125 0.71875 -0.125 1.875q0 1.0625 0.09375 1.71875q0.09375 0.65625 0.28125 1.0q0.1875 0.34375 0.4375 0.484375q0.265625 0.125 0.59375 0.125zm6.983032 1.359375q-0.640625 0 -1.1875 -0.1875q-0.546875 -0.171875 -0.953125 -0.625q-0.40625 -0.46875 -0.625 -1.328125q-0.203125 -0.859375 -0.203125 -2.21875q0 -1.765625 0.28125 -2.828125q0.28125 -1.0625 0.734375 -1.59375q0.46875 -0.546875 1.0625 -0.734375q0.609375 -0.1875 1.21875 -0.1875q1.171875 0 1.765625 0.75q0.609375 0.75 0.609375 2.25q0 0.625 -0.046875 1.28125q-0.046875 0.640625 -0.1875 1.15625q-0.625 0.125 -1.40625 0.1875q-0.78125 0.046875 -1.5 0.078125q-0.703125 0.03125 -1.171875 0.03125q-0.453125 0 -0.453125 0l0.03125 -1.234375q0 0 0.34375 0.015625q0.359375 0 0.875 0q0.515625 -0.015625 1.046875 -0.0625q0.53125 -0.046875 0.90625 -0.15625q0.046875 -0.265625 0.0625 -0.5625q0.015625 -0.296875 0.015625 -0.5625q-0.015625 -1.0 -0.234375 -1.421875q-0.203125 -0.421875 -0.828125 -0.421875q-0.3125 0 -0.609375 0.1875q-0.28125 0.171875 -0.515625 0.609375q-0.21875 0.4375 -0.34375 1.203125q-0.109375 0.765625 -0.109375 1.953125q0 0.875 0.09375 1.453125q0.109375 0.578125 0.328125 0.90625q0.21875 0.3125 0.53125 0.453125q0.328125 0.140625 0.796875 0.140625q0.5625 0 1.109375 -0.140625q0.546875 -0.15625 1.0 -0.4375q0.09375 0.21875 0.125 0.515625q0.03125 0.28125 0.03125 0.5q0 0.28125 -0.359375 0.53125q-0.359375 0.234375 -0.953125 0.359375q-0.578125 0.140625 -1.28125 0.140625zm4.0443726 -0.1875l0 -13.015625q0 -0.359375 0.109375 -0.5q0.125 -0.140625 0.453125 -0.171875q0.34375 -0.03125 0.953125 -0.03125l0 13.421875q0 0.140625 -0.078125 0.203125q-0.0625 0.0625 -0.375 0.078125q-0.296875 0.015625 -1.0625 0.015625z" fill-rule="nonzero"/><path fill="#000000" fill-opacity="0.0" d="m67.19423 50.0l38.3937 0" fill-rule="evenodd"/><path stroke="#000000" stroke-width="1.0" stroke-linejoin="round" stroke-linecap="butt" d="m67.19423 50.0l32.3937 0" fill-rule="evenodd"/><path fill="#000000" stroke="#000000" stroke-width="1.0" stroke-linecap="butt" d="m99.58793 51.651733l4.5380936 -1.6517334l-4.5380936 -1.6517334z" fill-rule="evenodd"/><path fill="#000000" fill-opacity="0.0" d="m194.66142 50.0l37.259842 0" fill-rule="evenodd"/><path stroke="#000000" stroke-width="1.0" stroke-linejoin="round" stroke-linecap="butt" d="m194.66142 50.0l31.259842 0" fill-rule="evenodd"/><path fill="#000000" stroke="#000000" stroke-width="1.0" stroke-linecap="butt" d="m225.92126 51.651733l4.538086 -1.6517334l-4.538086 -1.6517334z" fill-rule="evenodd"/><path fill="#000000" fill-opacity="0.0" d="m320.9895 50.0l46.11023 0" fill-rule="evenodd"/><path stroke="#000000" stroke-width="1.0" stroke-linejoin="round" stroke-linecap="butt" d="m320.9895 50.0l40.11023 0" fill-rule="evenodd"/><path fill="#000000" stroke="#000000" stroke-width="1.0" stroke-linecap="butt" d="m361.09973 51.651733l4.5381165 -1.6517334l-4.5381165 -1.6517334z" fill-rule="evenodd"/><path fill="#d9d2e9" d="m11.288713 24.251968l55.905518 0l0 51.496063l-55.905518 0z" fill-rule="evenodd"/><path stroke="#20124d" stroke-width="1.0" stroke-linejoin="round" stroke-linecap="butt" d="m11.288713 24.251968l55.905518 0l0 51.496063l-55.905518 0z" fill-rule="evenodd"/><path fill="#20124d" d="m31.099562 57.07625q-0.328125 0 -0.515625 -0.28125q-0.1875 -0.296875 -0.296875 -0.796875l-0.953125 -4.1875q-0.078125 -0.453125 -0.1875 -1.140625q-0.09375 -0.6875 -0.1875 -1.4375q-0.09375 -0.75 -0.171875 -1.390625q-0.0625 -0.65625 -0.109375 -1.0625q-0.046875 -0.421875 -0.046875 -0.421875l-0.453125 -1.4375q-0.0625 -0.234375 0.015625 -0.328125q0.078125 -0.09375 0.296875 -0.09375l1.015625 0l1.296875 6.578125q0.171875 0.84375 0.265625 1.578125q0.109375 0.71875 0.171875 1.375q0.078125 0.640625 0.125 1.234375l0.109375 0q0.0625 -0.875 0.171875 -2.0q0.125 -1.125 0.296875 -2.1875l1.2031269 -6.765625q0.03125 -0.21875 0.109375 -0.328125q0.078125 -0.125 0.28125 -0.125l1.28125 0l-2.4375 13.125q-0.265625 0.015625 -0.4531269 0.03125q-0.171875 0.03125 -0.34375 0.046875q-0.171875 0.015625 -0.484375 0.015625zm-5.296875 -0.03125q-0.28125 0 -0.484375 -0.3125q-0.1875 -0.328125 -0.28125 -0.84375q-0.140625 -0.78125 -0.375 -1.90625q-0.234375 -1.140625 -0.484375 -2.453125q-0.25 -1.3125 -0.484375 -2.578125q-0.234375 -1.28125 -0.4375 -2.328125q-0.203125 -1.0625 -0.328125 -1.6875q-0.109375 -0.625 -0.109375 -0.625q-0.046875 -0.25 0 -0.34375q0.0625 -0.109375 0.328125 -0.109375l1.25 0l1.34375 7.21875q0.140625 0.84375 0.234375 1.578125q0.109375 0.734375 0.1875 1.390625q0.078125 0.640625 0.125 1.234375l0.125 0q0.046875 -1.125 0.171875 -2.15625q0.125 -1.03125 0.3125 -2.046875l1.125 -6.140625q0.046875 -0.234375 0.109375 -0.328125q0.0625 -0.109375 0.296875 -0.109375l0.640625 0q0.296875 0 0.328125 0.109375q0.03125 0.109375 0 0.3125l-0.515625 1.453125q0 0 -0.046875 0.421875q-0.046875 0.40625 -0.125 1.046875q-0.0625 0.640625 -0.15625 1.390625q-0.078125 0.734375 -0.171875 1.421875q-0.09375 0.6875 -0.171875 1.140625l-1.015625 5.1875q-0.34375 0.03125 -0.640625 0.046875q-0.28125 0.015625 -0.75 0.015625zm11.919939 0.0625q-0.984375 0 -1.625 -0.234375q-0.640625 -0.234375 -0.640625 -0.71875q0 -0.171875 0.046875 -0.40625q0.0625 -0.234375 0.21875 -0.46875q0.40625 0.234375 0.859375 0.359375q0.453125 0.109375 1.0 0.109375q0.703125 0 1.109375 -0.28125q0.40625 -0.296875 0.40625 -0.875q0 -0.375 -0.171875 -0.734375q-0.15625 -0.359375 -0.578125 -0.71875l-1.8125 -1.546875q-0.640625 -0.53125 -0.859375 -1.015625q-0.203125 -0.5 -0.203125 -0.96875q0 -0.65625 0.328125 -1.140625q0.328125 -0.5 1.0 -0.78125q0.6875 -0.28125 1.71875 -0.28125q0.96875 0 1.453125 0.1875q0.5 0.1875 0.6875 0.421875q0.203125 0.234375 0.203125 0.4375q0 0.390625 -0.328125 0.765625q-0.421875 -0.265625 -0.875 -0.375q-0.4375 -0.109375 -0.953125 -0.109375q-0.671875 0 -1.078125 0.234375q-0.40625 0.234375 -0.40625 0.65625q0 0.25 0.140625 0.515625q0.140625 0.25 0.609375 0.640625l1.734375 1.40625q0.609375 0.578125 0.84375 1.109375q0.25 0.515625 0.25 1.21875q0 1.234375 -0.828125 1.921875q-0.8125 0.671875 -2.25 0.671875zm4.4520264 -0.1875l0 -13.015625q0 -0.359375 0.109375 -0.5q0.125 -0.140625 0.453125 -0.171875q0.328125 -0.03125 0.9375 -0.03125l0 4.9375q0.4375 -0.375 1.0 -0.546875q0.578125 -0.1875 1.09375 -0.1875q0.8125 0 1.21875 0.296875q0.421875 0.28125 0.5625 0.828125q0.15625 0.53125 0.15625 1.34375l0 6.75q0 0.140625 -0.078125 0.203125q-0.078125 0.0625 -0.40625 0.078125q-0.328125 0.015625 -1.0625 0.015625l0 -6.640625q0 -0.609375 -0.203125 -1.03125q-0.1875 -0.4375 -0.875 -0.4375q-0.3125 0 -0.6875 0.109375q-0.375 0.109375 -0.71875 0.40625l0 7.296875q0 0.140625 -0.0625 0.203125q-0.0625 0.0625 -0.390625 0.078125q-0.3125 0.015625 -1.046875 0.015625zm8.066406 3.671875q-0.390625 0 -0.5625 -0.140625q-0.15625 -0.140625 -0.15625 -0.515625l0 -11.78125q0.5625 -0.359375 1.265625 -0.546875q0.703125 -0.203125 1.453125 -0.203125q0.9375 0 1.609375 0.328125q0.6875 0.328125 1.0625 1.1875q0.375 0.84375 0.375 2.359375q0 1.5 -0.171875 2.53125q-0.171875 1.03125 -0.453125 1.6875q-0.265625 0.65625 -0.640625 1.0q-0.359375 0.34375 -0.75 0.46875q-0.375 0.140625 -0.765625 0.140625q-0.5 0 -0.890625 -0.15625q-0.375 -0.140625 -0.578125 -0.359375l0 3.875q-0.1875 0.046875 -0.40625 0.078125q-0.203125 0.046875 -0.390625 0.046875zm1.796875 -4.84375q0.21875 0 0.484375 -0.125q0.265625 -0.140625 0.515625 -0.5625q0.25 -0.4375 0.40625 -1.296875q0.15625 -0.859375 0.15625 -2.3125q0 -1.109375 -0.15625 -1.703125q-0.15625 -0.59375 -0.46875 -0.796875q-0.3125 -0.21875 -0.8125 -0.21875q-0.625 0 -1.125 0.359375l0 6.03125q0.203125 0.34375 0.453125 0.484375q0.265625 0.140625 0.546875 0.140625z" fill-rule="nonzero"/></g></svg>